<?xml version="1.0" standalone="no"?>
<!DOCTYPE svg PUBLIC "-//W3C//DTD SVG 1.1//EN" "http://www.w3.org/Graphics/SVG/1.1/DTD/svg11.dtd" >
<svg xmlns="http://www.w3.org/2000/svg" xmlns:xlink="http://www.w3.org/1999/xlink" version="1.1">
<metadata>
Created by FontForge 20161013 at Wed Jul 10 15:24:49 2013
 By ,,,
Swiss Typefaces
</metadata>
<defs>
<font id="SuisseNeue-Medium" horiz-adv-x="678" >
  <font-face 
    font-family="Suisse Neue Medium"
    font-weight="500"
    font-stretch="normal"
    units-per-em="1000"
    panose-1="0 0 0 0 0 0 0 0 0 0"
    ascent="800"
    descent="-200"
    x-height="538"
    cap-height="725"
    bbox="-230 -240 1385 943"
    underline-thickness="50"
    underline-position="-200"
    unicode-range="U+000D-FB02"
  />
<missing-glyph horiz-adv-x="862" 
d="M607 65v595h-352v-595h352zM130 0v725h602v-725h-602z" />
    <glyph glyph-name=".notdef" horiz-adv-x="862" 
d="M607 65v595h-352v-595h352zM130 0v725h602v-725h-602z" />
    <glyph glyph-name=".null" horiz-adv-x="0" 
 />
    <glyph glyph-name="nonmarkingreturn" horiz-adv-x="333" 
 />
    <glyph glyph-name="CR" unicode="&#xd;" horiz-adv-x="180" 
 />
    <glyph glyph-name="space" unicode=" " horiz-adv-x="180" 
 />
    <glyph glyph-name="exclam" unicode="!" horiz-adv-x="305" 
d="M83 725h135v-203l-43 -315h-48l-44 316v202zM80 0v145h145v-145h-145z" />
    <glyph glyph-name="quotedbl" unicode="&#x22;" horiz-adv-x="403" 
d="M363 725l-43 -273h-56l-44 273h143zM182 725l-43 -273h-55l-44 273h142z" />
    <glyph glyph-name="numbersign" unicode="#" horiz-adv-x="672" 
d="M408 297l23 166h-158l-24 -166h159zM366 0l32 225h-159l-31 -225h-76l32 225h-144l10 72h144l23 166h-143l10 72h143l27 190h75l-26 -190h158l27 190h75l-27 -190h136l-10 -72h-136l-23 -166h135l-9 -72h-136l-32 -225h-75z" />
    <glyph glyph-name="dollar" unicode="$" horiz-adv-x="646" 
d="M291 448l5 -1v233q-58 -4 -102.5 -31t-44.5 -78q0 -50 37 -78t105 -45zM514 180q0 55 -41.5 83.5t-120.5 50.5v-265q65 3 113.5 36t48.5 95zM352 -90h-56v79q-116 9 -190.5 74t-90.5 175h124q7 -72 45.5 -123t111.5 -63v276l-48 13q-93 24 -152 75t-59 135q0 89 75 137
t184 53v92h56v-92q105 -9 173.5 -70.5t84.5 -148.5h-121q-6 64 -42.5 103.5t-94.5 50.5v-244l19 -5q45 -12 76.5 -22.5t68 -29t59 -40.5t38 -55.5t15.5 -75.5q0 -99 -81 -155.5t-195 -61.5v-77z" />
    <glyph glyph-name="percent" unicode="%" horiz-adv-x="1002" 
d="M48 527q0 100 51 154.5t126 54.5t126 -54.5t51 -154.5q0 -101 -51 -155.5t-126 -54.5t-126 54.5t-51 155.5zM291 0h-88l508 725h88zM132 527q0 -83 25 -127.5t68 -44.5t68 44.5t25 127.5t-25 128t-68 45t-68 -45t-25 -128zM600 202q0 100 51 154.5t126 54.5t126 -54.5
t51 -154.5q0 -101 -51 -155.5t-126 -54.5t-126 54.5t-51 155.5zM684 202q0 -83 25 -128t68 -45t68 45t25 128t-25 128t-68 45t-68 -45t-25 -128z" />
    <glyph glyph-name="ampersand" unicode="&#x26;" horiz-adv-x="779" 
d="M648 -17l-127 131q-98 -126 -250 -126q-111 0 -183 60.5t-72 154.5q0 44 16.5 79.5t47.5 61t65 43t79 33.5q-99 103 -99 183q0 51 32 86t77.5 49.5t99.5 14.5q81 0 137 -34t56 -99q0 -61 -47 -102t-128 -79l190 -195q45 69 68 123q7 17 9.5 27t-2 19t-19.5 11l-45 5v38
h216v-38l-31 -2q-16 -2 -29 -15t-29 -45q-40 -80 -97 -164l142 -146zM329 463l2 -2q96 42 96 148q0 50 -25.5 75t-65.5 25q-43 0 -66 -24.5t-23 -59.5q0 -64 82 -162zM300 58q106 0 180 98l-231 238q-99 -46 -99 -179q0 -70 41 -113.5t109 -43.5z" />
    <glyph glyph-name="quotesingle" unicode="'" horiz-adv-x="222" 
d="M40 725h142l-43 -273h-55z" />
    <glyph glyph-name="parenleft" unicode="(" horiz-adv-x="259" 
d="M148 278q0 -245 111 -467h-61q-84 120 -126 231.5t-42 235.5q0 230 168 467h61q-111 -229 -111 -467z" />
    <glyph glyph-name="parenright" unicode=")" horiz-adv-x="259" 
d="M111 278q0 242 -111 467h61q84 -120 126 -231.5t42 -235.5q0 -230 -168 -467h-61q111 232 111 467z" />
    <glyph glyph-name="asterisk" unicode="*" horiz-adv-x="366" 
d="M210 728v-121l118 43l21 -55l-118 -39l71 -101l-45 -34l-75 103l-71 -103l-49 33l72 101l-117 40l19 55l116 -43v121h58z" />
    <glyph glyph-name="plus" unicode="+" 
d="M380 0h-81v236h-236v76h236v227h81v-227h235v-76h-235v-236z" />
    <glyph glyph-name="comma" unicode="," horiz-adv-x="285" 
d="M70 0v145h145v-155l-85 -175h-47l48 185h-61z" />
    <glyph glyph-name="hyphen" unicode="-" horiz-adv-x="321" 
d="M20 227v99h281v-99h-281z" />
    <glyph glyph-name="period" unicode="." horiz-adv-x="285" 
d="M70 0v145h145v-145h-145z" />
    <glyph glyph-name="slash" unicode="/" horiz-adv-x="372" 
d="M81 0h-81l292 725h80z" />
    <glyph glyph-name="zero" unicode="0" horiz-adv-x="709" 
d="M50 365q0 179 85 278t220 99q134 0 219 -99t85 -278q0 -180 -84.5 -279t-219.5 -99t-220 99t-85 279zM177 365q0 -153 46 -236t132 -83q85 0 131.5 83t46.5 236t-46.5 236t-131.5 83q-86 0 -132 -83t-46 -236z" />
    <glyph glyph-name="one" unicode="1" horiz-adv-x="408" 
d="M298 539v-466q0 -17 6.5 -24t25.5 -10l43 -4v-35h-296v35l76 5q19 2 25 9t6 24v521h-164v44q96 4 144.5 23t85.5 64h50z" />
    <glyph glyph-name="two" unicode="2" horiz-adv-x="612" 
d="M130 98h439v-98h-557v97q258 172 346.5 264t88.5 184q0 64 -38 101.5t-99 37.5q-87 0 -125.5 -56t-31.5 -152h-114q-6 125 73 195.5t204 70.5q112 0 181.5 -50t69.5 -146q0 -53 -26.5 -103.5t-98 -112.5t-117.5 -95.5t-162 -113.5q-22 -15 -33 -23z" />
    <glyph glyph-name="three" unicode="3" horiz-adv-x="631" 
d="M300 -13q-117 0 -193.5 62.5t-81.5 159.5h111q0 -69 46 -116t119 -47q74 0 119.5 38t45.5 110q0 75 -58 112t-154 37h-32v65h25q85 0 143.5 37.5t58.5 109.5q0 59 -39.5 94t-104.5 35q-72 0 -116 -43.5t-44 -113.5h-111q5 92 81.5 153.5t192.5 61.5q107 0 184 -45.5
t77 -132.5q0 -126 -154 -175v-1q83 -18 129.5 -65t46.5 -121q0 -72 -41 -121.5t-105 -71.5t-145 -22z" />
    <glyph glyph-name="four" unicode="4" horiz-adv-x="680" 
d="M310 0v37l54 4q20 2 26 8.5t6 25.5v122h-376v68l393 460h101l-2 -186v-254h138v-88h-138v-122q0 -19 6 -25.5t26 -8.5l43 -4v-37h-277zM125 285h271v317z" />
    <glyph glyph-name="five" unicode="5" horiz-adv-x="639" 
d="M312 -13q-113 0 -185.5 63t-76.5 155h111q0 -65 42 -112t110 -47q78 0 121.5 54t43.5 142q0 90 -47 137t-120 47q-58 0 -105 -33.5t-66 -92.5l-67 14l46 411h447v-97h-386l-25 -200q65 70 182 70q113 0 187.5 -62.5t74.5 -188.5q0 -118 -82.5 -189t-204.5 -71z" />
    <glyph glyph-name="six" unicode="6" horiz-adv-x="659" 
d="M358 684q-84 0 -132 -80t-54 -200q63 85 191 85q44 0 88 -15t82 -44.5t62 -79t24 -112.5q0 -109 -80.5 -180t-200.5 -71q-144 0 -216 95.5t-72 253.5q0 196 88.5 301t225.5 105q91 0 160 -47.5t84 -140.5h-111q-7 61 -43.5 95.5t-95.5 34.5zM342 425q-76 0 -121 -52.5
t-45 -141.5q0 -88 46 -136.5t116 -48.5q74 0 115.5 54.5t41.5 136.5q0 79 -40 133.5t-113 54.5z" />
    <glyph glyph-name="seven" unicode="7" horiz-adv-x="508" 
d="M-5 627v98h533v-92q-41 -36 -62 -55t-60 -59.5t-60.5 -72.5t-50 -83t-43 -101.5t-24 -118.5t-8.5 -143h-134q1 104 30.5 200.5t80.5 174t112 139.5t134 113h-448z" />
    <glyph glyph-name="eight" unicode="8" horiz-adv-x="682" 
d="M343 -13q-129 0 -213.5 54t-84.5 150q0 70 57 117t134 66q-153 70 -153 188q0 80 74 130t189 50q116 0 187.5 -46t71.5 -122q0 -57 -49.5 -103t-121.5 -69l16 -7q90 -39 138.5 -84.5t48.5 -111.5q0 -95 -84.5 -153.5t-209.5 -58.5zM346 440l44 -19q48 20 77.5 60t29.5 85
q0 56 -44 87t-109 31q-66 0 -106.5 -28t-40.5 -77q0 -47 36 -76.5t113 -62.5zM343 46q81 0 128.5 33t47.5 91q0 54 -37.5 84t-138.5 74l-60 25q-63 -21 -92.5 -64.5t-29.5 -95.5q0 -71 49 -109t133 -38z" />
    <glyph glyph-name="nine" unicode="9" horiz-adv-x="659" 
d="M317 305q77 0 121.5 52t44.5 141q0 88 -46.5 137t-115.5 49q-74 0 -116 -55t-42 -137q0 -78 40.5 -132.5t113.5 -54.5zM301 46q84 0 132 79.5t54 199.5q-64 -85 -192 -85q-44 0 -87.5 15t-81.5 44.5t-62 79.5t-24 112q0 110 80.5 180.5t200.5 70.5q143 0 215.5 -95.5
t72.5 -253.5q0 -196 -88.5 -301t-226.5 -105q-90 0 -159 48t-84 141h111q7 -62 43.5 -96t95.5 -34z" />
    <glyph glyph-name="colon" unicode=":" horiz-adv-x="285" 
d="M70 394v144h145v-144h-145zM70 0v145h145v-145h-145z" />
    <glyph glyph-name="semicolon" unicode=";" horiz-adv-x="285" 
d="M70 394v144h145v-144h-145zM70 0v145h145v-155l-85 -175h-47l48 185h-61z" />
    <glyph glyph-name="less" unicode="&#x3c;" 
d="M59 309l521 234v-87l-424 -183l424 -180v-86l-521 231v71z" />
    <glyph glyph-name="equal" unicode="=" 
d="M586 344h-494v75h494v-75zM586 138h-494v75h494v-75z" />
    <glyph glyph-name="greater" unicode="&#x3e;" 
d="M620 309v-71l-521 -231v86l424 180l-424 183v87z" />
    <glyph glyph-name="question" unicode="?" horiz-adv-x="557" 
d="M413 602q0 41 -35.5 66.5t-100.5 25.5q-78 0 -124 -45t-41 -126h-107q-5 113 73 171.5t202 58.5q113 0 182.5 -43t69.5 -111q0 -25 -8.5 -47t-18.5 -37t-31.5 -32.5t-34 -25.5t-41 -25t-37.5 -23q-59 -37 -83 -69.5t-24 -90.5v-35h-64v39q0 99 26 144t95 87
q32 20 49.5 32t35 36t17.5 50zM151 0v145h144v-145h-144z" />
    <glyph glyph-name="at" unicode="@" horiz-adv-x="845" 
d="M621 157q-43 0 -71 27.5t-32 73.5q-50 -96 -158 -96q-64 0 -106 45t-42 133q0 95 58 166t151 71q44 0 74.5 -23.5t43.5 -62.5l8 67h64l-32 -224q-14 -112 50 -112q45 0 75 50.5t30 136.5q0 128 -80 196.5t-213 68.5q-144 0 -235 -92t-91 -230q0 -132 78 -214.5t210 -82.5
q111 0 199 42l24 -63q-105 -47 -223 -47q-160 0 -259.5 103t-99.5 264q0 163 114 272.5t285 109.5q158 0 258.5 -83t100.5 -240q0 -117 -54.5 -186.5t-126.5 -69.5zM422 510q-59 0 -96 -50.5t-37 -121.5q0 -112 90 -112q61 0 98 52t37 125q0 51 -24 79t-68 28z" />
    <glyph glyph-name="A" unicode="A" horiz-adv-x="738" 
d="M343 573l-113 -296h227zM231 38v-38h-236v38l40 3q16 2 23.5 10t14.5 25l255 649h82l255 -649q7 -17 14.5 -25t24.5 -10l39 -3v-38h-287v38l49 5q42 3 29 33l-53 137h-276l-52 -137q-11 -30 29 -33z" />
    <glyph glyph-name="B" unicode="B" horiz-adv-x="708" 
d="M50 688v37h316q269 0 269 -162q0 -68 -37 -111t-100 -61v-2q84 -16 129.5 -63t45.5 -117q0 -45 -13.5 -80t-45.5 -65.5t-93.5 -47t-148.5 -16.5h-322v38l49 5q18 1 24.5 9t6.5 24v573q0 16 -6.5 24.5t-24.5 10.5zM255 663v-252h97q92 0 123.5 35t31.5 99q0 58 -33 88
t-114 30h-105zM255 350v-288h88q115 0 156.5 35t41.5 116q0 67 -41 102t-146 35h-99z" />
    <glyph glyph-name="C" unicode="C" horiz-adv-x="768" 
d="M42 365q0 173 98.5 275t264.5 102q124 0 212.5 -63t114.5 -182h-124q-9 85 -61.5 134t-141.5 49q-114 0 -172 -84t-58 -231t58 -231.5t172 -84.5q89 0 142 49t62 135h124q-26 -118 -115 -182t-213 -64q-166 0 -264.5 102t-98.5 276z" />
    <glyph glyph-name="D" unicode="D" horiz-adv-x="793" 
d="M323 725q202 0 315 -88t113 -274q0 -187 -113 -275t-315 -88h-273v38l49 5q18 1 24.5 9t6.5 24v573q0 16 -6.5 24.5t-24.5 10.5l-49 4v37h273zM333 62q147 0 216.5 73t69.5 228q0 154 -69.5 227t-216.5 73h-78v-601h78z" />
    <glyph glyph-name="E" unicode="E" horiz-adv-x="703" 
d="M50 725h587v-222h-44l-9 66q-3 24 -6 39.5t-11 26.5t-14 16.5t-23.5 8t-30.5 3t-43 0.5h-201v-256h297v-65h-297v-280h213q36 0 50.5 1t32 5t23.5 14.5t11.5 27.5t9.5 46l9 66h44v-222h-598v38l49 5q18 1 24.5 9t6.5 24v573q0 16 -6.5 24.5t-24.5 10.5l-49 4v37z" />
    <glyph glyph-name="F" unicode="F" horiz-adv-x="648" 
d="M50 725h587v-222h-44l-9 66q-3 24 -6 39.5t-11 26.5t-14 16.5t-23.5 8t-30.5 3t-43 0.5h-201v-256h297v-65h-297v-266q0 -16 6.5 -24t24.5 -9l73 -5v-38h-309v38l49 5q18 1 24.5 9t6.5 24v573q0 16 -6.5 24.5t-24.5 10.5l-49 4v37z" />
    <glyph glyph-name="G" unicode="G" horiz-adv-x="803" 
d="M405 680q-114 0 -172 -84t-58 -231t58 -231.5t172 -84.5q22 0 43 3t52 15t53.5 32.5t39 60t16.5 93.5v56h-113v54h237v-363h-70l-20 93q-69 -106 -238 -106q-166 0 -264.5 102t-98.5 276q0 173 98.5 275t264.5 102q124 0 212.5 -63t114.5 -182h-124q-9 85 -61.5 134
t-141.5 49z" />
    <glyph glyph-name="H" unicode="H" horiz-adv-x="862" 
d="M335 38v-38h-285v38l49 5q18 1 24.5 9t6.5 24v573q0 16 -6.5 24.5t-24.5 10.5l-49 4v37h285v-37l-49 -4q-18 -2 -24.5 -10.5t-6.5 -24.5v-242h352v242q0 17 -6 25t-25 10l-49 4v37h285v-37l-50 -4q-18 -2 -24 -10t-6 -25v-573q0 -16 6 -24t24 -9l50 -5v-38h-285v38l49 5
q19 1 25 9t6 24v266h-352v-266q0 -16 6.5 -24t24.5 -9z" />
    <glyph glyph-name="I" unicode="I" horiz-adv-x="385" 
d="M335 38v-38h-285v38l49 5q18 1 24.5 9t6.5 24v573q0 16 -6.5 24.5t-24.5 10.5l-49 4v37h285v-37l-49 -4q-18 -2 -24.5 -10.5t-6.5 -24.5v-573q0 -16 6.5 -24t24.5 -9z" />
    <glyph glyph-name="J" unicode="J" horiz-adv-x="417" 
d="M301 649v-473q0 -29 -3 -52.5t-7 -41t-13.5 -30.5t-17 -22t-23.5 -14.5t-26.5 -9t-32.5 -5t-35 -1.5h-40h-61v62h22q27 0 40.5 1t30 7t23.5 18.5t12.5 35t5.5 57.5v468q0 17 -6 25t-24 10l-49 4v37h285v-37l-50 -4q-18 -2 -24.5 -10.5t-6.5 -24.5z" />
    <glyph glyph-name="K" unicode="K" horiz-adv-x="776" 
d="M335 38v-38h-285v38l49 5q18 1 24.5 9t6.5 24v573q0 16 -6.5 24.5t-24.5 10.5l-49 4v37h285v-37l-49 -4q-18 -2 -24.5 -10.5t-6.5 -24.5v-292l295 292q17 18 10.5 25t-38.5 11l-33 3v37h247v-37l-25 -2q-23 -3 -40.5 -15.5t-52.5 -47.5l-184 -180l235 -353
q20 -30 34.5 -39.5t38.5 -11.5l24 -1v-38h-289v38l22 1q35 1 39.5 9.5t-10.5 27.5l-183 280l-90 -88v-192q0 -16 6.5 -24t24.5 -9z" />
    <glyph glyph-name="L" unicode="L" horiz-adv-x="634" 
d="M50 0v38l49 5q18 1 24.5 9t6.5 24v573q0 16 -6.5 24.5t-24.5 10.5l-49 4v37h285v-37l-49 -4q-18 -2 -24.5 -10.5t-6.5 -24.5v-587h189q30 0 43.5 0.5t30 3.5t22.5 8t14 16.5t11 26.5t6 39l9 66h44v-222h-574z" />
    <glyph glyph-name="M" unicode="M" horiz-adv-x="1027" 
d="M897 76q0 -16 6.5 -24t24.5 -9l49 -5v-38h-285v38l49 5q18 1 24.5 9t6.5 24v516l-252 -592h-61l-252 586v-510q0 -16 6.5 -24t24.5 -9l49 -5v-38h-233v38l50 5q18 1 24 9t6 24v573q0 19 -7.5 26t-27.5 9l-49 4v37h236l231 -546l233 546h225v-37l-49 -4q-19 -2 -24 -10
t-5 -25v-573z" />
    <glyph glyph-name="N" unicode="N" horiz-adv-x="810" 
d="M705 649v-649h-66l-436 563v-487q0 -16 6 -24t24 -9l50 -5v-38h-233v38l49 5q18 1 24.5 9t6.5 24v573q0 16 -6.5 24.5t-24.5 10.5l-49 4v37h183l399 -518v442q0 16 -6 24t-25 9l-49 5v38h233v-38l-49 -5q-19 -1 -25 -9t-6 -24z" />
    <glyph glyph-name="O" unicode="O" horiz-adv-x="811" 
d="M406 -13q-162 0 -263 102.5t-101 275.5q0 172 101 274.5t263 102.5t262.5 -102.5t100.5 -274.5q0 -173 -100.5 -275.5t-262.5 -102.5zM636 365q0 145 -58 230t-172 85t-172.5 -85t-58.5 -230q0 -146 58.5 -231t172.5 -85t172 85t58 231z" />
    <glyph glyph-name="P" unicode="P" horiz-adv-x="654" 
d="M339 726q153 0 236.5 -49t83.5 -165t-83.5 -165t-236.5 -49h-84v-222q0 -16 6.5 -24t24.5 -9l66 -5v-38h-302v38l49 5q18 1 24.5 9t6.5 24v573q0 16 -6.5 24.5t-24.5 10.5l-49 4v37q48 0 144.5 0.5t144.5 0.5zM331 663h-76v-302h76q108 0 152 38.5t44 112.5t-44 112.5
t-152 38.5z" />
    <glyph glyph-name="Q" unicode="Q" horiz-adv-x="811" 
d="M657 -93l-106 106q-67 -26 -145 -26q-162 0 -263 102.5t-101 275.5q0 172 101 274.5t263 102.5t262.5 -102.5t100.5 -274.5q0 -107 -40 -188.5t-113 -130.5l91 -89zM406 49q50 0 90 17l-90 90l49 50l100 -99q81 81 81 258q0 145 -58 230t-172 85t-172.5 -85t-58.5 -230
q0 -146 58.5 -231t172.5 -85z" />
    <glyph glyph-name="R" unicode="R" horiz-adv-x="746" 
d="M328 664h-73v-281h73q95 0 140.5 34t45.5 107t-45.5 106.5t-140.5 33.5zM339 38v-38h-289v38l49 5q18 1 24.5 9t6.5 24v573q0 16 -6.5 24.5t-24.5 10.5l-49 4v37q46 0 136.5 0.5t136.5 0.5q170 0 245.5 -51t75.5 -151q0 -131 -145 -179l154 -259q14 -25 24.5 -33
t31.5 -10l42 -5v-38h-189l-51 94l-133 228q-36 -2 -55 -2h-68v-244q0 -16 6.5 -24t24.5 -9z" />
    <glyph glyph-name="S" unicode="S" horiz-adv-x="654" 
d="M611 522h-121q-7 77 -56.5 117.5t-124.5 40.5q-37 0 -71.5 -10t-61 -36t-26.5 -63q0 -50 37 -78t105 -45l80 -21q45 -12 76.5 -22.5t68 -29t59 -40.5t38 -55.5t15.5 -75.5q0 -103 -87 -160t-206 -57q-132 0 -217 66t-103 185h124q8 -82 56.5 -135.5t142.5 -53.5
q69 0 122.5 33t53.5 98q0 25 -10 45t-24.5 33t-39.5 25t-46.5 19t-54.5 15l-91 24q-93 24 -152 75t-59 135q0 94 83 142.5t200 48.5t195.5 -63t94.5 -157z" />
    <glyph glyph-name="T" unicode="T" horiz-adv-x="711" 
d="M20 725h671v-222h-44l-9 66q-9 68 -30 82t-98 14h-92v-587q0 -17 6.5 -25t25.5 -9l60 -5v-39h-309v39l61 5q19 1 25 9t6 25v587h-92q-77 0 -97.5 -14t-29.5 -82l-9 -66h-45v222z" />
    <glyph glyph-name="U" unicode="U" horiz-adv-x="794" 
d="M404 -13q-168 0 -239 73.5t-71 211.5v377q0 16 -6.5 24.5t-25.5 10.5l-49 4v37h286v-37l-49 -4q-18 -2 -24.5 -10.5t-6.5 -24.5v-372q0 -107 45 -160.5t144 -53.5q107 0 161 49.5t54 162.5v374q0 17 -6 25t-24 10l-49 4v37h235v-37l-49 -4q-18 -2 -24 -10t-6 -25v-369
q0 -136 -70 -214.5t-226 -78.5z" />
    <glyph glyph-name="V" unicode="V" horiz-adv-x="748" 
d="M670 649l-255 -649h-82l-255 649q-5 12 -8 17.5t-11 11.5t-19 7l-40 3v37h287v-37l-49 -4q-41 -5 -28 -35l190 -497l190 497q11 30 -29 35l-49 4v37h236v-37l-39 -3q-17 -2 -24.5 -10t-14.5 -26z" />
    <glyph glyph-name="W" unicode="W" horiz-adv-x="997" 
d="M564 725l163 -550l107 474q7 31 -30 35l-49 4v37h237v-37l-40 -3q-17 -2 -25.5 -10.5t-13.5 -25.5l-161 -649h-96l-153 516l-162 -516h-88l-170 649q-5 17 -13 25.5t-25 10.5l-40 3v37h287v-37l-49 -4q-21 -2 -27 -10t-1 -25l106 -471l164 547h79z" />
    <glyph glyph-name="X" unicode="X" horiz-adv-x="807" 
d="M255 38v-38h-225v38l34 2q23 1 51 36l229 285l-211 288q-10 13 -14.5 18t-13 11t-18.5 7l-33 3v37h302v-37l-49 -4q-27 -2 -34 -9.5t5 -25.5l142 -193l155 193q14 14 9.5 23t-32.5 13l-27 3v37h225v-37l-33 -2q-4 0 -8.5 -1.5l-7.5 -2.5t-7 -4l-6 -4.5t-6.5 -6t-5.5 -6
t-5.5 -6.5t-5.5 -6l-202 -252l236 -321q2 -2 8 -9.5l8 -10t7.5 -7t10.5 -6t12 -2.5l32 -3v-38h-302v38l50 5q26 2 33 8.5t-5 24.5l-166 226l-181 -226q-14 -14 -10 -22.5t33 -12.5z" />
    <glyph glyph-name="Y" unicode="Y" horiz-adv-x="690" 
d="M278 76v211l-205 362q-18 33 -44 36l-34 3v37h297v-37l-49 -4q-20 -2 -28 -12t-1 -23l159 -288l165 288q7 13 -1.5 23t-28.5 12l-49 4v37h236v-37l-32 -3q-26 -3 -46 -36l-214 -363v-210q0 -16 6.5 -24t25.5 -9l49 -5v-38h-286v38l48 5q19 1 25.5 9t6.5 24z" />
    <glyph glyph-name="Z" unicode="Z" horiz-adv-x="693" 
d="M244 663q-36 0 -50.5 -1t-32 -5t-23.5 -14.5t-11.5 -27.5t-9.5 -46l-8 -66h-45v222h581v-59l-471 -604h297q36 0 50.5 1t32 5t23.5 14.5t11.5 27.5t9.5 46l9 66h44v-222h-621v61l470 602h-256z" />
    <glyph glyph-name="bracketleft" unicode="[" horiz-adv-x="284" 
d="M68 -188v933h202v-53h-85v-827h85v-53h-202z" />
    <glyph glyph-name="backslash" unicode="\" horiz-adv-x="372" 
d="M81 725l291 -725h-80l-292 725h81z" />
    <glyph glyph-name="bracketright" unicode="]" horiz-adv-x="285" 
d="M217 745v-933h-203v53h86v827h-86v53h203z" />
    <glyph glyph-name="asciicircum" unicode="^" horiz-adv-x="440" 
d="M256 725l204 -393h-88l-153 293l-152 -293h-87l202 393h74z" />
    <glyph glyph-name="underscore" unicode="_" horiz-adv-x="437" 
d="M22 -78v78h393v-78h-393z" />
    <glyph glyph-name="grave" unicode="`" horiz-adv-x="285" 
d="M198 603l-168 142h131l94 -142h-57z" />
    <glyph glyph-name="a" unicode="a" horiz-adv-x="595" 
d="M393 238v31q-48 -6 -73.5 -10t-59 -13t-49.5 -21t-28 -33t-12 -50q0 -39 25 -63t67 -24q57 0 93.5 42.5t36.5 140.5zM391 325v37q0 70 -26 99.5t-83 29.5q-53 0 -80.5 -32.5t-30.5 -88.5h-110q6 78 69.5 127.5t155.5 49.5q114 0 167.5 -47t50.5 -157q-2 -62 -2 -123
q0 -91 2 -137q2 -20 7 -26.5t24 -7.5l43 -4v-37l-167 -11l-8 98h-3q-56 -108 -184 -108q-75 0 -123.5 40t-48.5 106q0 46 25 79.5t74.5 55.5t107.5 34.5t140 22.5z" />
    <glyph glyph-name="b" unicode="b" horiz-adv-x="650" 
d="M103 185v485q0 19 -5.5 25t-25.5 8l-43 5v37h192l-1 -137v-88q0 -51 -1 -75h1q58 102 172 102q96 0 157 -76.5t61 -203.5q0 -126 -67.5 -203t-170.5 -77q-109 0 -169 91h-3l-52 -79h-47q2 62 2 186zM211 267q0 -115 39.5 -163.5t96.5 -48.5q63 0 99.5 58.5t36.5 153.5
q0 98 -33 155t-96 57q-26 0 -49.5 -10t-45.5 -32t-35 -66t-13 -104z" />
    <glyph glyph-name="c" unicode="c" horiz-adv-x="581" 
d="M40 267q0 127 72.5 203.5t189.5 76.5q90 0 158 -47t83 -138h-113q-2 64 -39 95t-83 31q-68 0 -104.5 -59t-36.5 -162t36 -162t106 -59q46 0 82.5 30t38.5 94h113q-15 -91 -83 -137t-158 -46q-116 0 -189 76.5t-73 203.5z" />
    <glyph glyph-name="d" unicode="d" horiz-adv-x="648" 
d="M295 55q26 0 49.5 10t46 32t35.5 66t13 104q0 115 -40 163.5t-96 48.5q-64 0 -100 -58t-36 -154q0 -97 33 -154.5t95 -57.5zM342 745h206l-1 -137v-524q0 -20 6 -26.5t25 -7.5l43 -4v-37l-186 -12l-2 93h-2q-26 -44 -70 -73.5t-102 -29.5q-96 0 -157.5 77t-61.5 203
t67.5 203t170.5 77q50 0 89 -27t63 -70h2q-2 68 -2 88v132q0 19 -6 25t-26 8l-56 5v37z" />
    <glyph glyph-name="e" unicode="e" horiz-adv-x="589" 
d="M300 490q-59 0 -97 -42t-42 -126h267q2 86 -33.5 127t-94.5 41zM549 162q-16 -88 -84 -131.5t-162 -43.5q-118 0 -191 75.5t-73 201.5q0 123 71 203t191 80q113 0 182.5 -72.5t67.5 -212.5h-390q1 -101 40 -158.5t110 -57.5q51 0 85 30t39 86h114z" />
    <glyph glyph-name="f" unicode="f" horiz-adv-x="416" 
d="M340 38v-38h-298v37l43 4q20 2 25.5 8.5t5.5 25.5v399h-74v64h74v57q0 92 46.5 121t155.5 29h93v-70h-106q-42 0 -57 -14t-15 -51v-72h178v-64h-178v-398q0 -19 6 -25.5t26 -7.5z" />
    <glyph glyph-name="g" unicode="g" horiz-adv-x="598" 
d="M267 226q99 0 99 136q0 137 -99 137t-99 -137q0 -136 99 -136zM557 -15q0 -69 -80 -124t-207 -55q-121 0 -180.5 35.5t-59.5 88.5q0 38 37 64.5t89 31.5q-42 9 -62 32t-20 53t29.5 51t73.5 30q-57 20 -91 63t-34 107q0 88 62 136.5t153 48.5q54 0 99 -18l212 9v-64
l-143 11q47 -49 47 -123q0 -87 -62 -135.5t-153 -48.5q-35 0 -64 7q-30 -13 -30 -36q0 -20 16 -28t51 -11l143 -10q96 -6 135 -35t39 -80zM277 -141q72 0 120.5 26t48.5 66q0 30 -23 43.5t-77 16.5l-148 9q-2 0 -7 0.5t-7 0.5q-21 -9 -35.5 -29t-14.5 -43q0 -40 37 -65
t106 -25z" />
    <glyph glyph-name="h" unicode="h" horiz-adv-x="640" 
d="M549 355v-280q0 -19 5.5 -25.5t25.5 -8.5l43 -4v-37h-265v37l42 4q20 2 26 8.5t6 25.5v240q0 86 -21.5 123t-72.5 37q-54 0 -85.5 -42t-31.5 -109v-249q0 -19 6 -25.5t26 -8.5l42 -4v-37h-265v37l43 4q20 2 25.5 8.5t5.5 25.5v595q0 19 -5.5 25t-25.5 8l-43 5v37h192
l-1 -135v-61l-1 -101h1q24 45 67 72t100 27q161 0 161 -192z" />
    <glyph glyph-name="i" unicode="i" horiz-adv-x="334" 
d="M116 610v135h117v-135h-117zM234 538l-1 -133v-330q0 -19 6 -25.5t26 -8.5l42 -4v-37h-265v37l43 4q20 2 25.5 8.5t5.5 25.5v389q0 19 -5.5 24.5t-25.5 8.5l-43 4v37h192z" />
    <glyph glyph-name="j" unicode="j" horiz-adv-x="340" 
d="M131 610v135h117v-135h-117zM131 7v457q0 19 -5.5 24.5t-25.5 8.5l-43 4v37h192l-1 -133v-392q0 -69 -7.5 -108.5t-29.5 -61t-49.5 -27t-80.5 -5.5h-71v74h70q35 0 43 18.5t8 103.5z" />
    <glyph glyph-name="k" unicode="k" horiz-adv-x="612" 
d="M295 37v-37h-265v37l43 4q20 2 25.5 8.5t5.5 25.5v595q0 19 -5.5 25t-25.5 8l-43 5v37h192l-1 -137v-345l193 195q15 15 10 25.5t-30 13.5l-51 4v37h256v-37l-49 -6q-16 -2 -30.5 -11t-40.5 -36l-114 -111l155 -253q14 -22 28.5 -32t39.5 -13l24 -2v-37h-179l-150 256
l-62 -60v-121q0 -19 6 -25.5t26 -8.5z" />
    <glyph glyph-name="l" unicode="l" horiz-adv-x="322" 
d="M30 745h192l-1 -137v-533q0 -19 6 -25.5t26 -8.5l42 -4v-37h-265v37l43 4q20 2 25.5 8.5t5.5 25.5v595q0 19 -5.5 25t-25.5 8l-43 5v37z" />
    <glyph glyph-name="m" unicode="m" horiz-adv-x="948" 
d="M232 538v-90h1q53 99 159 99q112 0 145 -105q23 48 66.5 76.5t101.5 28.5q152 0 152 -192v-280q0 -19 5.5 -25.5t25.5 -8.5l43 -4v-37h-266v37l43 4q20 2 26 8.5t6 25.5v240q0 87 -19 123.5t-66 36.5q-55 0 -82.5 -41t-27.5 -110v-249q0 -19 6 -25.5t26 -8.5l43 -4v-37
h-266v37l43 4q20 2 26 8.5t6 25.5v240q0 87 -19.5 123.5t-67.5 36.5q-54 0 -81.5 -41.5t-27.5 -109.5v-249q0 -19 6 -25.5t26 -8.5l42 -4v-37h-265v37l43 4q20 2 25.5 8.5t5.5 25.5v389q0 19 -5.5 24.5t-25.5 8.5l-43 4v37h190z" />
    <glyph glyph-name="n" unicode="n" horiz-adv-x="652" 
d="M561 355v-280q0 -19 5.5 -25.5t25.5 -8.5l43 -4v-37h-265v37l42 4q20 2 26 8.5t6 25.5v240q0 86 -21.5 123t-72.5 37q-54 0 -85.5 -42t-31.5 -109v-249q0 -19 6 -25.5t26 -8.5l42 -4v-37h-265v37l43 4q20 2 25.5 8.5t5.5 25.5v389q0 19 -5.5 24.5t-25.5 8.5l-43 4v37h190
v-90h1q24 45 67 72t100 27q161 0 161 -192z" />
    <glyph glyph-name="o" unicode="o" horiz-adv-x="611" 
d="M304 547q118 0 192.5 -76t74.5 -204q0 -127 -75 -203.5t-193 -76.5q-117 0 -190 76t-73 204q0 127 73.5 203.5t190.5 76.5zM304 46q63 0 101.5 54t38.5 167q0 114 -38 167.5t-102 53.5q-63 0 -100 -53.5t-37 -167.5q0 -113 37.5 -167t99.5 -54z" />
    <glyph glyph-name="p" unicode="p" horiz-adv-x="640" 
d="M201 267q0 -115 39.5 -163.5t95.5 -48.5q64 0 100.5 58t36.5 154q0 97 -33 154.5t-97 57.5q-26 0 -49 -10t-45 -32t-35 -66t-13 -104zM207 538v-94h2q25 43 69 73t102 30q97 0 158.5 -76.5t61.5 -203.5q0 -125 -68 -202.5t-170 -77.5q-51 0 -90.5 27t-61.5 69h-2
q2 -56 2 -68v-127q0 -20 6 -26t26 -8l69 -5v-38h-292v37l43 5q20 2 25.5 8t5.5 25v578q0 19 -5.5 24.5t-25.5 8.5l-43 4v37h188z" />
    <glyph glyph-name="q" unicode="q" horiz-adv-x="644" 
d="M430 -112v126q0 52 1 76h-1q-25 -44 -69 -73.5t-103 -29.5q-96 0 -157 77t-61 203t67.5 203t170.5 77q109 0 169 -91h2l42 82h58l-2 -190v-462q0 -19 5.5 -25t25.5 -8l43 -5v-37h-292v38l69 5q20 2 26 8t6 26zM439 266q0 115 -40 164t-96 49q-64 0 -100 -58.5t-36 -154.5
q0 -97 32.5 -154t95.5 -57q26 0 49.5 9.5t46 32t35.5 66t13 103.5z" />
    <glyph glyph-name="r" unicode="r" horiz-adv-x="459" 
d="M232 538v-120h2q22 58 68 91t105 33h47v-110h-95q-64 0 -95 -28t-31 -105v-223q0 -19 6 -25.5t26 -7.5l75 -5v-38h-298v37l43 4q20 2 25.5 8.5t5.5 25.5v389q0 19 -5.5 24.5t-25.5 8.5l-43 4v37h190z" />
    <glyph glyph-name="s" unicode="s" horiz-adv-x="537" 
d="M148 169q6 -55 39.5 -89t94.5 -34q57 0 89.5 22.5t32.5 61.5q0 42 -35 63t-94 32l-62 12q-69 13 -115.5 51.5t-46.5 106.5q0 75 63.5 113.5t151.5 38.5t149.5 -42.5t76.5 -119.5h-109q-2 44 -38 73.5t-88 29.5q-40 0 -76 -16t-36 -53q0 -66 105 -86l62 -13
q88 -18 138.5 -54.5t50.5 -112.5q0 -85 -64.5 -125.5t-164.5 -40.5q-97 0 -161.5 48t-71.5 134h109z" />
    <glyph glyph-name="t" unicode="t" horiz-adv-x="404" 
d="M371 538v-64h-153v-322q0 -50 15.5 -66t62.5 -16h74v-70h-92q-108 0 -142.5 26t-34.5 113v335h-94v64h94v171h117v-171h153z" />
    <glyph glyph-name="u" unicode="u" horiz-adv-x="626" 
d="M410 -9l-4 94h-1q-51 -98 -164 -98q-157 0 -157 192v285q0 19 -5.5 24.5t-25.5 8.5l-43 4v37h192l-1 -136v-184q0 -86 20.5 -122.5t70.5 -36.5q54 0 83.5 41.5t29.5 109.5v254q0 19 -5.5 24.5t-25.5 8.5l-43 4v37h192l-1 -136v-318q0 -19 6 -25.5t26 -8.5l42 -4v-37z" />
    <glyph glyph-name="v" unicode="v" horiz-adv-x="554" 
d="M235 -2l-176 468q-6 17 -13 24.5t-24 8.5l-27 2v37h249v-37l-39 -3q-18 -2 -23 -9t1 -24l108 -324l109 297q7 19 9 25t2.5 16.5t-5.5 14t-18 4.5l-39 3v37h210v-37l-31 -2q-21 -1 -29 -12t-22 -47l-174 -442h-68z" />
    <glyph glyph-name="w" unicode="w" horiz-adv-x="790" 
d="M562 157l74 281q5 17 6.5 25t1.5 17t-5 13t-15 5l-37 3v37h208v-37l-31 -2q-16 -1 -28.5 -14t-23.5 -45l-134 -442h-71l-118 387l-119 -387h-71l-140 468q-8 31 -27 32l-37 3v37h248v-37l-38 -3q-18 -2 -22.5 -9t0.5 -24l75 -307l117 380h72z" />
    <glyph glyph-name="x" unicode="x" horiz-adv-x="654" 
d="M246 37v-37h-229v37l31 2q25 3 39 12.5t36 35.5l147 174l-150 199q-17 22 -26.5 28.5t-27.5 9.5l-22 3v37h253v-37l-35 -3q-16 -2 -17.5 -8.5t9.5 -21.5l90 -119l101 119q11 13 10 19.5t-20 9.5l-39 4v37h229v-37l-30 -2q-24 -3 -38 -12.5t-36 -33.5l-135 -160l163 -215
q17 -22 26 -28.5t27 -9.5l22 -3v-37h-252v37l35 3q16 2 17.5 8.5t-10.5 21.5l-102 136l-115 -136q-11 -12 -10 -19t20 -10z" />
    <glyph glyph-name="y" unicode="y" horiz-adv-x="561" 
d="M113 -189h-77v71h80q41 0 61 21.5t46 97.5l5 13l-169 452q-5 17 -13 23.5t-28 9.5l-23 2v37h255v-37l-45 -3q-18 -2 -23 -9t1 -24l111 -333l113 306q12 27 11 41.5t-23 17.5l-45 4v37h216v-37l-32 -2q-17 -1 -26 -11.5t-21 -39.5l-179 -458q-44 -112 -78.5 -145.5
t-116.5 -33.5z" />
    <glyph glyph-name="z" unicode="z" horiz-adv-x="539" 
d="M40 0v62l313 412h-285v64h426v-60l-314 -414h319v-64h-459z" />
    <glyph glyph-name="braceleft" unicode="{" horiz-adv-x="310" 
d="M257 -188q-91 0 -129 28.5t-38 94.5v212q0 51 -16 82t-64 31v41q48 0 64 31t16 82v207q0 67 38 95.5t129 28.5h43v-53h-14q-45 0 -62 -21.5t-17 -62.5v-184q0 -70 -26 -100.5t-86 -41.5v-2q61 -12 86.5 -42t25.5 -99v-190q0 -40 17 -62t62 -22h14v-53h-43z" />
    <glyph glyph-name="bar" unicode="|" horiz-adv-x="227" 
d="M151 -90h-75v815h75v-815z" />
    <glyph glyph-name="braceright" unicode="}" horiz-adv-x="310" 
d="M54 -188h-44v53h14q45 0 62.5 22t17.5 62v190q0 69 25.5 99t85.5 42v2q-59 11 -85 41.5t-26 100.5v184q0 41 -17 62.5t-63 21.5h-14v53h44q91 0 129 -28.5t38 -95.5v-207q0 -51 15.5 -82t63.5 -31v-41q-48 0 -63.5 -31t-15.5 -82v-212q0 -66 -38 -94.5t-129 -28.5z" />
    <glyph glyph-name="asciitilde" unicode="~" 
d="M455 278q28 0 47.5 19t22.5 53h76q-4 -66 -43.5 -104.5t-102.5 -38.5q-43 0 -120 36.5t-110 36.5q-29 0 -48 -19t-21 -54h-78q4 66 43.5 104.5t103.5 38.5q52 0 128 -36t102 -36z" />
    <glyph glyph-name="uni00A0" unicode="&#xa0;" horiz-adv-x="180" 
 />
    <glyph glyph-name="exclamdown" unicode="&#xa1;" horiz-adv-x="305" 
d="M225 538v-145h-145v145h145zM222 -188h-134v202l42 315h48l44 -316v-201z" />
    <glyph glyph-name="cent" unicode="&#xa2;" horiz-adv-x="578" 
d="M543 170q-14 -87 -77 -133t-149 -50v-69h-50v71q-102 11 -164.5 86t-62.5 192t62 192t165 86v74h50v-72q85 -4 148.5 -51t77.5 -134h-113q-2 61 -35.5 91.5t-77.5 34.5v-442q44 3 77.5 33t35.5 91h113zM167 267q0 -181 100 -214v429q-100 -35 -100 -215z" />
    <glyph glyph-name="sterling" unicode="&#xa3;" horiz-adv-x="616" 
d="M217 26q-65 0 -166 -42l-37 82q74 28 111 74.5t37 122.5q0 45 -24 98h-121v51h96q-44 90 -44 145q0 52 22 90t61 57.5t82 28.5t94 9q125 0 196.5 -63t76.5 -171h-111q0 81 -45.5 128.5t-117.5 47.5q-138 0 -138 -124q0 -64 42 -148h209v-51h-184q21 -47 21 -85
q0 -39 -22 -73.5t-45.5 -53t-60.5 -41.5l1 -1q47 23 97 23q31 0 92.5 -23.5t97.5 -23.5q57 0 133 34l36 -93q-27 -15 -75 -26.5t-88 -11.5q-49 0 -121 20t-105 20z" />
    <glyph glyph-name="currency" unicode="&#xa4;" horiz-adv-x="636" 
d="M537 92l-71 71q-66 -52 -151 -52q-81 0 -146 50l-70 -69l-48 47l70 71q-46 63 -46 142t46 142l-70 70l48 47l69 -68q64 51 147 51q85 0 152 -53l70 70l48 -47l-72 -72q45 -63 45 -140t-45 -141l72 -72zM150 352q0 -74 46.5 -123.5t117.5 -49.5q75 0 122.5 49.5
t47.5 123.5q0 75 -47.5 125t-122.5 50q-71 0 -117.5 -50t-46.5 -125z" />
    <glyph glyph-name="yen" unicode="&#xa5;" horiz-adv-x="681" 
d="M475 38v-38h-277v38l48 5q19 1 25.5 9t6.5 24v54h-109v53h109v78h-109v53h94l-190 335q-18 33 -44 36l-34 3v37h289v-37l-49 -4q-20 -2 -27.5 -12t-0.5 -23l157 -288l165 288q7 13 -1 23t-29 12l-49 4v37h236v-37l-32 -3q-12 -1 -21 -7t-13 -11.5t-11 -17.5l-197 -335h92
v-53h-109v-78h109v-53h-109v-54q0 -16 6 -24t25 -9z" />
    <glyph glyph-name="brokenbar" unicode="&#xa6;" horiz-adv-x="227" 
d="M76 725h75v-305h-75v305zM76 215h75v-305h-75v305z" />
    <glyph glyph-name="section" unicode="&#xa7;" horiz-adv-x="605" 
d="M355 157q29 -16 31 -17q33 15 54.5 40t21.5 56q0 35 -28 63t-83 58l-128 70q-2 1 -6 3.5t-6 3.5q-82 -30 -82 -92q0 -40 21.5 -63.5t68.5 -49.5zM293 -200q-98 0 -163.5 49.5t-76.5 143.5h108q3 -63 37.5 -100.5t92.5 -37.5q53 0 83.5 26t30.5 65q0 36 -23.5 61t-82.5 57
l-129 69q-145 79 -145 181q0 101 145 144q-93 64 -93 144q0 68 62 104t148 36q201 0 226 -165h-108q0 48 -31 80.5t-88 32.5q-46 0 -76 -17t-30 -50q0 -30 22.5 -52t70.5 -48l152 -82q66 -34 102.5 -73.5t36.5 -94.5q0 -106 -138 -159q83 -58 83 -140q0 -78 -63.5 -126
t-152.5 -48z" />
    <glyph glyph-name="dieresis" unicode="&#xa8;" horiz-adv-x="385" 
d="M253 610v135h112v-135h-112zM20 610v135h112v-135h-112z" />
    <glyph glyph-name="copyright" unicode="&#xa9;" horiz-adv-x="830" 
d="M40 361q0 164 108.5 270t267.5 106q157 0 265.5 -106t108.5 -270t-108.5 -269t-265.5 -105q-159 0 -267.5 105t-108.5 269zM109 361q0 -138 88 -225.5t219 -87.5q132 0 218.5 87.5t86.5 225.5q0 139 -86.5 226.5t-218.5 87.5t-219.5 -87.5t-87.5 -226.5zM413 219
q38 0 68 19t41 59l67 -19q-18 -52 -62 -85.5t-114 -33.5q-89 0 -137.5 55.5t-48.5 153.5q0 95 51.5 149.5t139.5 54.5q67 0 110 -33.5t58 -89.5l-67 -21q-9 41 -38 62.5t-68 21.5q-49 0 -81 -37t-32 -107t32 -109.5t81 -39.5z" />
    <glyph glyph-name="ordfeminine" unicode="&#xaa;" horiz-adv-x="360" 
d="M227 562v32l-38 -4q-69 -12 -69 -59q0 -22 14 -35t38 -13q25 0 40 16.5t15 62.5zM37 528q0 55 50 76q28 11 94 21l46 5v14q0 36 -12.5 51.5t-42.5 15.5q-55 0 -56 -58h-69q3 43 39 67.5t89 24.5q65 0 94.5 -25t28.5 -83v-65q0 -51 1 -75q0 -13 3.5 -17t15.5 -5l23 -3v-22
l-101 -7l-5 47h-4q-27 -53 -86 -53q-42 0 -75 25.5t-33 65.5z" />
    <glyph glyph-name="guillemotleft" unicode="&#xab;" horiz-adv-x="510" 
d="M427 38l-209 235l209 234h63l-141 -234l141 -235h-63zM209 38l-209 235l209 234h63l-141 -234l141 -235h-63z" />
    <glyph glyph-name="logicalnot" unicode="&#xac;" 
d="M502 361h-449v76h530v-338h-81v262z" />
    <glyph glyph-name="uni00AD" unicode="&#xad;" horiz-adv-x="321" 
d="M20 227v99h281v-99h-281z" />
    <glyph glyph-name="registered" unicode="&#xae;" horiz-adv-x="830" 
d="M40 361q0 164 108.5 270t267.5 106q157 0 265.5 -106t108.5 -270t-108.5 -269t-265.5 -105q-159 0 -267.5 105t-108.5 269zM109 361q0 -138 88 -225.5t219 -87.5q132 0 218.5 87.5t86.5 225.5q0 139 -86.5 226.5t-218.5 87.5t-219.5 -87.5t-87.5 -226.5zM506 450
q0 34 -25 47.5t-71 13.5h-66v-122h71q91 0 91 61zM344 329v-153h-73v397h122q96 0 141 -25t45 -97q0 -74 -72 -106l91 -169h-81l-81 154q-6 -1 -20 -1h-72z" />
    <glyph glyph-name="macron" unicode="&#xaf;" horiz-adv-x="349" 
d="M319 631h-289v71h289v-71z" />
    <glyph glyph-name="degree" unicode="&#xb0;" horiz-adv-x="338" 
d="M20 589q0 62 43.5 105.5t104.5 43.5q62 0 106 -43.5t44 -105.5t-44 -105.5t-106 -43.5q-61 0 -104.5 44t-43.5 105zM91 589q0 -36 21.5 -61t55.5 -25q36 0 58 25t22 61q0 37 -22 61.5t-58 24.5q-34 0 -55.5 -24.5t-21.5 -61.5z" />
    <glyph glyph-name="plusminus" unicode="&#xb1;" 
d="M299 371v168h80v-168h230v-75h-230v-172h-80v172h-230v75h230zM609 0h-540v75h540v-75z" />
    <glyph glyph-name="twosuperior" unicode="&#xb2;" horiz-adv-x="364" 
d="M85 508h245v-63h-316v67q145 93 192.5 140t47.5 99q0 30 -19 49.5t-51 19.5q-45 0 -65.5 -31t-17.5 -84h-72q-4 71 41.5 111t117.5 40q66 0 104.5 -26t38.5 -80q0 -29 -19 -59.5t-54 -60t-71 -54.5t-83 -56q-13 -8 -19 -12z" />
    <glyph glyph-name="threesuperior" unicode="&#xb3;" horiz-adv-x="377" 
d="M184 438q-67 0 -112.5 36t-48.5 94h70q0 -39 26 -66t66 -27q37 0 60 20t23 60q0 75 -112 75h-13v44h7q46 0 77.5 18.5t31.5 57.5q0 32 -21 51t-54 19q-38 0 -62.5 -23.5t-24.5 -62.5h-71q3 53 48 87.5t111 34.5q60 0 106 -25.5t46 -71.5q0 -68 -74 -98v-2q85 -25 85 -100
q0 -60 -46 -90.5t-118 -30.5z" />
    <glyph glyph-name="acute" unicode="&#xb4;" horiz-adv-x="285" 
d="M255 745l-168 -142h-57l93 142h132z" />
    <glyph glyph-name="mu" unicode="&#xb5;" horiz-adv-x="564" 
d="M58 -189q10 43 10 158v566h81v-299q0 -179 128 -179q66 0 102 49t36 140v289h81v-535h-81v81q-45 -94 -135 -94q-91 0 -131 77v-86q0 -106 -11 -167h-80z" />
    <glyph glyph-name="paragraph" unicode="&#xb6;" horiz-adv-x="530" 
d="M199 355q-75 8 -127 53.5t-52 125.5q0 90 62 140.5t183 50.5h196v-816h-71v749h-120v-749h-71v446z" />
    <glyph glyph-name="periodcentered" unicode="&#xb7;" horiz-adv-x="285" 
d="M70 206v146h145v-146h-145z" />
    <glyph glyph-name="cedilla" unicode="&#xb8;" horiz-adv-x="285" 
d="M68 -85l57 88h48l-37 -53q54 10 86.5 -12.5t32.5 -64.5t-37 -66.5t-84 -24.5q-59 0 -104 20l17 41q36 -16 66 -16q25 0 46.5 10.5t21.5 30.5q0 18 -15.5 28t-36.5 10q-23 0 -40 -10z" />
    <glyph glyph-name="onesuperior" unicode="&#xb9;" horiz-adv-x="249" 
d="M221 445h-169v20l39 5q18 1 18 21v275h-90v29q50 2 78.5 12.5t50.5 35.5h35v-352q0 -11 3 -16t15 -7l20 -3v-20z" />
    <glyph glyph-name="ordmasculine" unicode="&#xba;" horiz-adv-x="371" 
d="M185 745q68 0 110.5 -41.5t42.5 -112.5t-42.5 -112.5t-111.5 -41.5t-110 42t-41 114q0 71 41.5 111.5t110.5 40.5zM185 474q70 0 70 118q0 117 -70 117q-69 0 -69 -117q0 -118 69 -118z" />
    <glyph glyph-name="guillemotright" unicode="&#xbb;" horiz-adv-x="510" 
d="M292 273l-208 -235h-64l141 235l-141 234h64zM510 273l-208 -235h-64l141 235l-141 234h64z" />
    <glyph glyph-name="onequarter" unicode="&#xbc;" horiz-adv-x="1032" 
d="M319 325h-169v20l39 4q18 1 18 22v278h-90v28q50 2 78.5 12.5t50.5 35.5h35v-354q0 -11 3 -16.5t15 -6.5l20 -3v-20zM306 0h-88l508 725h88zM803 0v22l18 3q12 1 15.5 5t3.5 17v59h-211v41l222 254h65l-1 -104v-135h73v-56h-73v-59q0 -13 3.5 -17t16.5 -5l19 -3v-22h-151
zM698 162h142v162z" />
    <glyph glyph-name="onehalf" unicode="&#xbd;" horiz-adv-x="1032" 
d="M306 0h-88l508 725h88zM319 325h-169v20l39 4q18 1 18 22v278h-90v28q50 2 78.5 12.5t50.5 35.5h35v-354q0 -11 3 -16.5t15 -6.5l20 -3v-20zM720 62h245v-62h-316v67q145 93 192.5 140t47.5 99q0 30 -19 49.5t-51 19.5q-45 0 -65.5 -31.5t-17.5 -83.5h-72q-4 71 42 111
t117 40q66 0 104.5 -26t38.5 -80q0 -29 -15.5 -56.5t-58.5 -63t-62.5 -49.5t-84.5 -57q-17 -11 -25 -17z" />
    <glyph glyph-name="threequarters" unicode="&#xbe;" horiz-adv-x="1032" 
d="M306 0h-88l508 725h88zM222 317q-67 0 -112.5 36.5t-48.5 93.5h70q0 -39 26 -65.5t66 -26.5q37 0 60 20t23 59q0 76 -112 76h-13v43h7q46 0 77.5 19t31.5 58q0 31 -21 50.5t-54 19.5q-38 0 -62.5 -24t-24.5 -63h-71q3 53 48.5 88t110.5 35q60 0 106 -25.5t46 -72.5
q0 -67 -74 -98v-1q85 -25 85 -100q0 -61 -46 -91.5t-118 -30.5zM803 0v22l18 3q12 1 15.5 5t3.5 17v59h-211v41l222 254h65l-1 -104v-135h73v-56h-73v-59q0 -13 3.5 -17t16.5 -5l19 -3v-22h-151zM698 162h142v162z" />
    <glyph glyph-name="questiondown" unicode="&#xbf;" horiz-adv-x="557" 
d="M406 538v-145h-144v145h144zM144 -45q0 -41 35.5 -67t100.5 -26q78 0 124 45t41 127h107q5 -114 -73 -172.5t-202 -58.5q-112 0 -182 43t-70 111q0 25 8.5 47.5t18.5 37t31.5 32t34 26t40.5 25t38 22.5q60 37 83.5 70t23.5 91v35h65v-39q0 -99 -26 -144.5t-95 -86.5
q-25 -15 -37.5 -23.5t-31 -24.5t-26.5 -33t-8 -37z" />
    <glyph glyph-name="Agrave" unicode="&#xc0;" horiz-adv-x="738" 
d="M332 773l-176 117h145l103 -117h-72zM343 573l-113 -296h227zM231 38v-38h-236v38l40 3q16 2 23.5 10t14.5 25l255 649h82l255 -649q7 -17 14.5 -25t24.5 -10l39 -3v-38h-287v38l49 5q42 3 29 33l-53 137h-276l-52 -137q-11 -30 29 -33z" />
    <glyph glyph-name="Aacute" unicode="&#xc1;" horiz-adv-x="738" 
d="M585 890l-176 -117h-72l103 117h145zM343 573l-113 -296h227zM231 38v-38h-236v38l40 3q16 2 23.5 10t14.5 25l255 649h82l255 -649q7 -17 14.5 -25t24.5 -10l39 -3v-38h-287v38l49 5q42 3 29 33l-53 137h-276l-52 -137q-11 -30 29 -33z" />
    <glyph glyph-name="Acircumflex" unicode="&#xc2;" horiz-adv-x="738" 
d="M424 890l126 -117h-78l-104 58l-103 -58h-78l128 117h109zM343 573l-113 -296h227zM231 38v-38h-236v38l40 3q16 2 23.5 10t14.5 25l255 649h82l255 -649q7 -17 14.5 -25t24.5 -10l39 -3v-38h-287v38l49 5q42 3 29 33l-53 137h-276l-52 -137q-11 -30 29 -33z" />
    <glyph glyph-name="Atilde" unicode="&#xc3;" horiz-adv-x="738" 
d="M433 844q40 0 46 46h62q-18 -118 -104 -118q-32 0 -75.5 24t-58.5 24q-37 0 -46 -47h-60q13 118 105 118q31 0 73 -23.5t58 -23.5zM343 573l-113 -296h227zM231 38v-38h-236v38l40 3q16 2 23.5 10t14.5 25l255 649h82l255 -649q7 -17 14.5 -25t24.5 -10l39 -3v-38h-287
v38l49 5q42 3 29 33l-53 137h-276l-52 -137q-11 -30 29 -33z" />
    <glyph glyph-name="Adieresis" unicode="&#xc4;" horiz-adv-x="738" 
d="M425 773v117h117v-117h-117zM197 773v117h117v-117h-117zM343 573l-113 -296h227zM231 38v-38h-236v38l40 3q16 2 23.5 10t14.5 25l255 649h82l255 -649q7 -17 14.5 -25t24.5 -10l39 -3v-38h-287v38l49 5q42 3 29 33l-53 137h-276l-52 -137q-11 -30 29 -33z" />
    <glyph glyph-name="Aring" unicode="&#xc5;" horiz-adv-x="738" 
d="M370 943q39 0 66 -25t27 -62q0 -38 -27 -63t-66 -25q-40 0 -67 25t-27 63q0 37 27.5 62t66.5 25zM370 900q-18 0 -31.5 -13t-13.5 -31q0 -19 13.5 -31.5t31.5 -12.5t31 12.5t13 31.5q0 18 -13 31t-31 13zM343 573l-113 -296h227zM231 38v-38h-236v38l40 3q16 2 23.5 10
t14.5 25l255 649h82l255 -649q7 -17 14.5 -25t24.5 -10l39 -3v-38h-287v38l49 5q42 3 29 33l-53 137h-276l-52 -137q-11 -30 29 -33z" />
    <glyph glyph-name="AE" unicode="&#xc6;" horiz-adv-x="1069" 
d="M495 610l-216 -333h216v333zM205 38v-38h-225v38l24 3q45 7 63 35l427 649h509v-222h-45l-8 66q-3 24 -6 39.5t-11 26.5t-14 16.5t-23.5 8t-30.5 3t-43 0.5h-201v-256h297v-65h-297v-280h213q78 0 97.5 13t28.5 81l9 66h45v-222h-598v38l49 5q18 1 24 9t6 24v137h-258
l-89 -137q-13 -20 -12.5 -25.5t14.5 -7.5z" />
    <glyph glyph-name="Ccedilla" unicode="&#xc7;" horiz-adv-x="768" 
d="M342 -218q-44 0 -86 18l15 36q23 -13 61 -13q60 0 60 45q0 18 -13.5 28t-31.5 10q-28 0 -45 -10l-21 19l50 78q-134 22 -211.5 120.5t-77.5 251.5q0 173 98.5 275t264.5 102q124 0 212.5 -63t114.5 -182h-124q-9 85 -61.5 134t-141.5 49q-114 0 -172 -84t-58 -231
t58 -231.5t172 -84.5q89 0 142 49t62 135h124q-26 -118 -115 -182t-213 -64q-20 0 -30 1l-26 -38q47 9 77.5 -13t30.5 -64q0 -40 -33.5 -65.5t-81.5 -25.5z" />
    <glyph glyph-name="Egrave" unicode="&#xc8;" horiz-adv-x="703" 
d="M340 773l-176 117h145l103 -117h-72zM50 725h587v-222h-44l-9 66q-3 24 -6 39.5t-11 26.5t-14 16.5t-23.5 8t-30.5 3t-43 0.5h-201v-256h297v-65h-297v-280h213q36 0 50.5 1t32 5t23.5 14.5t11.5 27.5t9.5 46l9 66h44v-222h-598v38l49 5q18 1 24.5 9t6.5 24v573
q0 16 -6.5 24.5t-24.5 10.5l-49 4v37z" />
    <glyph glyph-name="Eacute" unicode="&#xc9;" horiz-adv-x="703" 
d="M557 890l-176 -117h-72l103 117h145zM50 725h587v-222h-44l-9 66q-3 24 -6 39.5t-11 26.5t-14 16.5t-23.5 8t-30.5 3t-43 0.5h-201v-256h297v-65h-297v-280h213q36 0 50.5 1t32 5t23.5 14.5t11.5 27.5t9.5 46l9 66h44v-222h-598v38l49 5q18 1 24.5 9t6.5 24v573
q0 16 -6.5 24.5t-24.5 10.5l-49 4v37z" />
    <glyph glyph-name="Ecircumflex" unicode="&#xca;" horiz-adv-x="703" 
d="M419 890l126 -117h-78l-104 58l-103 -58h-78l128 117h109zM50 725h587v-222h-44l-9 66q-3 24 -6 39.5t-11 26.5t-14 16.5t-23.5 8t-30.5 3t-43 0.5h-201v-256h297v-65h-297v-280h213q36 0 50.5 1t32 5t23.5 14.5t11.5 27.5t9.5 46l9 66h44v-222h-598v38l49 5q18 1 24.5 9
t6.5 24v573q0 16 -6.5 24.5t-24.5 10.5l-49 4v37z" />
    <glyph glyph-name="Edieresis" unicode="&#xcb;" horiz-adv-x="703" 
d="M419 773v117h117v-117h-117zM191 773v117h117v-117h-117zM50 725h587v-222h-44l-9 66q-3 24 -6 39.5t-11 26.5t-14 16.5t-23.5 8t-30.5 3t-43 0.5h-201v-256h297v-65h-297v-280h213q36 0 50.5 1t32 5t23.5 14.5t11.5 27.5t9.5 46l9 66h44v-222h-598v38l49 5q18 1 24.5 9
t6.5 24v573q0 16 -6.5 24.5t-24.5 10.5l-49 4v37z" />
    <glyph glyph-name="Igrave" unicode="&#xcc;" horiz-adv-x="385" 
d="M184 773l-176 117h145l103 -117h-72zM335 38v-38h-285v38l49 5q18 1 24.5 9t6.5 24v573q0 16 -6.5 24.5t-24.5 10.5l-49 4v37h285v-37l-49 -4q-18 -2 -24.5 -10.5t-6.5 -24.5v-573q0 -16 6.5 -24t24.5 -9z" />
    <glyph glyph-name="Iacute" unicode="&#xcd;" horiz-adv-x="385" 
d="M381 890l-176 -117h-72l103 117h145zM335 38v-38h-285v38l49 5q18 1 24.5 9t6.5 24v573q0 16 -6.5 24.5t-24.5 10.5l-49 4v37h285v-37l-49 -4q-18 -2 -24.5 -10.5t-6.5 -24.5v-573q0 -16 6.5 -24t24.5 -9z" />
    <glyph glyph-name="Icircumflex" unicode="&#xce;" horiz-adv-x="385" 
d="M248 890l126 -117h-78l-104 58l-103 -58h-78l128 117h109zM335 38v-38h-285v38l49 5q18 1 24.5 9t6.5 24v573q0 16 -6.5 24.5t-24.5 10.5l-49 4v37h285v-37l-49 -4q-18 -2 -24.5 -10.5t-6.5 -24.5v-573q0 -16 6.5 -24t24.5 -9z" />
    <glyph glyph-name="Idieresis" unicode="&#xcf;" horiz-adv-x="385" 
d="M250 773v117h117v-117h-117zM22 773v117h117v-117h-117zM335 38v-38h-285v38l49 5q18 1 24.5 9t6.5 24v573q0 16 -6.5 24.5t-24.5 10.5l-49 4v37h285v-37l-49 -4q-18 -2 -24.5 -10.5t-6.5 -24.5v-573q0 -16 6.5 -24t24.5 -9z" />
    <glyph glyph-name="Eth" unicode="&#xd0;" horiz-adv-x="807" 
d="M347 62q147 0 216.5 73t69.5 228q0 154 -69.5 227t-216.5 73h-78v-256h134v-65h-134v-280h78zM64 0v38l49 5q18 1 24.5 9t6.5 24v266h-114v65h114v242q0 16 -6.5 24.5t-24.5 10.5l-49 4v37h273q202 0 315 -88t113 -274q0 -187 -113 -275t-315 -88h-273z" />
    <glyph glyph-name="Ntilde" unicode="&#xd1;" horiz-adv-x="810" 
d="M479 844q40 0 46 46h62q-18 -118 -104 -118q-32 0 -75.5 24t-58.5 24q-37 0 -46 -47h-60q13 118 105 118q31 0 73 -23.5t58 -23.5zM705 649v-649h-66l-436 563v-487q0 -16 6 -24t24 -9l50 -5v-38h-233v38l49 5q18 1 24.5 9t6.5 24v573q0 16 -6.5 24.5t-24.5 10.5l-49 4
v37h183l399 -518v442q0 16 -6 24t-25 9l-49 5v38h233v-38l-49 -5q-19 -1 -25 -9t-6 -24z" />
    <glyph glyph-name="Ograve" unicode="&#xd2;" horiz-adv-x="811" 
d="M362 773l-176 117h145l103 -117h-72zM406 -13q-162 0 -263 102.5t-101 275.5q0 172 101 274.5t263 102.5t262.5 -102.5t100.5 -274.5q0 -173 -100.5 -275.5t-262.5 -102.5zM636 365q0 145 -58 230t-172 85t-172.5 -85t-58.5 -230q0 -146 58.5 -231t172.5 -85t172 85
t58 231z" />
    <glyph glyph-name="Oacute" unicode="&#xd3;" horiz-adv-x="811" 
d="M594 890l-176 -117h-72l103 117h145zM406 -13q-162 0 -263 102.5t-101 275.5q0 172 101 274.5t263 102.5t262.5 -102.5t100.5 -274.5q0 -173 -100.5 -275.5t-262.5 -102.5zM636 365q0 145 -58 230t-172 85t-172.5 -85t-58.5 -230q0 -146 58.5 -231t172.5 -85t172 85
t58 231z" />
    <glyph glyph-name="Ocircumflex" unicode="&#xd4;" horiz-adv-x="811" 
d="M460 890l126 -117h-78l-104 58l-103 -58h-78l128 117h109zM406 -13q-162 0 -263 102.5t-101 275.5q0 172 101 274.5t263 102.5t262.5 -102.5t100.5 -274.5q0 -173 -100.5 -275.5t-262.5 -102.5zM636 365q0 145 -58 230t-172 85t-172.5 -85t-58.5 -230q0 -146 58.5 -231
t172.5 -85t172 85t58 231z" />
    <glyph glyph-name="Otilde" unicode="&#xd5;" horiz-adv-x="811" 
d="M465 844q40 0 46 46h62q-18 -118 -104 -118q-32 0 -75.5 24t-58.5 24q-37 0 -46 -47h-60q13 118 105 118q31 0 73 -23.5t58 -23.5zM406 -13q-162 0 -263 102.5t-101 275.5q0 172 101 274.5t263 102.5t262.5 -102.5t100.5 -274.5q0 -173 -100.5 -275.5t-262.5 -102.5z
M636 365q0 145 -58 230t-172 85t-172.5 -85t-58.5 -230q0 -146 58.5 -231t172.5 -85t172 85t58 231z" />
    <glyph glyph-name="Odieresis" unicode="&#xd6;" horiz-adv-x="811" 
d="M470 773v117h117v-117h-117zM242 773v117h117v-117h-117zM406 -13q-162 0 -263 102.5t-101 275.5q0 172 101 274.5t263 102.5t262.5 -102.5t100.5 -274.5q0 -173 -100.5 -275.5t-262.5 -102.5zM636 365q0 145 -58 230t-172 85t-172.5 -85t-58.5 -230q0 -146 58.5 -231
t172.5 -85t172 85t58 231z" />
    <glyph glyph-name="multiply" unicode="&#xd7;" 
d="M576 92l-57 -57l-181 181l-178 -178l-57 57l178 178l-178 179l57 57l178 -179l178 178l57 -57l-178 -178z" />
    <glyph glyph-name="Oslash" unicode="&#xd8;" horiz-adv-x="811" 
d="M175 365q0 -109 33 -186l350 441q-58 60 -152 60q-114 0 -172.5 -85t-58.5 -230zM406 49q114 0 172 85t58 231q0 123 -41 201l-352 -444q59 -73 163 -73zM406 -13q-126 0 -219 65l-75 -95l-48 41l76 95q-98 103 -98 272q0 172 101 274.5t263 102.5q116 0 205 -56l59 75
l49 -39l-59 -74q109 -104 109 -283q0 -173 -100.5 -275.5t-262.5 -102.5z" />
    <glyph glyph-name="Ugrave" unicode="&#xd9;" horiz-adv-x="794" 
d="M390 773l-176 117h145l103 -117h-72zM404 -13q-168 0 -239 73.5t-71 211.5v377q0 16 -6.5 24.5t-25.5 10.5l-49 4v37h286v-37l-49 -4q-18 -2 -24.5 -10.5t-6.5 -24.5v-372q0 -107 45 -160.5t144 -53.5q107 0 161 49.5t54 162.5v374q0 17 -6 25t-24 10l-49 4v37h235v-37
l-49 -4q-18 -2 -24 -10t-6 -25v-369q0 -136 -70 -214.5t-226 -78.5z" />
    <glyph glyph-name="Uacute" unicode="&#xda;" horiz-adv-x="794" 
d="M631 890l-176 -117h-72l103 117h145zM404 -13q-168 0 -239 73.5t-71 211.5v377q0 16 -6.5 24.5t-25.5 10.5l-49 4v37h286v-37l-49 -4q-18 -2 -24.5 -10.5t-6.5 -24.5v-372q0 -107 45 -160.5t144 -53.5q107 0 161 49.5t54 162.5v374q0 17 -6 25t-24 10l-49 4v37h235v-37
l-49 -4q-18 -2 -24 -10t-6 -25v-369q0 -136 -70 -214.5t-226 -78.5z" />
    <glyph glyph-name="Ucircumflex" unicode="&#xdb;" horiz-adv-x="794" 
d="M477 890l126 -117h-78l-104 58l-103 -58h-78l128 117h109zM404 -13q-168 0 -239 73.5t-71 211.5v377q0 16 -6.5 24.5t-25.5 10.5l-49 4v37h286v-37l-49 -4q-18 -2 -24.5 -10.5t-6.5 -24.5v-372q0 -107 45 -160.5t144 -53.5q107 0 161 49.5t54 162.5v374q0 17 -6 25
t-24 10l-49 4v37h235v-37l-49 -4q-18 -2 -24 -10t-6 -25v-369q0 -136 -70 -214.5t-226 -78.5z" />
    <glyph glyph-name="Udieresis" unicode="&#xdc;" horiz-adv-x="794" 
d="M478 773v117h117v-117h-117zM250 773v117h117v-117h-117zM404 -13q-168 0 -239 73.5t-71 211.5v377q0 16 -6.5 24.5t-25.5 10.5l-49 4v37h286v-37l-49 -4q-18 -2 -24.5 -10.5t-6.5 -24.5v-372q0 -107 45 -160.5t144 -53.5q107 0 161 49.5t54 162.5v374q0 17 -6 25t-24 10
l-49 4v37h235v-37l-49 -4q-18 -2 -24 -10t-6 -25v-369q0 -136 -70 -214.5t-226 -78.5z" />
    <glyph glyph-name="Yacute" unicode="&#xdd;" horiz-adv-x="690" 
d="M581 890l-176 -117h-72l103 117h145zM278 76v211l-205 362q-18 33 -44 36l-34 3v37h297v-37l-49 -4q-20 -2 -28 -12t-1 -23l159 -288l165 288q7 13 -1.5 23t-28.5 12l-49 4v37h236v-37l-32 -3q-26 -3 -46 -36l-214 -363v-210q0 -16 6.5 -24t25.5 -9l49 -5v-38h-286v38
l48 5q19 1 25.5 9t6.5 24z" />
    <glyph glyph-name="Thorn" unicode="&#xde;" horiz-adv-x="654" 
d="M339 583q74 0 130.5 -10.5t100.5 -34.5t66.5 -66t22.5 -102q0 -116 -83.5 -165t-236.5 -49h-84v-80q0 -16 6.5 -24t24.5 -9l66 -5v-38h-302v38l49 5q18 1 24.5 9t6.5 24v573q0 16 -6.5 24.5t-24.5 10.5l-49 4v37h302v-37l-66 -4q-18 -2 -24.5 -10.5t-6.5 -24.5v-66h84z
M255 219h76q108 0 152 39t44 112q0 74 -44 112.5t-152 38.5h-76v-302z" />
    <glyph glyph-name="germandbls" unicode="&#xdf;" horiz-adv-x="704" 
d="M103 73v446q0 119 67.5 176.5t191.5 57.5q120 0 181 -46t61 -126q0 -64 -37.5 -103.5t-93.5 -53.5v-4q76 -6 132.5 -61t56.5 -142q0 -109 -72 -169.5t-190 -60.5q-72 0 -138 11v90h3q75 -42 133 -42q65 0 102 40.5t37 126.5q0 81 -53.5 124.5t-148.5 43.5h-31v64h22
q156 0 156 129q0 120 -125 120q-72 0 -104.5 -41.5t-32.5 -136.5v-311l2 -205h-182v35l32 4q19 3 25 10t6 24z" />
    <glyph glyph-name="agrave" unicode="&#xe0;" horiz-adv-x="595" 
d="M297 603l-168 142h131l94 -142h-57zM393 238v31q-48 -6 -73.5 -10t-59 -13t-49.5 -21t-28 -33t-12 -50q0 -39 25 -63t67 -24q57 0 93.5 42.5t36.5 140.5zM391 325v37q0 70 -26 99.5t-83 29.5q-53 0 -80.5 -32.5t-30.5 -88.5h-110q6 78 69.5 127.5t155.5 49.5
q114 0 167.5 -47t50.5 -157q-2 -62 -2 -123q0 -91 2 -137q2 -20 7 -26.5t24 -7.5l43 -4v-37l-167 -11l-8 98h-3q-56 -108 -184 -108q-75 0 -123.5 40t-48.5 106q0 46 25 79.5t74.5 55.5t107.5 34.5t140 22.5z" />
    <glyph glyph-name="aacute" unicode="&#xe1;" horiz-adv-x="595" 
d="M487 745l-168 -142h-57l93 142h132zM393 238v31q-48 -6 -73.5 -10t-59 -13t-49.5 -21t-28 -33t-12 -50q0 -39 25 -63t67 -24q57 0 93.5 42.5t36.5 140.5zM391 325v37q0 70 -26 99.5t-83 29.5q-53 0 -80.5 -32.5t-30.5 -88.5h-110q6 78 69.5 127.5t155.5 49.5
q114 0 167.5 -47t50.5 -157q-2 -62 -2 -123q0 -91 2 -137q2 -20 7 -26.5t24 -7.5l43 -4v-37l-167 -11l-8 98h-3q-56 -108 -184 -108q-75 0 -123.5 40t-48.5 106q0 46 25 79.5t74.5 55.5t107.5 34.5t140 22.5z" />
    <glyph glyph-name="acircumflex" unicode="&#xe2;" horiz-adv-x="595" 
d="M336 745l137 -142h-60l-113 67l-115 -67h-60l142 142h69zM393 238v31q-48 -6 -73.5 -10t-59 -13t-49.5 -21t-28 -33t-12 -50q0 -39 25 -63t67 -24q57 0 93.5 42.5t36.5 140.5zM391 325v37q0 70 -26 99.5t-83 29.5q-53 0 -80.5 -32.5t-30.5 -88.5h-110q6 78 69.5 127.5
t155.5 49.5q114 0 167.5 -47t50.5 -157q-2 -62 -2 -123q0 -91 2 -137q2 -20 7 -26.5t24 -7.5l43 -4v-37l-167 -11l-8 98h-3q-56 -108 -184 -108q-75 0 -123.5 40t-48.5 106q0 46 25 79.5t74.5 55.5t107.5 34.5t140 22.5z" />
    <glyph glyph-name="atilde" unicode="&#xe3;" horiz-adv-x="595" 
d="M339 679q40 0 46 47h62q-18 -119 -104 -119q-32 0 -75.5 24t-58.5 24q-37 0 -46 -48h-60q13 119 105 119q31 0 73 -23.5t58 -23.5zM393 238v31q-48 -6 -73.5 -10t-59 -13t-49.5 -21t-28 -33t-12 -50q0 -39 25 -63t67 -24q57 0 93.5 42.5t36.5 140.5zM391 325v37
q0 70 -26 99.5t-83 29.5q-53 0 -80.5 -32.5t-30.5 -88.5h-110q6 78 69.5 127.5t155.5 49.5q114 0 167.5 -47t50.5 -157q-2 -62 -2 -123q0 -91 2 -137q2 -20 7 -26.5t24 -7.5l43 -4v-37l-167 -11l-8 98h-3q-56 -108 -184 -108q-75 0 -123.5 40t-48.5 106q0 46 25 79.5
t74.5 55.5t107.5 34.5t140 22.5z" />
    <glyph glyph-name="adieresis" unicode="&#xe4;" horiz-adv-x="595" 
d="M360 610v135h112v-135h-112zM127 610v135h112v-135h-112zM393 238v31q-48 -6 -73.5 -10t-59 -13t-49.5 -21t-28 -33t-12 -50q0 -39 25 -63t67 -24q57 0 93.5 42.5t36.5 140.5zM391 325v37q0 70 -26 99.5t-83 29.5q-53 0 -80.5 -32.5t-30.5 -88.5h-110q6 78 69.5 127.5
t155.5 49.5q114 0 167.5 -47t50.5 -157q-2 -62 -2 -123q0 -91 2 -137q2 -20 7 -26.5t24 -7.5l43 -4v-37l-167 -11l-8 98h-3q-56 -108 -184 -108q-75 0 -123.5 40t-48.5 106q0 46 25 79.5t74.5 55.5t107.5 34.5t140 22.5z" />
    <glyph glyph-name="aring" unicode="&#xe5;" horiz-adv-x="595" 
d="M189 676q0 38 27.5 63t66.5 25t66.5 -25t27.5 -63t-27.5 -63.5t-66.5 -25.5q-40 0 -67 25.5t-27 63.5zM328 676q0 18 -13.5 31.5t-31.5 13.5t-31.5 -13.5t-13.5 -31.5q0 -19 13.5 -31.5t31.5 -12.5t31.5 12.5t13.5 31.5zM393 238v31q-48 -6 -73.5 -10t-59 -13t-49.5 -21
t-28 -33t-12 -50q0 -39 25 -63t67 -24q57 0 93.5 42.5t36.5 140.5zM391 325v37q0 70 -26 99.5t-83 29.5q-53 0 -80.5 -32.5t-30.5 -88.5h-110q6 78 69.5 127.5t155.5 49.5q114 0 167.5 -47t50.5 -157q-2 -62 -2 -123q0 -91 2 -137q2 -20 7 -26.5t24 -7.5l43 -4v-37l-167 -11
l-8 98h-3q-56 -108 -184 -108q-75 0 -123.5 40t-48.5 106q0 46 25 79.5t74.5 55.5t107.5 34.5t140 22.5z" />
    <glyph glyph-name="ae" unicode="&#xe6;" horiz-adv-x="946" 
d="M668 46q51 0 85 33t40 89h113q-16 -89 -84.5 -135t-160.5 -46q-145 0 -215 115q-62 -115 -211 -115q-79 0 -133.5 48t-54.5 119q0 87 81 128q60 28 179 42l84 10v34q0 66 -25 94.5t-82 28.5q-105 0 -111 -111h-110q6 77 68.5 122t156.5 45q139 0 185 -80q73 80 185 80
q113 0 183 -73t67 -212h-389q1 -99 39.5 -157.5t109.5 -58.5zM657 490q-60 0 -97.5 -41.5t-40.5 -126.5h266q2 86 -33 127t-95 41zM393 225v53l-76 -8q-143 -18 -143 -117q0 -43 27 -70.5t74 -27.5q49 0 83.5 38t34.5 132z" />
    <glyph glyph-name="ccedilla" unicode="&#xe7;" horiz-adv-x="581" 
d="M267 -218q-59 0 -104 20l17 41q36 -16 66 -16q25 0 46.5 10.5t21.5 30.5q0 18 -15.5 28t-36.5 10q-23 0 -40 -10l-21 19l49 76q-96 17 -153 91t-57 185q0 127 72.5 203.5t189.5 76.5q90 0 158 -47t83 -138h-113q-2 64 -39 95t-83 31q-68 0 -104.5 -59t-36.5 -162t36 -162
t106 -59q46 0 82.5 30t38.5 94h113q-15 -91 -83 -137t-158 -46h-7l-26 -37q54 10 86.5 -12.5t32.5 -64.5t-37 -66.5t-84 -24.5z" />
    <glyph glyph-name="egrave" unicode="&#xe8;" horiz-adv-x="589" 
d="M275 603l-168 142h131l94 -142h-57zM300 490q-59 0 -97 -42t-42 -126h267q2 86 -33.5 127t-94.5 41zM549 162q-16 -88 -84 -131.5t-162 -43.5q-118 0 -191 75.5t-73 201.5q0 123 71 203t191 80q113 0 182.5 -72.5t67.5 -212.5h-390q1 -101 40 -158.5t110 -57.5
q51 0 85 30t39 86h114z" />
    <glyph glyph-name="eacute" unicode="&#xe9;" horiz-adv-x="589" 
d="M478 745l-168 -142h-57l93 142h132zM300 490q-59 0 -97 -42t-42 -126h267q2 86 -33.5 127t-94.5 41zM549 162q-16 -88 -84 -131.5t-162 -43.5q-118 0 -191 75.5t-73 201.5q0 123 71 203t191 80q113 0 182.5 -72.5t67.5 -212.5h-390q1 -101 40 -158.5t110 -57.5
q51 0 85 30t39 86h114z" />
    <glyph glyph-name="ecircumflex" unicode="&#xea;" horiz-adv-x="589" 
d="M342 745l137 -142h-60l-113 67l-115 -67h-60l142 142h69zM300 490q-59 0 -97 -42t-42 -126h267q2 86 -33.5 127t-94.5 41zM549 162q-16 -88 -84 -131.5t-162 -43.5q-118 0 -191 75.5t-73 201.5q0 123 71 203t191 80q113 0 182.5 -72.5t67.5 -212.5h-390q1 -101 40 -158.5
t110 -57.5q51 0 85 30t39 86h114z" />
    <glyph glyph-name="edieresis" unicode="&#xeb;" horiz-adv-x="589" 
d="M364 610v135h112v-135h-112zM131 610v135h112v-135h-112zM300 490q-59 0 -97 -42t-42 -126h267q2 86 -33.5 127t-94.5 41zM549 162q-16 -88 -84 -131.5t-162 -43.5q-118 0 -191 75.5t-73 201.5q0 123 71 203t191 80q113 0 182.5 -72.5t67.5 -212.5h-390q1 -101 40 -158.5
t110 -57.5q51 0 85 30t39 86h114z" />
    <glyph glyph-name="igrave" unicode="&#xec;" horiz-adv-x="334" 
d="M147 603l-168 142h131l94 -142h-57zM234 538l-1 -133v-330q0 -19 6 -25.5t26 -8.5l42 -4v-37h-265v37l43 4q20 2 25.5 8.5t5.5 25.5v389q0 19 -5.5 24.5t-25.5 8.5l-43 4v37h192z" />
    <glyph glyph-name="iacute" unicode="&#xed;" horiz-adv-x="334" 
d="M334 745l-168 -142h-57l93 142h132zM234 538l-1 -133v-330q0 -19 6 -25.5t26 -8.5l42 -4v-37h-265v37l43 4q20 2 25.5 8.5t5.5 25.5v389q0 19 -5.5 24.5t-25.5 8.5l-43 4v37h192z" />
    <glyph glyph-name="icircumflex" unicode="&#xee;" horiz-adv-x="334" 
d="M212 745l137 -142h-60l-113 67l-115 -67h-60l142 142h69zM234 538l-1 -133v-330q0 -19 6 -25.5t26 -8.5l42 -4v-37h-265v37l43 4q20 2 25.5 8.5t5.5 25.5v389q0 19 -5.5 24.5t-25.5 8.5l-43 4v37h192z" />
    <glyph glyph-name="idieresis" unicode="&#xef;" horiz-adv-x="334" 
d="M231 610v135h112v-135h-112zM-2 610v135h112v-135h-112zM234 538l-1 -133v-330q0 -19 6 -25.5t26 -8.5l42 -4v-37h-265v37l43 4q20 2 25.5 8.5t5.5 25.5v389q0 19 -5.5 24.5t-25.5 8.5l-43 4v37h192z" />
    <glyph glyph-name="eth" unicode="&#xf0;" horiz-adv-x="596" 
d="M280 -13q-114 0 -180.5 74.5t-66.5 200.5q0 123 64.5 198t161.5 75q105 0 154 -94l2 1q-28 131 -157 212l-67 -74l-37 33l60 66q-50 25 -113 42l15 40q75 -11 139 -37l62 68l37 -33l-52 -57q108 -55 173 -150.5t65 -222.5q0 -168 -67 -255t-193 -87zM422 263
q0 113 -38.5 161.5t-93.5 48.5q-63 0 -99 -57.5t-36 -152.5q0 -97 34 -157t98 -60q59 0 97 51t38 166z" />
    <glyph glyph-name="ntilde" unicode="&#xf1;" horiz-adv-x="652" 
d="M407 679q40 0 46 47h62q-18 -119 -104 -119q-32 0 -75.5 24t-58.5 24q-37 0 -46 -48h-60q13 119 105 119q31 0 73 -23.5t58 -23.5zM561 355v-280q0 -19 5.5 -25.5t25.5 -8.5l43 -4v-37h-265v37l42 4q20 2 26 8.5t6 25.5v240q0 86 -21.5 123t-72.5 37q-54 0 -85.5 -42
t-31.5 -109v-249q0 -19 6 -25.5t26 -8.5l42 -4v-37h-265v37l43 4q20 2 25.5 8.5t5.5 25.5v389q0 19 -5.5 24.5t-25.5 8.5l-43 4v37h190v-90h1q24 45 67 72t100 27q161 0 161 -192z" />
    <glyph glyph-name="ograve" unicode="&#xf2;" horiz-adv-x="611" 
d="M284 603l-168 142h131l94 -142h-57zM304 547q118 0 192.5 -76t74.5 -204q0 -127 -75 -203.5t-193 -76.5q-117 0 -190 76t-73 204q0 127 73.5 203.5t190.5 76.5zM304 46q63 0 101.5 54t38.5 167q0 114 -38 167.5t-102 53.5q-63 0 -100 -53.5t-37 -167.5q0 -113 37.5 -167
t99.5 -54z" />
    <glyph glyph-name="oacute" unicode="&#xf3;" horiz-adv-x="611" 
d="M487 745l-168 -142h-57l93 142h132zM304 547q118 0 192.5 -76t74.5 -204q0 -127 -75 -203.5t-193 -76.5q-117 0 -190 76t-73 204q0 127 73.5 203.5t190.5 76.5zM304 46q63 0 101.5 54t38.5 167q0 114 -38 167.5t-102 53.5q-63 0 -100 -53.5t-37 -167.5q0 -113 37.5 -167
t99.5 -54z" />
    <glyph glyph-name="ocircumflex" unicode="&#xf4;" horiz-adv-x="611" 
d="M346 745l137 -142h-60l-113 67l-115 -67h-60l142 142h69zM304 547q118 0 192.5 -76t74.5 -204q0 -127 -75 -203.5t-193 -76.5q-117 0 -190 76t-73 204q0 127 73.5 203.5t190.5 76.5zM304 46q63 0 101.5 54t38.5 167q0 114 -38 167.5t-102 53.5q-63 0 -100 -53.5
t-37 -167.5q0 -113 37.5 -167t99.5 -54z" />
    <glyph glyph-name="otilde" unicode="&#xf5;" horiz-adv-x="611" 
d="M374 679q40 0 46 47h62q-18 -119 -104 -119q-32 0 -75.5 24t-58.5 24q-37 0 -46 -48h-60q13 119 105 119q31 0 73 -23.5t58 -23.5zM304 547q118 0 192.5 -76t74.5 -204q0 -127 -75 -203.5t-193 -76.5q-117 0 -190 76t-73 204q0 127 73.5 203.5t190.5 76.5zM304 46
q63 0 101.5 54t38.5 167q0 114 -38 167.5t-102 53.5q-63 0 -100 -53.5t-37 -167.5q0 -113 37.5 -167t99.5 -54z" />
    <glyph glyph-name="odieresis" unicode="&#xf6;" horiz-adv-x="611" 
d="M370 610v135h112v-135h-112zM137 610v135h112v-135h-112zM304 547q118 0 192.5 -76t74.5 -204q0 -127 -75 -203.5t-193 -76.5q-117 0 -190 76t-73 204q0 127 73.5 203.5t190.5 76.5zM304 46q63 0 101.5 54t38.5 167q0 114 -38 167.5t-102 53.5q-63 0 -100 -53.5
t-37 -167.5q0 -113 37.5 -167t99.5 -54z" />
    <glyph glyph-name="divide" unicode="&#xf7;" 
d="M289 385v109h105v-109h-105zM600 230h-522v76h522v-76zM289 49v107h105v-107h-105z" />
    <glyph glyph-name="oslash" unicode="&#xf8;" horiz-adv-x="611" 
d="M303 -13q-96 0 -163 52l-44 -52l-39 33l46 54q-63 76 -63 193q0 127 73.5 203.5t190.5 76.5q94 0 163 -50l40 47l37 -31l-41 -49q68 -76 68 -197q0 -127 -75 -203.5t-193 -76.5zM167 267q0 -63 12 -105l230 268q-35 58 -105 58q-63 0 -100 -53.5t-37 -167.5zM304 46
q63 0 101.5 54t38.5 167q0 64 -13 113l-232 -272q36 -62 105 -62z" />
    <glyph glyph-name="ugrave" unicode="&#xf9;" horiz-adv-x="626" 
d="M246 603l-168 142h131l94 -142h-57zM410 -9l-4 94h-1q-51 -98 -164 -98q-157 0 -157 192v285q0 19 -5.5 24.5t-25.5 8.5l-43 4v37h192l-1 -136v-184q0 -86 20.5 -122.5t70.5 -36.5q54 0 83.5 41.5t29.5 109.5v254q0 19 -5.5 24.5t-25.5 8.5l-43 4v37h192l-1 -136v-318
q0 -19 6 -25.5t26 -8.5l42 -4v-37z" />
    <glyph glyph-name="uacute" unicode="&#xfa;" horiz-adv-x="626" 
d="M474 745l-168 -142h-57l93 142h132zM410 -9l-4 94h-1q-51 -98 -164 -98q-157 0 -157 192v285q0 19 -5.5 24.5t-25.5 8.5l-43 4v37h192l-1 -136v-184q0 -86 20.5 -122.5t70.5 -36.5q54 0 83.5 41.5t29.5 109.5v254q0 19 -5.5 24.5t-25.5 8.5l-43 4v37h192l-1 -136v-318
q0 -19 6 -25.5t26 -8.5l42 -4v-37z" />
    <glyph glyph-name="ucircumflex" unicode="&#xfb;" horiz-adv-x="626" 
d="M315 745l137 -142h-60l-113 67l-115 -67h-60l142 142h69zM410 -9l-4 94h-1q-51 -98 -164 -98q-157 0 -157 192v285q0 19 -5.5 24.5t-25.5 8.5l-43 4v37h192l-1 -136v-184q0 -86 20.5 -122.5t70.5 -36.5q54 0 83.5 41.5t29.5 109.5v254q0 19 -5.5 24.5t-25.5 8.5l-43 4v37
h192l-1 -136v-318q0 -19 6 -25.5t26 -8.5l42 -4v-37z" />
    <glyph glyph-name="udieresis" unicode="&#xfc;" horiz-adv-x="626" 
d="M353 610v135h112v-135h-112zM120 610v135h112v-135h-112zM410 -9l-4 94h-1q-51 -98 -164 -98q-157 0 -157 192v285q0 19 -5.5 24.5t-25.5 8.5l-43 4v37h192l-1 -136v-184q0 -86 20.5 -122.5t70.5 -36.5q54 0 83.5 41.5t29.5 109.5v254q0 19 -5.5 24.5t-25.5 8.5l-43 4v37
h192l-1 -136v-318q0 -19 6 -25.5t26 -8.5l42 -4v-37z" />
    <glyph glyph-name="yacute" unicode="&#xfd;" horiz-adv-x="561" 
d="M500 745l-168 -142h-57l93 142h132zM113 -189h-77v71h80q41 0 61 21.5t46 97.5l5 13l-169 452q-5 17 -13 23.5t-28 9.5l-23 2v37h255v-37l-45 -3q-18 -2 -23 -9t1 -24l111 -333l113 306q12 27 11 41.5t-23 17.5l-45 4v37h216v-37l-32 -2q-17 -1 -26 -11.5t-21 -39.5
l-179 -458q-44 -112 -78.5 -145.5t-116.5 -33.5z" />
    <glyph glyph-name="thorn" unicode="&#xfe;" horiz-adv-x="638" 
d="M200 264q0 -114 39.5 -161.5t96.5 -47.5q64 0 100 57t36 152q0 98 -33 155t-96 57q-26 0 -49.5 -10t-45.5 -32t-35 -66t-13 -104zM210 608v-94q0 -25 -2 -73h1q24 44 68 73.5t103 29.5q96 0 157 -76t61 -203q0 -125 -67 -201.5t-170 -76.5q-50 0 -89.5 27t-61.5 69h-2
q2 -56 2 -69v-126q0 -20 6 -26t26 -8l69 -5v-38h-292v37l43 5q20 2 25.5 8t5.5 25v784q0 19 -5.5 25t-25.5 8l-43 5v37h192z" />
    <glyph glyph-name="ydieresis" unicode="&#xff;" horiz-adv-x="561" 
d="M362 610v135h112v-135h-112zM129 610v135h112v-135h-112zM113 -189h-77v71h80q41 0 61 21.5t46 97.5l5 13l-169 452q-5 17 -13 23.5t-28 9.5l-23 2v37h255v-37l-45 -3q-18 -2 -23 -9t1 -24l111 -333l113 306q12 27 11 41.5t-23 17.5l-45 4v37h216v-37l-32 -2
q-17 -1 -26 -11.5t-21 -39.5l-179 -458q-44 -112 -78.5 -145.5t-116.5 -33.5z" />
    <glyph glyph-name="Amacron" unicode="&#x100;" horiz-adv-x="738" 
d="M525 797h-311v67h311v-67zM343 573l-113 -296h227zM231 38v-38h-236v38l40 3q16 2 23.5 10t14.5 25l255 649h82l255 -649q7 -17 14.5 -25t24.5 -10l39 -3v-38h-287v38l49 5q42 3 29 33l-53 137h-276l-52 -137q-11 -30 29 -33z" />
    <glyph glyph-name="amacron" unicode="&#x101;" horiz-adv-x="595" 
d="M423 631h-289v71h289v-71zM393 238v31q-48 -6 -73.5 -10t-59 -13t-49.5 -21t-28 -33t-12 -50q0 -39 25 -63t67 -24q57 0 93.5 42.5t36.5 140.5zM391 325v37q0 70 -26 99.5t-83 29.5q-53 0 -80.5 -32.5t-30.5 -88.5h-110q6 78 69.5 127.5t155.5 49.5q114 0 167.5 -47
t50.5 -157q-2 -62 -2 -123q0 -91 2 -137q2 -20 7 -26.5t24 -7.5l43 -4v-37l-167 -11l-8 98h-3q-56 -108 -184 -108q-75 0 -123.5 40t-48.5 106q0 46 25 79.5t74.5 55.5t107.5 34.5t140 22.5z" />
    <glyph glyph-name="Abreve" unicode="&#x102;" horiz-adv-x="738" 
d="M462 890h65q-6 -56 -47 -89t-117 -33q-74 0 -114.5 33t-47.5 89h66q4 -31 31.5 -49t65.5 -18q37 0 65 18.5t33 48.5zM343 573l-113 -296h227zM231 38v-38h-236v38l40 3q16 2 23.5 10t14.5 25l255 649h82l255 -649q7 -17 14.5 -25t24.5 -10l39 -3v-38h-287v38l49 5
q42 3 29 33l-53 137h-276l-52 -137q-11 -30 29 -33z" />
    <glyph glyph-name="abreve" unicode="&#x103;" horiz-adv-x="595" 
d="M192 739q6 -87 86 -87q82 0 88 87h69q-6 -68 -45.5 -106t-112.5 -38q-70 0 -109 38.5t-45 105.5h69zM393 238v31q-48 -6 -73.5 -10t-59 -13t-49.5 -21t-28 -33t-12 -50q0 -39 25 -63t67 -24q57 0 93.5 42.5t36.5 140.5zM391 325v37q0 70 -26 99.5t-83 29.5
q-53 0 -80.5 -32.5t-30.5 -88.5h-110q6 78 69.5 127.5t155.5 49.5q114 0 167.5 -47t50.5 -157q-2 -62 -2 -123q0 -91 2 -137q2 -20 7 -26.5t24 -7.5l43 -4v-37l-167 -11l-8 98h-3q-56 -108 -184 -108q-75 0 -123.5 40t-48.5 106q0 46 25 79.5t74.5 55.5t107.5 34.5t140 22.5
z" />
    <glyph glyph-name="Aogonek" unicode="&#x104;" horiz-adv-x="738" 
d="M576 0h-120v38l49 5q42 3 29 33l-52 137h-276l-53 -137q-11 -30 29 -33l49 -5v-38h-236v38l40 3q16 2 23.5 10t14.5 25l255 649h82l255 -649q7 -17 14.5 -25t24.5 -10l39 -3v-38h-98q-94 -44 -94 -92q0 -27 20.5 -39.5t50.5 -12.5q32 0 51 9v-44q-25 -12 -77 -12
q-50 0 -89 21.5t-39 67.5q0 30 31 58t77 44zM343 573l-113 -296h227z" />
    <glyph glyph-name="aogonek" unicode="&#x105;" horiz-adv-x="595" 
d="M47 155q0 87 81 128q60 28 179 42l84 10v34q0 66 -25 94t-82 28q-105 0 -111 -110h-110q6 77 68.5 121.5t156.5 44.5q113 0 166 -44t50 -145q-2 -90 -2 -137q0 -92 2 -138q2 -20 7 -26.5t24 -7.5l43 -4v-37l-65 -5q-40 -20 -65 -45.5t-25 -49.5q0 -27 21 -39.5t50 -12.5
q32 0 51 9v-44q-27 -12 -77 -12t-89 21.5t-39 67.5q0 57 77 100l-14 90h-3q-53 -101 -165 -101q-79 0 -133.5 48.5t-54.5 119.5zM393 225v54l-76 -8q-143 -18 -143 -117q0 -43 27 -71t74 -28q49 0 83.5 38t34.5 132z" />
    <glyph glyph-name="Cacute" unicode="&#x106;" horiz-adv-x="768" 
d="M599 890l-176 -117h-72l103 117h145zM42 365q0 173 98.5 275t264.5 102q124 0 212.5 -63t114.5 -182h-124q-9 85 -61.5 134t-141.5 49q-114 0 -172 -84t-58 -231t58 -231.5t172 -84.5q89 0 142 49t62 135h124q-26 -118 -115 -182t-213 -64q-166 0 -264.5 102t-98.5 276z
" />
    <glyph glyph-name="cacute" unicode="&#x107;" horiz-adv-x="581" 
d="M502 745l-168 -142h-57l93 142h132zM40 267q0 127 72.5 203.5t189.5 76.5q90 0 158 -47t83 -138h-113q-2 64 -39 95t-83 31q-68 0 -104.5 -59t-36.5 -162t36 -162t106 -59q46 0 82.5 30t38.5 94h113q-15 -91 -83 -137t-158 -46q-116 0 -189 76.5t-73 203.5z" />
    <glyph glyph-name="Ccircumflex" unicode="&#x108;" horiz-adv-x="768" 
d="M452 890l126 -117h-78l-104 58l-103 -58h-78l128 117h109zM42 365q0 173 98.5 275t264.5 102q124 0 212.5 -63t114.5 -182h-124q-9 85 -61.5 134t-141.5 49q-114 0 -172 -84t-58 -231t58 -231.5t172 -84.5q89 0 142 49t62 135h124q-26 -118 -115 -182t-213 -64
q-166 0 -264.5 102t-98.5 276z" />
    <glyph glyph-name="ccircumflex" unicode="&#x109;" horiz-adv-x="581" 
d="M342 745l137 -142h-60l-113 67l-115 -67h-60l142 142h69zM40 267q0 127 72.5 203.5t189.5 76.5q90 0 158 -47t83 -138h-113q-2 64 -39 95t-83 31q-68 0 -104.5 -59t-36.5 -162t36 -162t106 -59q46 0 82.5 30t38.5 94h113q-15 -91 -83 -137t-158 -46q-116 0 -189 76.5
t-73 203.5z" />
    <glyph glyph-name="Cdotaccent" unicode="&#x10a;" horiz-adv-x="768" 
d="M344 773v117h117v-117h-117zM42 365q0 173 98.5 275t264.5 102q124 0 212.5 -63t114.5 -182h-124q-9 85 -61.5 134t-141.5 49q-114 0 -172 -84t-58 -231t58 -231.5t172 -84.5q89 0 142 49t62 135h124q-26 -118 -115 -182t-213 -64q-166 0 -264.5 102t-98.5 276z" />
    <glyph glyph-name="cdotaccent" unicode="&#x10b;" horiz-adv-x="581" 
d="M245 610v135h117v-135h-117zM40 267q0 127 72.5 203.5t189.5 76.5q90 0 158 -47t83 -138h-113q-2 64 -39 95t-83 31q-68 0 -104.5 -59t-36.5 -162t36 -162t106 -59q46 0 82.5 30t38.5 94h113q-15 -91 -83 -137t-158 -46q-116 0 -189 76.5t-73 203.5z" />
    <glyph glyph-name="Ccaron" unicode="&#x10c;" horiz-adv-x="768" 
d="M340 773l-124 117h78l102 -58l105 58h78l-129 -117h-110zM42 365q0 173 98.5 275t264.5 102q124 0 212.5 -63t114.5 -182h-124q-9 85 -61.5 134t-141.5 49q-114 0 -172 -84t-58 -231t58 -231.5t172 -84.5q89 0 142 49t62 135h124q-26 -118 -115 -182t-213 -64
q-166 0 -264.5 102t-98.5 276z" />
    <glyph glyph-name="ccaron" unicode="&#x10d;" horiz-adv-x="581" 
d="M266 603l-139 142h60l114 -68l114 68h60l-141 -142h-68zM40 267q0 127 72.5 203.5t189.5 76.5q90 0 158 -47t83 -138h-113q-2 64 -39 95t-83 31q-68 0 -104.5 -59t-36.5 -162t36 -162t106 -59q46 0 82.5 30t38.5 94h113q-15 -91 -83 -137t-158 -46q-116 0 -189 76.5
t-73 203.5z" />
    <glyph glyph-name="Dcaron" unicode="&#x10e;" horiz-adv-x="793" 
d="M316 773l-124 117h78l102 -58l105 58h78l-129 -117h-110zM323 725q202 0 315 -88t113 -274q0 -187 -113 -275t-315 -88h-273v38l49 5q18 1 24.5 9t6.5 24v573q0 16 -6.5 24.5t-24.5 10.5l-49 4v37h273zM333 62q147 0 216.5 73t69.5 228q0 154 -69.5 227t-216.5 73h-78
v-601h78z" />
    <glyph glyph-name="dcaron" unicode="&#x10f;" horiz-adv-x="777" 
d="M618 613v132h132v-132l-73 -156h-47l44 156h-56zM295 55q26 0 49.5 10t46 32t35.5 66t13 104q0 115 -40 163.5t-96 48.5q-64 0 -100 -58t-36 -154q0 -97 33 -154.5t95 -57.5zM342 745h206l-1 -137v-524q0 -20 6 -26.5t25 -7.5l43 -4v-37l-186 -12l-2 93h-2
q-26 -44 -70 -73.5t-102 -29.5q-96 0 -157.5 77t-61.5 203t67.5 203t170.5 77q50 0 89 -27t63 -70h2q-2 68 -2 88v132q0 19 -6 25t-26 8l-56 5v37z" />
    <glyph glyph-name="Dcroat" unicode="&#x110;" horiz-adv-x="807" 
d="M347 62q147 0 216.5 73t69.5 228q0 154 -69.5 227t-216.5 73h-78v-256h134v-65h-134v-280h78zM64 0v38l49 5q18 1 24.5 9t6.5 24v266h-114v65h114v242q0 16 -6.5 24.5t-24.5 10.5l-49 4v37h273q202 0 315 -88t113 -274q0 -187 -113 -275t-315 -88h-273z" />
    <glyph glyph-name="dcroat" unicode="&#x111;" horiz-adv-x="664" 
d="M295 55q26 0 49.5 10t46 32t35.5 66t13 104q0 115 -40 163.5t-96 48.5q-64 0 -100 -58t-36 -154q0 -97 33 -154.5t95 -57.5zM431 90q-26 -44 -70 -73.5t-102 -29.5q-96 0 -157.5 77t-61.5 203t67.5 203t170.5 77q50 0 89 -27t63 -70h2q-2 68 -2 88v34h-110v65h110v33
q0 19 -6 25t-26 8l-56 5v37h206l-1 -108h92v-65h-92v-488q0 -20 6 -26.5t25 -7.5l43 -4v-37l-186 -12l-2 93h-2z" />
    <glyph glyph-name="Emacron" unicode="&#x112;" horiz-adv-x="703" 
d="M520 797h-311v67h311v-67zM50 725h587v-222h-44l-9 66q-3 24 -6 39.5t-11 26.5t-14 16.5t-23.5 8t-30.5 3t-43 0.5h-201v-256h297v-65h-297v-280h213q36 0 50.5 1t32 5t23.5 14.5t11.5 27.5t9.5 46l9 66h44v-222h-598v38l49 5q18 1 24.5 9t6.5 24v573q0 16 -6.5 24.5
t-24.5 10.5l-49 4v37z" />
    <glyph glyph-name="emacron" unicode="&#x113;" horiz-adv-x="589" 
d="M452 631h-289v71h289v-71zM300 490q-59 0 -97 -42t-42 -126h267q2 86 -33.5 127t-94.5 41zM549 162q-16 -88 -84 -131.5t-162 -43.5q-118 0 -191 75.5t-73 201.5q0 123 71 203t191 80q113 0 182.5 -72.5t67.5 -212.5h-390q1 -101 40 -158.5t110 -57.5q51 0 85 30t39 86
h114z" />
    <glyph glyph-name="Ebreve" unicode="&#x114;" horiz-adv-x="703" 
d="M461 890h65q-6 -56 -47 -89t-117 -33q-74 0 -114.5 33t-47.5 89h66q4 -31 31.5 -49t65.5 -18q37 0 65 18.5t33 48.5zM50 725h587v-222h-44l-9 66q-3 24 -6 39.5t-11 26.5t-14 16.5t-23.5 8t-30.5 3t-43 0.5h-201v-256h297v-65h-297v-280h213q36 0 50.5 1t32 5t23.5 14.5
t11.5 27.5t9.5 46l9 66h44v-222h-598v38l49 5q18 1 24.5 9t6.5 24v573q0 16 -6.5 24.5t-24.5 10.5l-49 4v37z" />
    <glyph glyph-name="ebreve" unicode="&#x115;" horiz-adv-x="589" 
d="M218 739q6 -87 86 -87q82 0 88 87h69q-6 -68 -45.5 -106t-112.5 -38q-70 0 -109 38.5t-45 105.5h69zM300 490q-59 0 -97 -42t-42 -126h267q2 86 -33.5 127t-94.5 41zM549 162q-16 -88 -84 -131.5t-162 -43.5q-118 0 -191 75.5t-73 201.5q0 123 71 203t191 80
q113 0 182.5 -72.5t67.5 -212.5h-390q1 -101 40 -158.5t110 -57.5q51 0 85 30t39 86h114z" />
    <glyph glyph-name="edotaccent" unicode="&#x117;" horiz-adv-x="589" 
d="M249 610v135h117v-135h-117zM300 490q-59 0 -97 -42t-42 -126h267q2 86 -33.5 127t-94.5 41zM549 162q-16 -88 -84 -131.5t-162 -43.5q-118 0 -191 75.5t-73 201.5q0 123 71 203t191 80q113 0 182.5 -72.5t67.5 -212.5h-390q1 -101 40 -158.5t110 -57.5q51 0 85 30t39 86
h114z" />
    <glyph glyph-name="Eogonek" unicode="&#x118;" horiz-adv-x="706" 
d="M580 0h-530v38l49 5q18 1 24.5 9t6.5 24v573q0 16 -6.5 24.5t-24.5 10.5l-49 4v37h587v-222h-44l-9 66q-3 24 -6 39.5t-11 26.5t-14 16.5t-23.5 8t-30.5 3t-43 0.5h-201v-256h297v-65h-297v-280h213q36 0 50.5 1t32 5t23.5 14.5t11.5 27.5t9.5 46l9 66h44v-222
q-94 -45 -94 -92q0 -27 20.5 -39.5t50.5 -12.5q33 0 52 9v-44q-27 -12 -78 -12q-50 0 -89 21.5t-39 67.5q0 30 31.5 58t77.5 44z" />
    <glyph glyph-name="eogonek" unicode="&#x119;" horiz-adv-x="589" 
d="M311 46q50 0 84.5 33t39.5 89h114q-22 -122 -155 -172q-43 -16 -68.5 -39.5t-25.5 -48.5q0 -27 21 -39.5t50 -12.5q31 0 51 9v-44q-25 -12 -76 -12t-90 21.5t-39 67.5q0 53 61 90q-107 8 -173 84t-66 195q0 123 71 201.5t191 78.5q113 0 182.5 -72.5t67.5 -212.5h-390
q1 -99 40 -157.5t110 -58.5zM300 490q-60 0 -97.5 -41.5t-41.5 -126.5h267q2 86 -33.5 127t-94.5 41z" />
    <glyph glyph-name="Ecaron" unicode="&#x11a;" horiz-adv-x="703" 
d="M310 773l-124 117h78l102 -58l105 58h78l-129 -117h-110zM50 725h587v-222h-44l-9 66q-3 24 -6 39.5t-11 26.5t-14 16.5t-23.5 8t-30.5 3t-43 0.5h-201v-256h297v-65h-297v-280h213q36 0 50.5 1t32 5t23.5 14.5t11.5 27.5t9.5 46l9 66h44v-222h-598v38l49 5q18 1 24.5 9
t6.5 24v573q0 16 -6.5 24.5t-24.5 10.5l-49 4v37z" />
    <glyph glyph-name="ecaron" unicode="&#x11b;" horiz-adv-x="589" 
d="M268 603l-139 142h60l114 -68l114 68h60l-141 -142h-68zM300 490q-59 0 -97 -42t-42 -126h267q2 86 -33.5 127t-94.5 41zM549 162q-16 -88 -84 -131.5t-162 -43.5q-118 0 -191 75.5t-73 201.5q0 123 71 203t191 80q113 0 182.5 -72.5t67.5 -212.5h-390q1 -101 40 -158.5
t110 -57.5q51 0 85 30t39 86h114z" />
    <glyph glyph-name="Gcircumflex" unicode="&#x11c;" horiz-adv-x="803" 
d="M453 890l126 -117h-78l-104 58l-103 -58h-78l128 117h109zM405 680q-114 0 -172 -84t-58 -231t58 -231.5t172 -84.5q22 0 43 3t52 15t53.5 32.5t39 60t16.5 93.5v56h-113v54h237v-363h-70l-20 93q-69 -106 -238 -106q-166 0 -264.5 102t-98.5 276q0 173 98.5 275
t264.5 102q124 0 212.5 -63t114.5 -182h-124q-9 85 -61.5 134t-141.5 49z" />
    <glyph glyph-name="gcircumflex" unicode="&#x11d;" horiz-adv-x="598" 
d="M312 745l137 -142h-60l-113 67l-115 -67h-60l142 142h69zM267 226q99 0 99 136q0 137 -99 137t-99 -137q0 -136 99 -136zM557 -15q0 -69 -80 -124t-207 -55q-121 0 -180.5 35.5t-59.5 88.5q0 38 37 64.5t89 31.5q-42 9 -62 32t-20 53t29.5 51t73.5 30q-57 20 -91 63
t-34 107q0 88 62 136.5t153 48.5q54 0 99 -18l212 9v-64l-143 11q47 -49 47 -123q0 -87 -62 -135.5t-153 -48.5q-35 0 -64 7q-30 -13 -30 -36q0 -20 16 -28t51 -11l143 -10q96 -6 135 -35t39 -80zM277 -141q72 0 120.5 26t48.5 66q0 30 -23 43.5t-77 16.5l-148 9
q-2 0 -7 0.5t-7 0.5q-21 -9 -35.5 -29t-14.5 -43q0 -40 37 -65t106 -25z" />
    <glyph glyph-name="Gbreve" unicode="&#x11e;" horiz-adv-x="803" 
d="M495 890h65q-6 -56 -47 -89t-117 -33q-74 0 -114.5 33t-47.5 89h66q4 -31 31.5 -49t65.5 -18q37 0 65 18.5t33 48.5zM405 680q-114 0 -172 -84t-58 -231t58 -231.5t172 -84.5q22 0 43 3t52 15t53.5 32.5t39 60t16.5 93.5v56h-113v54h237v-363h-70l-20 93
q-69 -106 -238 -106q-166 0 -264.5 102t-98.5 276q0 173 98.5 275t264.5 102q124 0 212.5 -63t114.5 -182h-124q-9 85 -61.5 134t-141.5 49z" />
    <glyph glyph-name="gbreve" unicode="&#x11f;" horiz-adv-x="598" 
d="M196 739q6 -87 86 -87q82 0 88 87h69q-6 -68 -45.5 -106t-112.5 -38q-70 0 -109 38.5t-45 105.5h69zM267 226q99 0 99 136q0 137 -99 137t-99 -137q0 -136 99 -136zM557 -15q0 -69 -80 -124t-207 -55q-121 0 -180.5 35.5t-59.5 88.5q0 38 37 64.5t89 31.5q-42 9 -62 32
t-20 53t29.5 51t73.5 30q-57 20 -91 63t-34 107q0 88 62 136.5t153 48.5q54 0 99 -18l212 9v-64l-143 11q47 -49 47 -123q0 -87 -62 -135.5t-153 -48.5q-35 0 -64 7q-30 -13 -30 -36q0 -20 16 -28t51 -11l143 -10q96 -6 135 -35t39 -80zM277 -141q72 0 120.5 26t48.5 66
q0 30 -23 43.5t-77 16.5l-148 9q-2 0 -7 0.5t-7 0.5q-21 -9 -35.5 -29t-14.5 -43q0 -40 37 -65t106 -25z" />
    <glyph glyph-name="Gdotaccent" unicode="&#x120;" horiz-adv-x="803" 
d="M335 773v117h117v-117h-117zM405 680q-114 0 -172 -84t-58 -231t58 -231.5t172 -84.5q22 0 43 3t52 15t53.5 32.5t39 60t16.5 93.5v56h-113v54h237v-363h-70l-20 93q-69 -106 -238 -106q-166 0 -264.5 102t-98.5 276q0 173 98.5 275t264.5 102q124 0 212.5 -63
t114.5 -182h-124q-9 85 -61.5 134t-141.5 49z" />
    <glyph glyph-name="gdotaccent" unicode="&#x121;" horiz-adv-x="598" 
d="M218 610v135h117v-135h-117zM267 226q99 0 99 136q0 137 -99 137t-99 -137q0 -136 99 -136zM557 -15q0 -69 -80 -124t-207 -55q-121 0 -180.5 35.5t-59.5 88.5q0 38 37 64.5t89 31.5q-42 9 -62 32t-20 53t29.5 51t73.5 30q-57 20 -91 63t-34 107q0 88 62 136.5t153 48.5
q54 0 99 -18l212 9v-64l-143 11q47 -49 47 -123q0 -87 -62 -135.5t-153 -48.5q-35 0 -64 7q-30 -13 -30 -36q0 -20 16 -28t51 -11l143 -10q96 -6 135 -35t39 -80zM277 -141q72 0 120.5 26t48.5 66q0 30 -23 43.5t-77 16.5l-148 9q-2 0 -7 0.5t-7 0.5q-21 -9 -35.5 -29
t-14.5 -43q0 -40 37 -65t106 -25z" />
    <glyph glyph-name="Gcommaaccent" unicode="&#x122;" horiz-adv-x="803" 
d="M405 680q-114 0 -172 -84t-58 -231t58 -231.5t172 -84.5q22 0 43 3t52 15t53.5 32.5t39 60t16.5 93.5v56h-113v54h237v-363h-70l-20 93q-69 -106 -238 -106q-166 0 -264.5 102t-98.5 276q0 173 98.5 275t264.5 102q124 0 212.5 -63t114.5 -182h-124q-9 85 -61.5 134
t-141.5 49zM343 -129v92h109v-98l-45 -93h-67l40 99h-37z" />
    <glyph glyph-name="gcommaaccent" unicode="&#x123;" horiz-adv-x="598" 
d="M338 759v-132h-132v132l73 156h47l-44 -156h56zM267 226q99 0 99 136q0 137 -99 137t-99 -137q0 -136 99 -136zM557 -15q0 -69 -80 -124t-207 -55q-121 0 -180.5 35.5t-59.5 88.5q0 38 37 64.5t89 31.5q-42 9 -62 32t-20 53t29.5 51t73.5 30q-57 20 -91 63t-34 107
q0 88 62 136.5t153 48.5q54 0 99 -18l212 9v-64l-143 11q47 -49 47 -123q0 -87 -62 -135.5t-153 -48.5q-35 0 -64 7q-30 -13 -30 -36q0 -20 16 -28t51 -11l143 -10q96 -6 135 -35t39 -80zM277 -141q72 0 120.5 26t48.5 66q0 30 -23 43.5t-77 16.5l-148 9q-2 0 -7 0.5t-7 0.5
q-21 -9 -35.5 -29t-14.5 -43q0 -40 37 -65t106 -25z" />
    <glyph glyph-name="Hcircumflex" unicode="&#x124;" horiz-adv-x="862" 
d="M487 890l126 -117h-78l-104 58l-103 -58h-78l128 117h109zM335 38v-38h-285v38l49 5q18 1 24.5 9t6.5 24v573q0 16 -6.5 24.5t-24.5 10.5l-49 4v37h285v-37l-49 -4q-18 -2 -24.5 -10.5t-6.5 -24.5v-242h352v242q0 17 -6 25t-25 10l-49 4v37h285v-37l-50 -4
q-18 -2 -24 -10t-6 -25v-573q0 -16 6 -24t24 -9l50 -5v-38h-285v38l49 5q19 1 25 9t6 24v266h-352v-266q0 -16 6.5 -24t24.5 -9z" />
    <glyph glyph-name="hcircumflex" unicode="&#x125;" horiz-adv-x="640" 
d="M218 890l126 -117h-78l-104 58l-103 -58h-78l128 117h109zM549 355v-280q0 -19 5.5 -25.5t25.5 -8.5l43 -4v-37h-265v37l42 4q20 2 26 8.5t6 25.5v240q0 86 -21.5 123t-72.5 37q-54 0 -85.5 -42t-31.5 -109v-249q0 -19 6 -25.5t26 -8.5l42 -4v-37h-265v37l43 4
q20 2 25.5 8.5t5.5 25.5v595q0 19 -5.5 25t-25.5 8l-43 5v37h192l-1 -135v-61l-1 -101h1q24 45 67 72t100 27q161 0 161 -192z" />
    <glyph glyph-name="Hbar" unicode="&#x126;" horiz-adv-x="863" 
d="M607 407v99h-352v-99h352zM335 38v-38h-285v38l49 5q18 1 24.5 9t6.5 24v430h-80v65h80v78q0 16 -6.5 24.5t-24.5 10.5l-49 4v37h285v-37l-49 -4q-18 -2 -24.5 -10.5t-6.5 -24.5v-78h352v78q0 17 -6 25t-25 10l-49 4v37h285v-37l-50 -4q-18 -2 -24 -10t-6 -25v-78h80v-65
h-80v-430q0 -16 6 -24t24 -9l50 -5v-38h-285v38l49 5q19 1 25 9t6 24v266h-352v-266q0 -16 6.5 -24t24.5 -9z" />
    <glyph glyph-name="hbar" unicode="&#x127;" horiz-adv-x="655" 
d="M310 37v-37h-265v37l43 4q20 2 25.5 8.5t5.5 25.5v497h-89v65h89v33q0 19 -5.5 25t-25.5 8l-43 5v37h192l-1 -108h114v-65h-114v-23l-1 -101h1q24 45 67 72t100 27q161 0 161 -192v-280q0 -19 5.5 -25.5t25.5 -8.5l43 -4v-37h-265v37l42 4q20 2 26 8.5t6 25.5v240
q0 86 -21.5 123t-72.5 37q-54 0 -85.5 -42t-31.5 -109v-249q0 -19 6 -25.5t26 -8.5z" />
    <glyph glyph-name="Itilde" unicode="&#x128;" horiz-adv-x="385" 
d="M257 844q40 0 46 46h62q-18 -118 -104 -118q-32 0 -75.5 24t-58.5 24q-37 0 -46 -47h-60q13 118 105 118q31 0 73 -23.5t58 -23.5zM335 38v-38h-285v38l49 5q18 1 24.5 9t6.5 24v573q0 16 -6.5 24.5t-24.5 10.5l-49 4v37h285v-37l-49 -4q-18 -2 -24.5 -10.5t-6.5 -24.5
v-573q0 -16 6.5 -24t24.5 -9z" />
    <glyph glyph-name="itilde" unicode="&#x129;" horiz-adv-x="334" 
d="M228 679q40 0 46 47h62q-18 -119 -104 -119q-32 0 -75.5 24t-58.5 24q-37 0 -46 -48h-60q13 119 105 119q31 0 73 -23.5t58 -23.5zM234 538l-1 -133v-330q0 -19 6 -25.5t26 -8.5l42 -4v-37h-265v37l43 4q20 2 25.5 8.5t5.5 25.5v389q0 19 -5.5 24.5t-25.5 8.5l-43 4v37
h192z" />
    <glyph glyph-name="Imacron" unicode="&#x12a;" horiz-adv-x="385" 
d="M349 797h-311v67h311v-67zM335 38v-38h-285v38l49 5q18 1 24.5 9t6.5 24v573q0 16 -6.5 24.5t-24.5 10.5l-49 4v37h285v-37l-49 -4q-18 -2 -24.5 -10.5t-6.5 -24.5v-573q0 -16 6.5 -24t24.5 -9z" />
    <glyph glyph-name="imacron" unicode="&#x12b;" horiz-adv-x="334" 
d="M318 631h-289v71h289v-71zM234 538l-1 -133v-330q0 -19 6 -25.5t26 -8.5l42 -4v-37h-265v37l43 4q20 2 25.5 8.5t5.5 25.5v389q0 19 -5.5 24.5t-25.5 8.5l-43 4v37h192z" />
    <glyph glyph-name="Ibreve" unicode="&#x12c;" horiz-adv-x="385" 
d="M291 890h65q-6 -56 -47 -89t-117 -33q-74 0 -114.5 33t-47.5 89h66q4 -31 31.5 -49t65.5 -18q37 0 65 18.5t33 48.5zM335 38v-38h-285v38l49 5q18 1 24.5 9t6.5 24v573q0 16 -6.5 24.5t-24.5 10.5l-49 4v37h285v-37l-49 -4q-18 -2 -24.5 -10.5t-6.5 -24.5v-573
q0 -16 6.5 -24t24.5 -9z" />
    <glyph glyph-name="ibreve" unicode="&#x12d;" horiz-adv-x="334" 
d="M84 739q6 -87 86 -87q82 0 88 87h69q-6 -68 -45.5 -106t-112.5 -38q-70 0 -109 38.5t-45 105.5h69zM234 538l-1 -133v-330q0 -19 6 -25.5t26 -8.5l42 -4v-37h-265v37l43 4q20 2 25.5 8.5t5.5 25.5v389q0 19 -5.5 24.5t-25.5 8.5l-43 4v37h192z" />
    <glyph glyph-name="Iogonek" unicode="&#x12e;" horiz-adv-x="385" 
d="M185 0h-135v38l49 5q18 1 24.5 9t6.5 24v573q0 16 -6.5 24.5t-24.5 10.5l-49 4v37h285v-37l-49 -4q-18 -2 -24.5 -10.5t-6.5 -24.5v-573q0 -16 6.5 -24t24.5 -9l49 -5v-38h-81q-94 -44 -94 -92q0 -27 20.5 -39.5t50.5 -12.5q31 0 51 9v-44q-25 -12 -77 -12
q-50 0 -89 21.5t-39 67.5q0 30 31 58t77 44z" />
    <glyph glyph-name="iogonek" unicode="&#x12f;" horiz-adv-x="334" 
d="M116 610v135h117v-135h-117zM165 0h-123v37l43 4q20 2 25.5 8.5t5.5 25.5v389q0 19 -5.5 24.5t-25.5 8.5l-43 4v37h192l-1 -133v-330q0 -19 6 -25.5t26 -8.5l42 -4v-37h-73q-94 -44 -94 -92q0 -27 20.5 -39.5t50.5 -12.5q31 0 51 9v-44q-25 -12 -77 -12q-50 0 -89 21.5
t-39 67.5q0 30 31 58t77 44z" />
    <glyph glyph-name="Idotaccent" unicode="&#x130;" horiz-adv-x="385" 
d="M135 773v117h117v-117h-117zM335 38v-38h-285v38l49 5q18 1 24.5 9t6.5 24v573q0 16 -6.5 24.5t-24.5 10.5l-49 4v37h285v-37l-49 -4q-18 -2 -24.5 -10.5t-6.5 -24.5v-573q0 -16 6.5 -24t24.5 -9z" />
    <glyph glyph-name="dotlessi" unicode="&#x131;" horiz-adv-x="334" 
d="M234 538l-1 -133v-330q0 -19 6 -25.5t26 -8.5l42 -4v-37h-265v37l43 4q20 2 25.5 8.5t5.5 25.5v389q0 19 -5.5 24.5t-25.5 8.5l-43 4v37h192z" />
    <glyph glyph-name="Jcircumflex" unicode="&#x134;" horiz-adv-x="420" 
d="M293 890l126 -117h-78l-104 58l-103 -58h-78l128 117h109zM301 649v-473q0 -29 -3 -52.5t-7 -41t-13.5 -30.5t-17 -22t-23.5 -14.5t-26.5 -9t-32.5 -5t-35 -1.5h-40h-61v62h22q27 0 40.5 1t30 7t23.5 18.5t12.5 35t5.5 57.5v468q0 17 -6 25t-24 10l-49 4v37h285v-37
l-50 -4q-18 -2 -24.5 -10.5t-6.5 -24.5z" />
    <glyph glyph-name="jcircumflex" unicode="&#x135;" horiz-adv-x="340" 
d="M222 745l137 -142h-60l-113 67l-115 -67h-60l142 142h69zM131 3v461q0 19 -5.5 24.5t-25.5 8.5l-43 4v37h192l-1 -133v-395q0 -70 -7.5 -109.5t-29.5 -60.5t-49.5 -26.5t-80.5 -5.5h-71v74h70q19 0 27.5 2.5t15 16t7.5 35t1 67.5z" />
    <glyph glyph-name="Kcommaaccent" unicode="&#x136;" horiz-adv-x="776" 
d="M335 38v-38h-285v38l49 5q18 1 24.5 9t6.5 24v573q0 16 -6.5 24.5t-24.5 10.5l-49 4v37h285v-37l-49 -4q-18 -2 -24.5 -10.5t-6.5 -24.5v-292l295 292q17 18 10.5 25t-38.5 11l-33 3v37h247v-37l-25 -2q-23 -3 -40.5 -15.5t-52.5 -47.5l-184 -180l235 -353
q20 -30 34.5 -39.5t38.5 -11.5l24 -1v-38h-289v38l22 1q35 1 39.5 9.5t-10.5 27.5l-183 280l-90 -88v-192q0 -16 6.5 -24t24.5 -9zM351 -129v92h109v-98l-45 -93h-67l40 99h-37z" />
    <glyph glyph-name="kcommaaccent" unicode="&#x137;" horiz-adv-x="612" 
d="M295 37v-37h-265v37l43 4q20 2 25.5 8.5t5.5 25.5v595q0 19 -5.5 25t-25.5 8l-43 5v37h192l-1 -137v-345l193 195q15 15 10 25.5t-30 13.5l-51 4v37h256v-37l-49 -6q-16 -2 -30.5 -11t-40.5 -36l-114 -111l155 -253q14 -22 28.5 -32t39.5 -13l24 -2v-37h-179l-150 256
l-62 -60v-121q0 -19 6 -25.5t26 -8.5zM262 -129v92h109v-98l-45 -93h-67l40 99h-37z" />
    <glyph glyph-name="kgreenlandic" unicode="&#x138;" horiz-adv-x="612" 
d="M295 37v-37h-265v37l43 4q20 2 25.5 8.5t5.5 25.5v389q0 19 -5.5 24.5t-25.5 8.5l-43 4v37h192l-1 -136v-139l193 195q15 15 10 25.5t-30 13.5l-51 4v37h256v-37l-49 -6q-16 -2 -30.5 -11t-40.5 -36l-114 -111l155 -253q14 -22 28.5 -32t39.5 -13l24 -2v-37h-179
l-150 256l-62 -60v-121q0 -19 6 -25.5t26 -8.5z" />
    <glyph glyph-name="Lacute" unicode="&#x139;" horiz-adv-x="634" 
d="M384 890l-176 -117h-72l103 117h145zM50 0v38l49 5q18 1 24.5 9t6.5 24v573q0 16 -6.5 24.5t-24.5 10.5l-49 4v37h285v-37l-49 -4q-18 -2 -24.5 -10.5t-6.5 -24.5v-587h189q30 0 43.5 0.5t30 3.5t22.5 8t14 16.5t11 26.5t6 39l9 66h44v-222h-574z" />
    <glyph glyph-name="lacute" unicode="&#x13a;" horiz-adv-x="324" 
d="M351 890l-176 -117h-72l103 117h145zM30 745h192l-1 -137v-533q0 -19 6 -25.5t26 -8.5l42 -4v-37h-265v37l43 4q20 2 25.5 8.5t5.5 25.5v595q0 19 -5.5 25t-25.5 8l-43 5v37z" />
    <glyph glyph-name="Lcommaaccent" unicode="&#x13b;" horiz-adv-x="634" 
d="M50 0v38l49 5q18 1 24.5 9t6.5 24v573q0 16 -6.5 24.5t-24.5 10.5l-49 4v37h285v-37l-49 -4q-18 -2 -24.5 -10.5t-6.5 -24.5v-587h189q30 0 43.5 0.5t30 3.5t22.5 8t14 16.5t11 26.5t6 39l9 66h44v-222h-574zM289 -129v92h109v-98l-45 -93h-67l40 99h-37z" />
    <glyph glyph-name="lcommaaccent" unicode="&#x13c;" horiz-adv-x="322" 
d="M30 745h192l-1 -137v-533q0 -19 6 -25.5t26 -8.5l42 -4v-37h-265v37l43 4q20 2 25.5 8.5t5.5 25.5v595q0 19 -5.5 25t-25.5 8l-43 5v37zM107 -129v92h109v-98l-45 -93h-67l40 99h-37z" />
    <glyph glyph-name="Lcaron" unicode="&#x13d;" horiz-adv-x="634" 
d="M399 593v132h132v-132l-73 -156h-47l44 156h-56zM50 0v38l49 5q18 1 24.5 9t6.5 24v573q0 16 -6.5 24.5t-24.5 10.5l-49 4v37h285v-37l-49 -4q-18 -2 -24.5 -10.5t-6.5 -24.5v-587h189q30 0 43.5 0.5t30 3.5t22.5 8t14 16.5t11 26.5t6 39l9 66h44v-222h-574z" />
    <glyph glyph-name="lcaron" unicode="&#x13e;" horiz-adv-x="464" 
d="M292 613v132h132v-132l-73 -156h-47l44 156h-56zM30 745h192l-1 -137v-533q0 -19 6 -25.5t26 -8.5l42 -4v-37h-265v37l43 4q20 2 25.5 8.5t5.5 25.5v595q0 19 -5.5 25t-25.5 8l-43 5v37z" />
    <glyph glyph-name="Ldot" unicode="&#x13f;" horiz-adv-x="634" 
d="M50 0v38l49 5q18 1 24.5 9t6.5 24v573q0 16 -6.5 24.5t-24.5 10.5l-49 4v37h285v-37l-49 -4q-18 -2 -24.5 -10.5t-6.5 -24.5v-587h189q30 0 43.5 0.5t30 3.5t22.5 8t14 16.5t11 26.5t6 39l9 66h44v-222h-574zM381 349v135h117v-135h-117z" />
    <glyph glyph-name="ldot" unicode="&#x140;" horiz-adv-x="422" 
d="M30 745h192l-1 -137v-533q0 -19 6 -25.5t26 -8.5l42 -4v-37h-265v37l43 4q20 2 25.5 8.5t5.5 25.5v595q0 19 -5.5 25t-25.5 8l-43 5v37zM295 349v135h117v-135h-117z" />
    <glyph glyph-name="Lslash" unicode="&#x141;" horiz-adv-x="648" 
d="M638 0h-574v38l49 5q18 1 24.5 9t6.5 24v242l-113 -35l-16 52l129 41v273q0 16 -6.5 24.5t-24.5 10.5l-49 4v37h285v-37l-49 -4q-18 -2 -24.5 -10.5t-6.5 -24.5v-234l142 45l17 -53l-159 -50v-295h189q30 0 43.5 0.5t30 3.5t22.5 8t14 16.5t11 26.5t6 39l9 66h44v-222z
" />
    <glyph glyph-name="lslash" unicode="&#x142;" horiz-adv-x="358" 
d="M309 0h-265v37l43 4q20 2 25.5 8.5t5.5 25.5v259l-84 -26l-14 49l98 31v282q0 19 -5.5 25t-25.5 8l-43 5v37h192l-1 -137v-184l98 31l15 -49l-113 -35v-296q0 -19 6 -25.5t26 -8.5l42 -4v-37z" />
    <glyph glyph-name="Nacute" unicode="&#x143;" horiz-adv-x="810" 
d="M608 890l-176 -117h-72l103 117h145zM705 649v-649h-66l-436 563v-487q0 -16 6 -24t24 -9l50 -5v-38h-233v38l49 5q18 1 24.5 9t6.5 24v573q0 16 -6.5 24.5t-24.5 10.5l-49 4v37h183l399 -518v442q0 16 -6 24t-25 9l-49 5v38h233v-38l-49 -5q-19 -1 -25 -9t-6 -24z" />
    <glyph glyph-name="nacute" unicode="&#x144;" horiz-adv-x="652" 
d="M536 745l-168 -142h-57l93 142h132zM561 355v-280q0 -19 5.5 -25.5t25.5 -8.5l43 -4v-37h-265v37l42 4q20 2 26 8.5t6 25.5v240q0 86 -21.5 123t-72.5 37q-54 0 -85.5 -42t-31.5 -109v-249q0 -19 6 -25.5t26 -8.5l42 -4v-37h-265v37l43 4q20 2 25.5 8.5t5.5 25.5v389
q0 19 -5.5 24.5t-25.5 8.5l-43 4v37h190v-90h1q24 45 67 72t100 27q161 0 161 -192z" />
    <glyph glyph-name="Ncommaaccent" unicode="&#x145;" horiz-adv-x="810" 
d="M705 649v-649h-66l-436 563v-487q0 -16 6 -24t24 -9l50 -5v-38h-233v38l49 5q18 1 24.5 9t6.5 24v573q0 16 -6.5 24.5t-24.5 10.5l-49 4v37h183l399 -518v442q0 16 -6 24t-25 9l-49 5v38h233v-38l-49 -5q-19 -1 -25 -9t-6 -24zM365 -129v92h109v-98l-45 -93h-67l40 99
h-37z" />
    <glyph glyph-name="ncommaaccent" unicode="&#x146;" horiz-adv-x="652" 
d="M561 355v-280q0 -19 5.5 -25.5t25.5 -8.5l43 -4v-37h-265v37l42 4q20 2 26 8.5t6 25.5v240q0 86 -21.5 123t-72.5 37q-54 0 -85.5 -42t-31.5 -109v-249q0 -19 6 -25.5t26 -8.5l42 -4v-37h-265v37l43 4q20 2 25.5 8.5t5.5 25.5v389q0 19 -5.5 24.5t-25.5 8.5l-43 4v37h190
v-90h1q24 45 67 72t100 27q161 0 161 -192zM283 -129v92h109v-98l-45 -93h-67l40 99h-37z" />
    <glyph glyph-name="Ncaron" unicode="&#x147;" horiz-adv-x="810" 
d="M349 773l-124 117h78l102 -58l105 58h78l-129 -117h-110zM705 649v-649h-66l-436 563v-487q0 -16 6 -24t24 -9l50 -5v-38h-233v38l49 5q18 1 24.5 9t6.5 24v573q0 16 -6.5 24.5t-24.5 10.5l-49 4v37h183l399 -518v442q0 16 -6 24t-25 9l-49 5v38h233v-38l-49 -5
q-19 -1 -25 -9t-6 -24z" />
    <glyph glyph-name="ncaron" unicode="&#x148;" horiz-adv-x="652" 
d="M301 603l-139 142h60l114 -68l114 68h60l-141 -142h-68zM561 355v-280q0 -19 5.5 -25.5t25.5 -8.5l43 -4v-37h-265v37l42 4q20 2 26 8.5t6 25.5v240q0 86 -21.5 123t-72.5 37q-54 0 -85.5 -42t-31.5 -109v-249q0 -19 6 -25.5t26 -8.5l42 -4v-37h-265v37l43 4
q20 2 25.5 8.5t5.5 25.5v389q0 19 -5.5 24.5t-25.5 8.5l-43 4v37h190v-90h1q24 45 67 72t100 27q161 0 161 -192z" />
    <glyph glyph-name="napostrophe" unicode="&#x149;" horiz-adv-x="652" 
d="M116 686v92h109v-98l-45 -93h-67l40 99h-37zM561 355v-280q0 -19 5.5 -25.5t25.5 -8.5l43 -4v-37h-265v37l42 4q20 2 26 8.5t6 25.5v240q0 86 -21.5 123t-72.5 37q-54 0 -85.5 -42t-31.5 -109v-249q0 -19 6 -25.5t26 -8.5l42 -4v-37h-265v37l43 4q20 2 25.5 8.5t5.5 25.5
v389q0 19 -5.5 24.5t-25.5 8.5l-43 4v37h190v-90h1q24 45 67 72t100 27q161 0 161 -192z" />
    <glyph glyph-name="Eng" unicode="&#x14a;" horiz-adv-x="810" 
d="M632 9l-429 554v-487q0 -16 6 -24t24 -9l50 -5v-38h-233v38l49 5q18 1 24.5 9t6.5 24v573q0 16 -6.5 24.5t-24.5 10.5l-49 4v37h183l399 -518v442q0 16 -6 24t-25 9l-49 5v38h233v-38l-49 -5q-19 -1 -25 -9t-6 -24v-673q0 -59 -7 -92t-28.5 -49.5t-45.5 -20t-74 -3.5h-37
v67h23q70 0 83 12.5t13 77.5v41z" />
    <glyph glyph-name="eng" unicode="&#x14b;" horiz-adv-x="578" 
d="M561 352v-340q0 -69 -7.5 -109t-29.5 -61t-50 -26.5t-80 -5.5h-71v74h69q25 0 34.5 7t13.5 30.5t4 83.5v307q0 86 -21.5 123t-72.5 37q-54 0 -85.5 -42t-31.5 -109v-246q0 -19 6 -25.5t26 -8.5l42 -4v-37h-265v37l43 4q20 2 25.5 8.5t5.5 25.5v386q0 19 -5.5 24.5
t-25.5 8.5l-43 4v37h190v-90h1q24 45 67 72t100 27q161 0 161 -192z" />
    <glyph glyph-name="Omacron" unicode="&#x14c;" horiz-adv-x="811" 
d="M571 797h-311v67h311v-67zM406 -13q-162 0 -263 102.5t-101 275.5q0 172 101 274.5t263 102.5t262.5 -102.5t100.5 -274.5q0 -173 -100.5 -275.5t-262.5 -102.5zM636 365q0 145 -58 230t-172 85t-172.5 -85t-58.5 -230q0 -146 58.5 -231t172.5 -85t172 85t58 231z" />
    <glyph glyph-name="omacron" unicode="&#x14d;" horiz-adv-x="611" 
d="M458 631h-289v71h289v-71zM304 547q118 0 192.5 -76t74.5 -204q0 -127 -75 -203.5t-193 -76.5q-117 0 -190 76t-73 204q0 127 73.5 203.5t190.5 76.5zM304 46q63 0 101.5 54t38.5 167q0 114 -38 167.5t-102 53.5q-63 0 -100 -53.5t-37 -167.5q0 -113 37.5 -167t99.5 -54z
" />
    <glyph glyph-name="Obreve" unicode="&#x14e;" horiz-adv-x="811" 
d="M504 890h65q-6 -56 -47 -89t-117 -33q-74 0 -114.5 33t-47.5 89h66q4 -31 31.5 -49t65.5 -18q37 0 65 18.5t33 48.5zM406 -13q-162 0 -263 102.5t-101 275.5q0 172 101 274.5t263 102.5t262.5 -102.5t100.5 -274.5q0 -173 -100.5 -275.5t-262.5 -102.5zM636 365
q0 145 -58 230t-172 85t-172.5 -85t-58.5 -230q0 -146 58.5 -231t172.5 -85t172 85t58 231z" />
    <glyph glyph-name="obreve" unicode="&#x14f;" horiz-adv-x="611" 
d="M224 739q6 -87 86 -87q82 0 88 87h69q-6 -68 -45.5 -106t-112.5 -38q-70 0 -109 38.5t-45 105.5h69zM304 547q118 0 192.5 -76t74.5 -204q0 -127 -75 -203.5t-193 -76.5q-117 0 -190 76t-73 204q0 127 73.5 203.5t190.5 76.5zM304 46q63 0 101.5 54t38.5 167
q0 114 -38 167.5t-102 53.5q-63 0 -100 -53.5t-37 -167.5q0 -113 37.5 -167t99.5 -54z" />
    <glyph glyph-name="Ohungarumlaut" unicode="&#x150;" horiz-adv-x="811" 
d="M691 890l-177 -117h-60l103 117h134zM524 890l-177 -117h-60l103 117h134zM406 -13q-162 0 -263 102.5t-101 275.5q0 172 101 274.5t263 102.5t262.5 -102.5t100.5 -274.5q0 -173 -100.5 -275.5t-262.5 -102.5zM636 365q0 145 -58 230t-172 85t-172.5 -85t-58.5 -230
q0 -146 58.5 -231t172.5 -85t172 85t58 231z" />
    <glyph glyph-name="ohungarumlaut" unicode="&#x151;" horiz-adv-x="611" 
d="M586 745l-168 -142h-57l94 142h131zM419 745l-168 -142h-57l94 142h131zM304 547q118 0 192.5 -76t74.5 -204q0 -127 -75 -203.5t-193 -76.5q-117 0 -190 76t-73 204q0 127 73.5 203.5t190.5 76.5zM304 46q63 0 101.5 54t38.5 167q0 114 -38 167.5t-102 53.5
q-63 0 -100 -53.5t-37 -167.5q0 -113 37.5 -167t99.5 -54z" />
    <glyph glyph-name="OE" unicode="&#x152;" horiz-adv-x="1197" 
d="M636 365q0 145 -58 230t-172 85t-172.5 -85t-58.5 -230q0 -146 58.5 -231t172.5 -85t172 85t58 231zM406 -13q-162 0 -263 102.5t-101 275.5q0 172 101 274.5t263 102.5q139 0 217 -98v81h508v-222h-45l-9 66q-4 29 -9.5 46t-11.5 27.5t-23.5 14.5t-32.5 5t-51 1h-201
v-256h297v-65h-297v-280h213q78 0 98 13t29 81l9 66h45v-222h-519v88q-82 -101 -217 -101z" />
    <glyph glyph-name="oe" unicode="&#x153;" horiz-adv-x="989" 
d="M561 260q1 -99 39.5 -156.5t109.5 -57.5q51 0 85 33t40 89h113q-15 -89 -83.5 -135t-161.5 -46q-129 0 -200 93q-69 -93 -200 -93q-117 0 -190 76.5t-73 204.5q0 127 73 201.5t191 74.5q130 0 199 -93q69 93 198 93q113 0 182.5 -72t67.5 -212h-390zM561 320h266
q3 86 -32.5 126.5t-95.5 40.5t-97.5 -41t-40.5 -126zM304 46q64 0 102 53.5t38 166.5q0 114 -38 166.5t-102 52.5q-63 0 -100 -52.5t-37 -166.5q0 -113 37.5 -166.5t99.5 -53.5z" />
    <glyph glyph-name="Racute" unicode="&#x154;" horiz-adv-x="746" 
d="M547 890l-176 -117h-72l103 117h145zM328 664h-73v-281h73q95 0 140.5 34t45.5 107t-45.5 106.5t-140.5 33.5zM339 38v-38h-289v38l49 5q18 1 24.5 9t6.5 24v573q0 16 -6.5 24.5t-24.5 10.5l-49 4v37q46 0 136.5 0.5t136.5 0.5q170 0 245.5 -51t75.5 -151
q0 -131 -145 -179l154 -259q14 -25 24.5 -33t31.5 -10l42 -5v-38h-189l-51 94l-133 228q-36 -2 -55 -2h-68v-244q0 -16 6.5 -24t24.5 -9z" />
    <glyph glyph-name="racute" unicode="&#x155;" horiz-adv-x="459" 
d="M456 745l-168 -142h-57l93 142h132zM232 538v-120h2q22 58 68 91t105 33h47v-110h-95q-64 0 -95 -28t-31 -105v-223q0 -19 6 -25.5t26 -7.5l75 -5v-38h-298v37l43 4q20 2 25.5 8.5t5.5 25.5v389q0 19 -5.5 24.5t-25.5 8.5l-43 4v37h190z" />
    <glyph glyph-name="Rcommaaccent" unicode="&#x156;" horiz-adv-x="746" 
d="M328 664h-73v-281h73q95 0 140.5 34t45.5 107t-45.5 106.5t-140.5 33.5zM339 38v-38h-289v38l49 5q18 1 24.5 9t6.5 24v573q0 16 -6.5 24.5t-24.5 10.5l-49 4v37q46 0 136.5 0.5t136.5 0.5q170 0 245.5 -51t75.5 -151q0 -131 -145 -179l154 -259q14 -25 24.5 -33
t31.5 -10l42 -5v-38h-189l-51 94l-133 228q-36 -2 -55 -2h-68v-244q0 -16 6.5 -24t24.5 -9zM347 -129v92h109v-98l-45 -93h-67l40 99h-37z" />
    <glyph glyph-name="rcommaaccent" unicode="&#x157;" horiz-adv-x="459" 
d="M232 538v-120h2q22 58 68 91t105 33h47v-110h-95q-64 0 -95 -28t-31 -105v-223q0 -19 6 -25.5t26 -7.5l75 -5v-38h-298v37l43 4q20 2 25.5 8.5t5.5 25.5v389q0 19 -5.5 24.5t-25.5 8.5l-43 4v37h190zM123 -129v92h109v-98l-45 -93h-67l40 99h-37z" />
    <glyph glyph-name="Rcaron" unicode="&#x158;" horiz-adv-x="746" 
d="M302 773l-124 117h78l102 -58l105 58h78l-129 -117h-110zM328 664h-73v-281h73q95 0 140.5 34t45.5 107t-45.5 106.5t-140.5 33.5zM339 38v-38h-289v38l49 5q18 1 24.5 9t6.5 24v573q0 16 -6.5 24.5t-24.5 10.5l-49 4v37q46 0 136.5 0.5t136.5 0.5q170 0 245.5 -51
t75.5 -151q0 -131 -145 -179l154 -259q14 -25 24.5 -33t31.5 -10l42 -5v-38h-189l-51 94l-133 228q-36 -2 -55 -2h-68v-244q0 -16 6.5 -24t24.5 -9z" />
    <glyph glyph-name="rcaron" unicode="&#x159;" horiz-adv-x="459" 
d="M250 603l-139 142h60l114 -68l114 68h60l-141 -142h-68zM232 538v-120h2q22 58 68 91t105 33h47v-110h-95q-64 0 -95 -28t-31 -105v-223q0 -19 6 -25.5t26 -7.5l75 -5v-38h-298v37l43 4q20 2 25.5 8.5t5.5 25.5v389q0 19 -5.5 24.5t-25.5 8.5l-43 4v37h190z" />
    <glyph glyph-name="Sacute" unicode="&#x15a;" horiz-adv-x="654" 
d="M524 890l-176 -117h-72l103 117h145zM611 522h-121q-7 77 -56.5 117.5t-124.5 40.5q-37 0 -71.5 -10t-61 -36t-26.5 -63q0 -50 37 -78t105 -45l80 -21q45 -12 76.5 -22.5t68 -29t59 -40.5t38 -55.5t15.5 -75.5q0 -103 -87 -160t-206 -57q-132 0 -217 66t-103 185h124
q8 -82 56.5 -135.5t142.5 -53.5q69 0 122.5 33t53.5 98q0 25 -10 45t-24.5 33t-39.5 25t-46.5 19t-54.5 15l-91 24q-93 24 -152 75t-59 135q0 94 83 142.5t200 48.5t195.5 -63t94.5 -157z" />
    <glyph glyph-name="sacute" unicode="&#x15b;" horiz-adv-x="537" 
d="M455 745l-168 -142h-57l93 142h132zM148 169q6 -55 39.5 -89t94.5 -34q57 0 89.5 22.5t32.5 61.5q0 42 -35 63t-94 32l-62 12q-69 13 -115.5 51.5t-46.5 106.5q0 75 63.5 113.5t151.5 38.5t149.5 -42.5t76.5 -119.5h-109q-2 44 -38 73.5t-88 29.5q-40 0 -76 -16t-36 -53
q0 -66 105 -86l62 -13q88 -18 138.5 -54.5t50.5 -112.5q0 -85 -64.5 -125.5t-164.5 -40.5q-97 0 -161.5 48t-71.5 134h109z" />
    <glyph glyph-name="Scircumflex" unicode="&#x15c;" horiz-adv-x="654" 
d="M376 890l126 -117h-78l-104 58l-103 -58h-78l128 117h109zM611 522h-121q-7 77 -56.5 117.5t-124.5 40.5q-37 0 -71.5 -10t-61 -36t-26.5 -63q0 -50 37 -78t105 -45l80 -21q45 -12 76.5 -22.5t68 -29t59 -40.5t38 -55.5t15.5 -75.5q0 -103 -87 -160t-206 -57
q-132 0 -217 66t-103 185h124q8 -82 56.5 -135.5t142.5 -53.5q69 0 122.5 33t53.5 98q0 25 -10 45t-24.5 33t-39.5 25t-46.5 19t-54.5 15l-91 24q-93 24 -152 75t-59 135q0 94 83 142.5t200 48.5t195.5 -63t94.5 -157z" />
    <glyph glyph-name="scircumflex" unicode="&#x15d;" horiz-adv-x="537" 
d="M311 745l137 -142h-60l-113 67l-115 -67h-60l142 142h69zM148 169q6 -55 39.5 -89t94.5 -34q57 0 89.5 22.5t32.5 61.5q0 42 -35 63t-94 32l-62 12q-69 13 -115.5 51.5t-46.5 106.5q0 75 63.5 113.5t151.5 38.5t149.5 -42.5t76.5 -119.5h-109q-2 44 -38 73.5t-88 29.5
q-40 0 -76 -16t-36 -53q0 -66 105 -86l62 -13q88 -18 138.5 -54.5t50.5 -112.5q0 -85 -64.5 -125.5t-164.5 -40.5q-97 0 -161.5 48t-71.5 134h109z" />
    <glyph glyph-name="Scedilla" unicode="&#x15e;" horiz-adv-x="654" 
d="M315 -218q-44 0 -86 18l15 36q23 -13 61 -13q60 0 60 45q0 18 -13.5 28t-31.5 10q-28 0 -45 -10l-21 19l47 73q-118 9 -193.5 74.5t-91.5 175.5h124q8 -82 56.5 -135.5t142.5 -53.5q69 0 122.5 33t53.5 98q0 25 -10 45t-24.5 33t-39.5 25t-46.5 19t-54.5 15l-91 24
q-93 24 -152 75t-59 135q0 94 83 142.5t200 48.5t195.5 -63t94.5 -157h-121q-7 77 -56.5 117.5t-124.5 40.5q-37 0 -71.5 -10t-61 -36t-26.5 -63q0 -50 37 -78t105 -45l80 -21q45 -12 76.5 -22.5t68 -29t59 -40.5t38 -55.5t15.5 -75.5q0 -100 -82.5 -157t-198.5 -60l-26 -37
q47 9 77.5 -13t30.5 -64q0 -40 -33.5 -65.5t-81.5 -25.5z" />
    <glyph glyph-name="scedilla" unicode="&#x15f;" horiz-adv-x="537" 
d="M254 -218q-59 0 -104 20l17 41q36 -16 66 -16q25 0 46.5 10.5t21.5 30.5q0 18 -15.5 28t-36.5 10q-23 0 -40 -10l-21 19l48 74q-84 9 -137.5 56t-59.5 124h109q6 -55 39.5 -89t94.5 -34q57 0 89.5 22.5t32.5 61.5q0 42 -35 63t-94 32l-62 12q-69 13 -115.5 51.5
t-46.5 106.5q0 75 63.5 113.5t151.5 38.5t149.5 -42.5t76.5 -119.5h-109q-2 44 -38 73.5t-88 29.5q-40 0 -76 -16t-36 -53q0 -66 105 -86l62 -13q88 -18 138.5 -54.5t50.5 -112.5q0 -56 -31 -94t-78.5 -54t-109.5 -18l-26 -37q54 10 86.5 -12.5t32.5 -64.5t-37 -66.5
t-84 -24.5z" />
    <glyph glyph-name="Scaron" unicode="&#x160;" horiz-adv-x="654" 
d="M270 773l-124 117h78l102 -58l105 58h78l-129 -117h-110zM611 522h-121q-7 77 -56.5 117.5t-124.5 40.5q-37 0 -71.5 -10t-61 -36t-26.5 -63q0 -50 37 -78t105 -45l80 -21q45 -12 76.5 -22.5t68 -29t59 -40.5t38 -55.5t15.5 -75.5q0 -103 -87 -160t-206 -57
q-132 0 -217 66t-103 185h124q8 -82 56.5 -135.5t142.5 -53.5q69 0 122.5 33t53.5 98q0 25 -10 45t-24.5 33t-39.5 25t-46.5 19t-54.5 15l-91 24q-93 24 -152 75t-59 135q0 94 83 142.5t200 48.5t195.5 -63t94.5 -157z" />
    <glyph glyph-name="scaron" unicode="&#x161;" horiz-adv-x="537" 
d="M238 603l-139 142h60l114 -68l114 68h60l-141 -142h-68zM148 169q6 -55 39.5 -89t94.5 -34q57 0 89.5 22.5t32.5 61.5q0 42 -35 63t-94 32l-62 12q-69 13 -115.5 51.5t-46.5 106.5q0 75 63.5 113.5t151.5 38.5t149.5 -42.5t76.5 -119.5h-109q-2 44 -38 73.5t-88 29.5
q-40 0 -76 -16t-36 -53q0 -66 105 -86l62 -13q88 -18 138.5 -54.5t50.5 -112.5q0 -85 -64.5 -125.5t-164.5 -40.5q-97 0 -161.5 48t-71.5 134h109z" />
    <glyph glyph-name="uni0162" unicode="&#x162;" horiz-adv-x="711" 
d="M20 725h671v-222h-44l-9 66q-9 68 -30 82t-98 14h-92v-587q0 -17 6.5 -25t25.5 -9l60 -5v-39h-309v39l61 5q19 1 25 9t6 25v587h-92q-77 0 -97.5 -14t-29.5 -82l-9 -66h-45v222zM304 -129v92h109v-98l-45 -93h-67l40 99h-37z" />
    <glyph glyph-name="uni0163" unicode="&#x163;" horiz-adv-x="404" 
d="M371 538v-64h-153v-322q0 -50 15.5 -66t62.5 -16h74v-70h-92q-108 0 -142.5 26t-34.5 113v335h-94v64h94v171h117v-171h153zM118 -129v92h109v-98l-45 -93h-67l40 99h-37z" />
    <glyph glyph-name="Tcaron" unicode="&#x164;" horiz-adv-x="711" 
d="M296 773l-124 117h78l102 -58l105 58h78l-129 -117h-110zM20 725h671v-222h-44l-9 66q-9 68 -30 82t-98 14h-92v-587q0 -17 6.5 -25t25.5 -9l60 -5v-39h-309v39l61 5q19 1 25 9t6 25v587h-92q-77 0 -97.5 -14t-29.5 -82l-9 -66h-45v222z" />
    <glyph glyph-name="tcaron" unicode="&#x165;" horiz-adv-x="595" 
d="M430 613v132h132v-132l-73 -156h-47l44 156h-56zM371 538v-64h-153v-322q0 -50 15.5 -66t62.5 -16h74v-70h-92q-108 0 -142.5 26t-34.5 113v335h-94v64h94v171h117v-171h153z" />
    <glyph glyph-name="Tbar" unicode="&#x166;" horiz-adv-x="711" 
d="M510 39v-39h-309v39l61 5q19 1 25 9t6 25v264h-141v65h141v258h-92q-77 0 -97.5 -14t-29.5 -82l-9 -66h-45v222h671v-222h-44l-9 66q-9 68 -30 82t-98 14h-92v-258h151v-65h-151v-264q0 -17 6.5 -25t25.5 -9z" />
    <glyph glyph-name="tbar" unicode="&#x167;" horiz-adv-x="404" 
d="M370 70v-70h-92q-108 0 -142.5 26t-34.5 113v168h-94v64h94v100h-94v64h94v174h117v-174h153v-64h-153v-100h153v-64h-153v-155q0 -50 15.5 -66t62.5 -16h74z" />
    <glyph glyph-name="Utilde" unicode="&#x168;" horiz-adv-x="794" 
d="M482 844q40 0 46 46h62q-18 -118 -104 -118q-32 0 -75.5 24t-58.5 24q-37 0 -46 -47h-60q13 118 105 118q31 0 73 -23.5t58 -23.5zM404 -13q-168 0 -239 73.5t-71 211.5v377q0 16 -6.5 24.5t-25.5 10.5l-49 4v37h286v-37l-49 -4q-18 -2 -24.5 -10.5t-6.5 -24.5v-372
q0 -107 45 -160.5t144 -53.5q107 0 161 49.5t54 162.5v374q0 17 -6 25t-24 10l-49 4v37h235v-37l-49 -4q-18 -2 -24 -10t-6 -25v-369q0 -136 -70 -214.5t-226 -78.5z" />
    <glyph glyph-name="utilde" unicode="&#x169;" horiz-adv-x="626" 
d="M339 679q40 0 46 47h62q-18 -119 -104 -119q-32 0 -75.5 24t-58.5 24q-37 0 -46 -48h-60q13 119 105 119q31 0 73 -23.5t58 -23.5zM410 -9l-4 94h-1q-51 -98 -164 -98q-157 0 -157 192v285q0 19 -5.5 24.5t-25.5 8.5l-43 4v37h192l-1 -136v-184q0 -86 20.5 -122.5
t70.5 -36.5q54 0 83.5 41.5t29.5 109.5v254q0 19 -5.5 24.5t-25.5 8.5l-43 4v37h192l-1 -136v-318q0 -19 6 -25.5t26 -8.5l42 -4v-37z" />
    <glyph glyph-name="Umacron" unicode="&#x16a;" horiz-adv-x="794" 
d="M575 797h-311v67h311v-67zM404 -13q-168 0 -239 73.5t-71 211.5v377q0 16 -6.5 24.5t-25.5 10.5l-49 4v37h286v-37l-49 -4q-18 -2 -24.5 -10.5t-6.5 -24.5v-372q0 -107 45 -160.5t144 -53.5q107 0 161 49.5t54 162.5v374q0 17 -6 25t-24 10l-49 4v37h235v-37l-49 -4
q-18 -2 -24 -10t-6 -25v-369q0 -136 -70 -214.5t-226 -78.5z" />
    <glyph glyph-name="umacron" unicode="&#x16b;" horiz-adv-x="626" 
d="M417 631h-289v71h289v-71zM410 -9l-4 94h-1q-51 -98 -164 -98q-157 0 -157 192v285q0 19 -5.5 24.5t-25.5 8.5l-43 4v37h192l-1 -136v-184q0 -86 20.5 -122.5t70.5 -36.5q54 0 83.5 41.5t29.5 109.5v254q0 19 -5.5 24.5t-25.5 8.5l-43 4v37h192l-1 -136v-318
q0 -19 6 -25.5t26 -8.5l42 -4v-37z" />
    <glyph glyph-name="Ubreve" unicode="&#x16c;" horiz-adv-x="794" 
d="M516 890h65q-6 -56 -47 -89t-117 -33q-74 0 -114.5 33t-47.5 89h66q4 -31 31.5 -49t65.5 -18q37 0 65 18.5t33 48.5zM404 -13q-168 0 -239 73.5t-71 211.5v377q0 16 -6.5 24.5t-25.5 10.5l-49 4v37h286v-37l-49 -4q-18 -2 -24.5 -10.5t-6.5 -24.5v-372q0 -107 45 -160.5
t144 -53.5q107 0 161 49.5t54 162.5v374q0 17 -6 25t-24 10l-49 4v37h235v-37l-49 -4q-18 -2 -24 -10t-6 -25v-369q0 -136 -70 -214.5t-226 -78.5z" />
    <glyph glyph-name="ubreve" unicode="&#x16d;" horiz-adv-x="626" 
d="M186 739q6 -87 86 -87q82 0 88 87h69q-6 -68 -45.5 -106t-112.5 -38q-70 0 -109 38.5t-45 105.5h69zM410 -9l-4 94h-1q-51 -98 -164 -98q-157 0 -157 192v285q0 19 -5.5 24.5t-25.5 8.5l-43 4v37h192l-1 -136v-184q0 -86 20.5 -122.5t70.5 -36.5q54 0 83.5 41.5
t29.5 109.5v254q0 19 -5.5 24.5t-25.5 8.5l-43 4v37h192l-1 -136v-318q0 -19 6 -25.5t26 -8.5l42 -4v-37z" />
    <glyph glyph-name="Uring" unicode="&#x16e;" horiz-adv-x="794" 
d="M419 943q39 0 66 -25t27 -62q0 -38 -27 -63t-66 -25q-40 0 -67 25t-27 63q0 37 27.5 62t66.5 25zM419 900q-18 0 -31.5 -13t-13.5 -31q0 -19 13.5 -31.5t31.5 -12.5t31 12.5t13 31.5q0 18 -13 31t-31 13zM404 -13q-168 0 -239 73.5t-71 211.5v377q0 16 -6.5 24.5
t-25.5 10.5l-49 4v37h286v-37l-49 -4q-18 -2 -24.5 -10.5t-6.5 -24.5v-372q0 -107 45 -160.5t144 -53.5q107 0 161 49.5t54 162.5v374q0 17 -6 25t-24 10l-49 4v37h235v-37l-49 -4q-18 -2 -24 -10t-6 -25v-369q0 -136 -70 -214.5t-226 -78.5z" />
    <glyph glyph-name="uring" unicode="&#x16f;" horiz-adv-x="626" 
d="M185 676q0 38 27.5 63t66.5 25t66.5 -25t27.5 -63t-27.5 -63.5t-66.5 -25.5q-40 0 -67 25.5t-27 63.5zM324 676q0 18 -13.5 31.5t-31.5 13.5t-31.5 -13.5t-13.5 -31.5q0 -19 13.5 -31.5t31.5 -12.5t31.5 12.5t13.5 31.5zM410 -9l-4 94h-1q-51 -98 -164 -98
q-157 0 -157 192v285q0 19 -5.5 24.5t-25.5 8.5l-43 4v37h192l-1 -136v-184q0 -86 20.5 -122.5t70.5 -36.5q54 0 83.5 41.5t29.5 109.5v254q0 19 -5.5 24.5t-25.5 8.5l-43 4v37h192l-1 -136v-318q0 -19 6 -25.5t26 -8.5l42 -4v-37z" />
    <glyph glyph-name="Uhungarumlaut" unicode="&#x170;" horiz-adv-x="794" 
d="M713 890l-177 -117h-60l103 117h134zM546 890l-177 -117h-60l103 117h134zM404 -13q-168 0 -239 73.5t-71 211.5v377q0 16 -6.5 24.5t-25.5 10.5l-49 4v37h286v-37l-49 -4q-18 -2 -24.5 -10.5t-6.5 -24.5v-372q0 -107 45 -160.5t144 -53.5q107 0 161 49.5t54 162.5v374
q0 17 -6 25t-24 10l-49 4v37h235v-37l-49 -4q-18 -2 -24 -10t-6 -25v-369q0 -136 -70 -214.5t-226 -78.5z" />
    <glyph glyph-name="uhungarumlaut" unicode="&#x171;" horiz-adv-x="626" 
d="M547 745l-168 -142h-57l94 142h131zM380 745l-168 -142h-57l94 142h131zM410 -9l-4 94h-1q-51 -98 -164 -98q-157 0 -157 192v285q0 19 -5.5 24.5t-25.5 8.5l-43 4v37h192l-1 -136v-184q0 -86 20.5 -122.5t70.5 -36.5q54 0 83.5 41.5t29.5 109.5v254q0 19 -5.5 24.5
t-25.5 8.5l-43 4v37h192l-1 -136v-318q0 -19 6 -25.5t26 -8.5l42 -4v-37z" />
    <glyph glyph-name="Uogonek" unicode="&#x172;" horiz-adv-x="794" 
d="M700 280q0 -125 -60 -202.5t-192 -88.5q-71 -39 -71 -81q0 -27 20.5 -39.5t50.5 -12.5q32 0 51 9v-44q-27 -12 -78 -12q-50 0 -88.5 21.5t-38.5 67.5q0 25 21 49t56 41q-150 7 -213.5 80t-63.5 204v377q0 16 -6.5 24.5t-25.5 10.5l-49 4v37h285v-37l-49 -4
q-18 -2 -24.5 -10.5t-6.5 -24.5v-372q0 -106 45 -160t145 -54q107 0 161 49.5t54 162.5v374q0 17 -6 25t-24 10l-49 4v37h235v-37l-49 -4q-18 -2 -24 -10t-6 -25v-369z" />
    <glyph glyph-name="uogonek" unicode="&#x173;" horiz-adv-x="626" 
d="M417 -8l-11 93h-1q-51 -98 -164 -98q-157 0 -157 192v285q0 19 -5.5 24.5t-25.5 8.5l-43 4v37h192l-1 -136v-184q0 -86 20.5 -122.5t70.5 -36.5q54 0 83.5 41.5t29.5 109.5v254q0 19 -5.5 24.5t-25.5 8.5l-43 4v37h192l-1 -136v-318q0 -19 6 -25.5t26 -8.5l42 -4v-37
l-86 -9q-33 -19 -53.5 -44t-20.5 -48q0 -27 20.5 -39.5t50.5 -12.5q31 0 51 9v-44q-26 -12 -77 -12q-50 0 -89 21.5t-39 67.5q0 24 17.5 49.5t46.5 44.5z" />
    <glyph glyph-name="Wcircumflex" unicode="&#x174;" horiz-adv-x="997" 
d="M579 890l126 -117h-78l-104 58l-103 -58h-78l128 117h109zM564 725l163 -550l107 474q7 31 -30 35l-49 4v37h237v-37l-40 -3q-17 -2 -25.5 -10.5t-13.5 -25.5l-161 -649h-96l-153 516l-162 -516h-88l-170 649q-5 17 -13 25.5t-25 10.5l-40 3v37h287v-37l-49 -4
q-21 -2 -27 -10t-1 -25l106 -471l164 547h79z" />
    <glyph glyph-name="wcircumflex" unicode="&#x175;" horiz-adv-x="790" 
d="M446 745l137 -142h-60l-113 67l-115 -67h-60l142 142h69zM562 157l74 281q5 17 6.5 25t1.5 17t-5 13t-15 5l-37 3v37h208v-37l-31 -2q-16 -1 -28.5 -14t-23.5 -45l-134 -442h-71l-118 387l-119 -387h-71l-140 468q-8 31 -27 32l-37 3v37h248v-37l-38 -3q-18 -2 -22.5 -9
t0.5 -24l75 -307l117 380h72z" />
    <glyph glyph-name="Ycircumflex" unicode="&#x176;" horiz-adv-x="690" 
d="M430 890l126 -117h-78l-104 58l-103 -58h-78l128 117h109zM278 76v211l-205 362q-18 33 -44 36l-34 3v37h297v-37l-49 -4q-20 -2 -28 -12t-1 -23l159 -288l165 288q7 13 -1.5 23t-28.5 12l-49 4v37h236v-37l-32 -3q-26 -3 -46 -36l-214 -363v-210q0 -16 6.5 -24t25.5 -9
l49 -5v-38h-286v38l48 5q19 1 25.5 9t6.5 24z" />
    <glyph glyph-name="ycircumflex" unicode="&#x177;" horiz-adv-x="561" 
d="M336 745l137 -142h-60l-113 67l-115 -67h-60l142 142h69zM113 -189h-77v71h80q41 0 61 21.5t46 97.5l5 13l-169 452q-5 17 -13 23.5t-28 9.5l-23 2v37h255v-37l-45 -3q-18 -2 -23 -9t1 -24l111 -333l113 306q12 27 11 41.5t-23 17.5l-45 4v37h216v-37l-32 -2
q-17 -1 -26 -11.5t-21 -39.5l-179 -458q-44 -112 -78.5 -145.5t-116.5 -33.5z" />
    <glyph glyph-name="Ydieresis" unicode="&#x178;" horiz-adv-x="690" 
d="M433 773v117h117v-117h-117zM205 773v117h117v-117h-117zM278 76v211l-205 362q-18 33 -44 36l-34 3v37h297v-37l-49 -4q-20 -2 -28 -12t-1 -23l159 -288l165 288q7 13 -1.5 23t-28.5 12l-49 4v37h236v-37l-32 -3q-26 -3 -46 -36l-214 -363v-210q0 -16 6.5 -24t25.5 -9
l49 -5v-38h-286v38l48 5q19 1 25.5 9t6.5 24z" />
    <glyph glyph-name="Zacute" unicode="&#x179;" horiz-adv-x="693" 
d="M562 890l-176 -117h-72l103 117h145zM244 663q-36 0 -50.5 -1t-32 -5t-23.5 -14.5t-11.5 -27.5t-9.5 -46l-8 -66h-45v222h581v-59l-471 -604h297q36 0 50.5 1t32 5t23.5 14.5t11.5 27.5t9.5 46l9 66h44v-222h-621v61l470 602h-256z" />
    <glyph glyph-name="zacute" unicode="&#x17a;" horiz-adv-x="539" 
d="M478 745l-168 -142h-57l93 142h132zM40 0v62l313 412h-285v64h426v-60l-314 -414h319v-64h-459z" />
    <glyph glyph-name="Zdotaccent" unicode="&#x17b;" horiz-adv-x="693" 
d="M298 773v117h117v-117h-117zM244 663q-36 0 -50.5 -1t-32 -5t-23.5 -14.5t-11.5 -27.5t-9.5 -46l-8 -66h-45v222h581v-59l-471 -604h297q36 0 50.5 1t32 5t23.5 14.5t11.5 27.5t9.5 46l9 66h44v-222h-621v61l470 602h-256z" />
    <glyph glyph-name="zdotaccent" unicode="&#x17c;" horiz-adv-x="539" 
d="M230 610v135h117v-135h-117zM40 0v62l313 412h-285v64h426v-60l-314 -414h319v-64h-459z" />
    <glyph glyph-name="Zcaron" unicode="&#x17d;" horiz-adv-x="693" 
d="M301 773l-124 117h78l102 -58l105 58h78l-129 -117h-110zM244 663q-36 0 -50.5 -1t-32 -5t-23.5 -14.5t-11.5 -27.5t-9.5 -46l-8 -66h-45v222h581v-59l-471 -604h297q36 0 50.5 1t32 5t23.5 14.5t11.5 27.5t9.5 46l9 66h44v-222h-621v61l470 602h-256z" />
    <glyph glyph-name="zcaron" unicode="&#x17e;" horiz-adv-x="539" 
d="M250 603l-139 142h60l114 -68l114 68h60l-141 -142h-68zM40 0v62l313 412h-285v64h426v-60l-314 -414h319v-64h-459z" />
    <glyph glyph-name="uni018F" unicode="&#x18f;" horiz-adv-x="782" 
d="M378 -12q-50 0 -97.5 11.5t-92.5 39t-77.5 68t-51.5 103t-17 140.5h565v16q0 147 -56.5 231t-169.5 84q-89 0 -143.5 -49t-63.5 -134l-125 1q26 118 116.5 181.5t215.5 63.5q165 0 262 -102t97 -276t-98.5 -276t-263.5 -102zM378 50q97 0 153 62t71 173h-425
q-4 -65 12.5 -113t47.5 -73.5t66 -37t75 -11.5z" />
    <glyph glyph-name="Scommaaccent" unicode="&#x218;" horiz-adv-x="654" 
d="M611 522h-121q-7 77 -56.5 117.5t-124.5 40.5q-37 0 -71.5 -10t-61 -36t-26.5 -63q0 -50 37 -78t105 -45l80 -21q45 -12 76.5 -22.5t68 -29t59 -40.5t38 -55.5t15.5 -75.5q0 -103 -87 -160t-206 -57q-132 0 -217 66t-103 185h124q8 -82 56.5 -135.5t142.5 -53.5
q69 0 122.5 33t53.5 98q0 25 -10 45t-24.5 33t-39.5 25t-46.5 19t-54.5 15l-91 24q-93 24 -152 75t-59 135q0 94 83 142.5t200 48.5t195.5 -63t94.5 -157zM267 -129v92h109v-98l-45 -93h-67l40 99h-37z" />
    <glyph glyph-name="scommaaccent" unicode="&#x219;" horiz-adv-x="537" 
d="M148 169q6 -55 39.5 -89t94.5 -34q57 0 89.5 22.5t32.5 61.5q0 42 -35 63t-94 32l-62 12q-69 13 -115.5 51.5t-46.5 106.5q0 75 63.5 113.5t151.5 38.5t149.5 -42.5t76.5 -119.5h-109q-2 44 -38 73.5t-88 29.5q-40 0 -76 -16t-36 -53q0 -66 105 -86l62 -13
q88 -18 138.5 -54.5t50.5 -112.5q0 -85 -64.5 -125.5t-164.5 -40.5q-97 0 -161.5 48t-71.5 134h109zM216 -129v92h109v-98l-45 -93h-67l40 99h-37z" />
    <glyph glyph-name="Tcommaaccent" unicode="&#x21a;" horiz-adv-x="711" 
d="M20 725h671v-222h-44l-9 66q-9 68 -30 82t-98 14h-92v-587q0 -17 6.5 -25t25.5 -9l60 -5v-39h-309v39l61 5q19 1 25 9t6 25v587h-92q-77 0 -97.5 -14t-29.5 -82l-9 -66h-45v222zM304 -129v92h109v-98l-45 -93h-67l40 99h-37z" />
    <glyph glyph-name="tcommaaccent" unicode="&#x21b;" horiz-adv-x="404" 
d="M371 538v-64h-153v-322q0 -50 15.5 -66t62.5 -16h74v-70h-92q-108 0 -142.5 26t-34.5 113v335h-94v64h94v171h117v-171h153zM118 -129v92h109v-98l-45 -93h-67l40 99h-37z" />
    <glyph glyph-name="uni0232" unicode="&#x232;" horiz-adv-x="690" 
d="M529 797h-311v67h311v-67zM278 76v211l-205 362q-18 33 -44 36l-34 3v37h297v-37l-49 -4q-20 -2 -28 -12t-1 -23l159 -288l165 288q7 13 -1.5 23t-28.5 12l-49 4v37h236v-37l-32 -3q-26 -3 -46 -36l-214 -363v-210q0 -16 6.5 -24t25.5 -9l49 -5v-38h-286v38l48 5
q19 1 25.5 9t6.5 24z" />
    <glyph glyph-name="uni0233" unicode="&#x233;" horiz-adv-x="561" 
d="M443 631h-289v71h289v-71zM113 -189h-77v71h80q41 0 61 21.5t46 97.5l5 13l-169 452q-5 17 -13 23.5t-28 9.5l-23 2v37h255v-37l-45 -3q-18 -2 -23 -9t1 -24l111 -333l113 306q12 27 11 41.5t-23 17.5l-45 4v37h216v-37l-32 -2q-17 -1 -26 -11.5t-21 -39.5l-179 -458
q-44 -112 -78.5 -145.5t-116.5 -33.5z" />
    <glyph glyph-name="dotlessj" unicode="&#x237;" horiz-adv-x="340" 
d="M131 3v461q0 19 -5.5 24.5t-25.5 8.5l-43 4v37h192l-1 -133v-395q0 -70 -7.5 -109.5t-29.5 -60.5t-49.5 -26.5t-80.5 -5.5h-71v74h70q19 0 27.5 2.5t15 16t7.5 35t1 67.5z" />
    <glyph glyph-name="uni0259" unicode="&#x259;" horiz-adv-x="593" 
d="M290 -12q-113 0 -182.5 72t-67.5 212h390q-2 100 -40.5 157t-108.5 57q-51 0 -85 -33t-40 -89h-113q15 88 84 134.5t161 46.5q117 0 191 -76t74 -203q0 -122 -71.5 -200t-191.5 -78zM292 45q59 0 96.5 41t41.5 126h-266q-2 -86 33 -126.5t95 -40.5z" />
    <glyph glyph-name="circumflex" unicode="&#x2c6;" horiz-adv-x="408" 
d="M241 745l137 -142h-60l-113 67l-115 -67h-60l142 142h69z" />
    <glyph glyph-name="caron" unicode="&#x2c7;" horiz-adv-x="408" 
d="M169 603l-139 142h60l114 -68l114 68h60l-141 -142h-68z" />
    <glyph glyph-name="breve" unicode="&#x2d8;" horiz-adv-x="372" 
d="M99 739q6 -87 86 -87q82 0 88 87h69q-6 -68 -45.5 -106t-112.5 -38q-70 0 -109 38.5t-45 105.5h69z" />
    <glyph glyph-name="dotaccent" unicode="&#x2d9;" horiz-adv-x="157" 
d="M20 610v135h117v-135h-117z" />
    <glyph glyph-name="ring" unicode="&#x2da;" horiz-adv-x="248" 
d="M30 676q0 38 27.5 63t66.5 25t66.5 -25t27.5 -63t-27.5 -63.5t-66.5 -25.5q-40 0 -67 25.5t-27 63.5zM169 676q0 18 -13.5 31.5t-31.5 13.5t-31.5 -13.5t-13.5 -31.5q0 -19 13.5 -31.5t31.5 -12.5t31.5 12.5t13.5 31.5z" />
    <glyph glyph-name="ogonek" unicode="&#x2db;" horiz-adv-x="249" 
d="M130 0h69q-94 -44 -94 -92q0 -27 20.5 -39.5t50.5 -12.5q32 0 51 9v-44q-26 -12 -77 -12q-50 0 -89 21.5t-39 67.5q0 30 31 58t77 44z" />
    <glyph glyph-name="tilde" unicode="&#x2dc;" horiz-adv-x="404" 
d="M266 679q40 0 46 47h62q-18 -119 -104 -119q-32 0 -75.5 24t-58.5 24q-37 0 -46 -48h-60q13 119 105 119q31 0 73 -23.5t58 -23.5z" />
    <glyph glyph-name="hungarumlaut" unicode="&#x2dd;" horiz-adv-x="452" 
d="M422 745l-168 -142h-57l94 142h131zM255 745l-168 -142h-57l94 142h131z" />
    <glyph glyph-name="uni032C" unicode="&#x32c;" horiz-adv-x="408" 
d="M169 -142l-139 142h60l114 -68l114 68h60l-141 -142h-68z" />
    <glyph glyph-name="Delta" unicode="&#x394;" horiz-adv-x="705" 
d="M-3 0l356 729l355 -729h-711zM583 75l-230 482l-232 -482h462z" />
    <glyph glyph-name="Omega" unicode="&#x3a9;" horiz-adv-x="786" 
d="M36 418q0 76 30 138t80.5 101t114 60t132.5 21t132.5 -21t114 -60t80.5 -101t30 -138q0 -103 -60 -181.5t-146 -103.5v-58h195v-75h-278v182q93 16 149 81.5t56 157.5q0 111 -77.5 179t-195.5 68q-117 0 -195 -68t-78 -179q0 -92 56 -157.5t149 -81.5v-182h-277v75h194
v58q-86 25 -146 103.5t-60 181.5z" />
    <glyph glyph-name="pi" unicode="&#x3c0;" horiz-adv-x="635" 
d="M181 0h-80v460h-75v75h580v-75h-77v-315q0 -49 10 -62t53 -13h17v-70h-38q-75 0 -98.5 25.5t-23.5 107.5v327h-268v-460z" />
    <glyph glyph-name="Wgrave" unicode="&#x1e80;" horiz-adv-x="997" 
d="M487 773l-176 117h145l103 -117h-72zM564 725l163 -550l107 474q7 31 -30 35l-49 4v37h237v-37l-40 -3q-17 -2 -25.5 -10.5t-13.5 -25.5l-161 -649h-96l-153 516l-162 -516h-88l-170 649q-5 17 -13 25.5t-25 10.5l-40 3v37h287v-37l-49 -4q-21 -2 -27 -10t-1 -25
l106 -471l164 547h79z" />
    <glyph glyph-name="wgrave" unicode="&#x1e81;" horiz-adv-x="790" 
d="M380 603l-168 142h131l94 -142h-57zM562 157l74 281q5 17 6.5 25t1.5 17t-5 13t-15 5l-37 3v37h208v-37l-31 -2q-16 -1 -28.5 -14t-23.5 -45l-134 -442h-71l-118 387l-119 -387h-71l-140 468q-8 31 -27 32l-37 3v37h248v-37l-38 -3q-18 -2 -22.5 -9t0.5 -24l75 -307
l117 380h72z" />
    <glyph glyph-name="Wacute" unicode="&#x1e82;" horiz-adv-x="997" 
d="M737 890l-176 -117h-72l103 117h145zM564 725l163 -550l107 474q7 31 -30 35l-49 4v37h237v-37l-40 -3q-17 -2 -25.5 -10.5t-13.5 -25.5l-161 -649h-96l-153 516l-162 -516h-88l-170 649q-5 17 -13 25.5t-25 10.5l-40 3v37h287v-37l-49 -4q-21 -2 -27 -10t-1 -25
l106 -471l164 547h79z" />
    <glyph glyph-name="wacute" unicode="&#x1e83;" horiz-adv-x="790" 
d="M608 745l-168 -142h-57l93 142h132zM562 157l74 281q5 17 6.5 25t1.5 17t-5 13t-15 5l-37 3v37h208v-37l-31 -2q-16 -1 -28.5 -14t-23.5 -45l-134 -442h-71l-118 387l-119 -387h-71l-140 468q-8 31 -27 32l-37 3v37h248v-37l-38 -3q-18 -2 -22.5 -9t0.5 -24l75 -307
l117 380h72z" />
    <glyph glyph-name="Wdieresis" unicode="&#x1e84;" horiz-adv-x="997" 
d="M578 773v117h117v-117h-117zM350 773v117h117v-117h-117zM564 725l163 -550l107 474q7 31 -30 35l-49 4v37h237v-37l-40 -3q-17 -2 -25.5 -10.5t-13.5 -25.5l-161 -649h-96l-153 516l-162 -516h-88l-170 649q-5 17 -13 25.5t-25 10.5l-40 3v37h287v-37l-49 -4
q-21 -2 -27 -10t-1 -25l106 -471l164 547h79z" />
    <glyph glyph-name="wdieresis" unicode="&#x1e85;" horiz-adv-x="790" 
d="M468 610v135h112v-135h-112zM235 610v135h112v-135h-112zM562 157l74 281q5 17 6.5 25t1.5 17t-5 13t-15 5l-37 3v37h208v-37l-31 -2q-16 -1 -28.5 -14t-23.5 -45l-134 -442h-71l-118 387l-119 -387h-71l-140 468q-8 31 -27 32l-37 3v37h248v-37l-38 -3q-18 -2 -22.5 -9
t0.5 -24l75 -307l117 380h72z" />
    <glyph glyph-name="uni1EB8" unicode="&#x1eb8;" horiz-adv-x="703" 
d="M50 725h587v-222h-44l-9 66q-3 24 -6 39.5t-11 26.5t-14 16.5t-23.5 8t-30.5 3t-43 0.5h-201v-256h297v-65h-297v-280h213q36 0 50.5 1t32 5t23.5 14.5t11.5 27.5t9.5 46l9 66h44v-222h-598v38l49 5q18 1 24.5 9t6.5 24v573q0 16 -6.5 24.5t-24.5 10.5l-49 4v37z
M305 -188v135h117v-135h-117z" />
    <glyph glyph-name="uni1ECA" unicode="&#x1eca;" horiz-adv-x="385" 
d="M335 38v-38h-285v38l49 5q18 1 24.5 9t6.5 24v573q0 16 -6.5 24.5t-24.5 10.5l-49 4v37h285v-37l-49 -4q-18 -2 -24.5 -10.5t-6.5 -24.5v-573q0 -16 6.5 -24t24.5 -9zM132 -189v135h117v-135h-117z" />
    <glyph glyph-name="uni1ECB" unicode="&#x1ecb;" horiz-adv-x="334" 
d="M116 610v135h117v-135h-117zM234 538l-1 -133v-330q0 -19 6 -25.5t26 -8.5l42 -4v-37h-265v37l43 4q20 2 25.5 8.5t5.5 25.5v389q0 19 -5.5 24.5t-25.5 8.5l-43 4v37h192zM116 -189v135h117v-135h-117z" />
    <glyph glyph-name="uni1ECC" unicode="&#x1ecc;" horiz-adv-x="811" 
d="M406 -13q-162 0 -263 102.5t-101 275.5q0 172 101 274.5t263 102.5t262.5 -102.5t100.5 -274.5q0 -173 -100.5 -275.5t-262.5 -102.5zM636 365q0 145 -58 230t-172 85t-172.5 -85t-58.5 -230q0 -146 58.5 -231t172.5 -85t172 85t58 231zM342 -189v135h117v-135h-117z" />
    <glyph glyph-name="uni1ECD" unicode="&#x1ecd;" horiz-adv-x="611" 
d="M304 547q118 0 192.5 -76t74.5 -204q0 -127 -75 -203.5t-193 -76.5q-117 0 -190 76t-73 204q0 127 73.5 203.5t190.5 76.5zM304 46q63 0 101.5 54t38.5 167q0 114 -38 167.5t-102 53.5q-63 0 -100 -53.5t-37 -167.5q0 -113 37.5 -167t99.5 -54zM243 -189v135h117v-135
h-117z" />
    <glyph glyph-name="uni1EE4" unicode="&#x1ee4;" horiz-adv-x="794" 
d="M404 -13q-168 0 -239 73.5t-71 211.5v377q0 16 -6.5 24.5t-25.5 10.5l-49 4v37h286v-37l-49 -4q-18 -2 -24.5 -10.5t-6.5 -24.5v-372q0 -107 45 -160.5t144 -53.5q107 0 161 49.5t54 162.5v374q0 17 -6 25t-24 10l-49 4v37h235v-37l-49 -4q-18 -2 -24 -10t-6 -25v-369
q0 -136 -70 -214.5t-226 -78.5zM347 -189v135h117v-135h-117z" />
    <glyph glyph-name="uni1EE5" unicode="&#x1ee5;" horiz-adv-x="626" 
d="M410 -9l-4 94h-1q-51 -98 -164 -98q-157 0 -157 192v285q0 19 -5.5 24.5t-25.5 8.5l-43 4v37h192l-1 -136v-184q0 -86 20.5 -122.5t70.5 -36.5q54 0 83.5 41.5t29.5 109.5v254q0 19 -5.5 24.5t-25.5 8.5l-43 4v37h192l-1 -136v-318q0 -19 6 -25.5t26 -8.5l42 -4v-37z
M247 -189v135h117v-135h-117z" />
    <glyph glyph-name="Ygrave" unicode="&#x1ef2;" horiz-adv-x="690" 
d="M342 773l-176 117h145l103 -117h-72zM278 76v211l-205 362q-18 33 -44 36l-34 3v37h297v-37l-49 -4q-20 -2 -28 -12t-1 -23l159 -288l165 288q7 13 -1.5 23t-28.5 12l-49 4v37h236v-37l-32 -3q-26 -3 -46 -36l-214 -363v-210q0 -16 6.5 -24t25.5 -9l49 -5v-38h-286v38
l48 5q19 1 25.5 9t6.5 24z" />
    <glyph glyph-name="ygrave" unicode="&#x1ef3;" horiz-adv-x="561" 
d="M273 603l-168 142h131l94 -142h-57zM113 -189h-77v71h80q41 0 61 21.5t46 97.5l5 13l-169 452q-5 17 -13 23.5t-28 9.5l-23 2v37h255v-37l-45 -3q-18 -2 -23 -9t1 -24l111 -333l113 306q12 27 11 41.5t-23 17.5l-45 4v37h216v-37l-32 -2q-17 -1 -26 -11.5t-21 -39.5
l-179 -458q-44 -112 -78.5 -145.5t-116.5 -33.5z" />
    <glyph glyph-name="endash" unicode="&#x2013;" horiz-adv-x="488" 
d="M458 239h-428v77h428v-77z" />
    <glyph glyph-name="emdash" unicode="&#x2014;" horiz-adv-x="714" 
d="M684 239h-654v77h654v-77z" />
    <glyph glyph-name="quoteleft" unicode="&#x2018;" horiz-adv-x="272" 
d="M202 569v-132h-132v132l73 156h47l-44 -156h56z" />
    <glyph glyph-name="quoteright" unicode="&#x2019;" horiz-adv-x="272" 
d="M70 593v132h132v-132l-73 -156h-47l44 156h-56z" />
    <glyph glyph-name="quotesinglbase" unicode="&#x201a;" horiz-adv-x="285" 
d="M70 0v145h145v-155l-85 -175h-47l48 185h-61z" />
    <glyph glyph-name="quotedblleft" unicode="&#x201c;" horiz-adv-x="459" 
d="M202 569v-132h-132v132l73 156h47l-44 -156h56zM389 569v-132h-132v132l73 156h47l-44 -156h56z" />
    <glyph glyph-name="quotedblright" unicode="&#x201d;" horiz-adv-x="459" 
d="M257 593v132h132v-132l-73 -156h-47l43 156h-55zM70 593v132h132v-132l-73 -156h-47l44 156h-56z" />
    <glyph glyph-name="quotedblbase" unicode="&#x201e;" horiz-adv-x="497" 
d="M283 0v145h144v-155l-84 -175h-47l48 185h-61zM70 0v145h145v-155l-85 -175h-47l48 185h-61z" />
    <glyph glyph-name="dagger" unicode="&#x2020;" horiz-adv-x="547" 
d="M313 0h-80v421h-207v77h207v227h80v-227h208v-77h-208v-421z" />
    <glyph glyph-name="daggerdbl" unicode="&#x2021;" horiz-adv-x="547" 
d="M313 276h208v-76h-208v-200h-80v200h-207v76h207v164h-207v76h207v209h80v-209h208v-76h-208v-164z" />
    <glyph glyph-name="bullet" unicode="&#x2022;" horiz-adv-x="446" 
d="M40 283q0 74 52.5 127t126.5 53q79 0 133 -52.5t54 -127.5q0 -79 -54 -132.5t-133 -53.5q-74 0 -126.5 54t-52.5 132z" />
    <glyph glyph-name="ellipsis" unicode="&#x2026;" horiz-adv-x="754" 
d="M559 0v145h145v-145h-145zM304 0v145h146v-145h-146zM50 0v145h145v-145h-145z" />
    <glyph glyph-name="perthousand" unicode="&#x2030;" horiz-adv-x="1432" 
d="M48 527q0 100 51 154.5t126 54.5t126 -54.5t51 -154.5q0 -101 -51 -155.5t-126 -54.5t-126 54.5t-51 155.5zM291 0h-88l508 725h88zM132 527q0 -83 25 -127.5t68 -44.5t68 44.5t25 127.5t-25 128t-68 45t-68 -45t-25 -128zM1031 202q0 100 51 154.5t126 54.5t126 -54.5
t51 -154.5q0 -101 -51 -155.5t-126 -54.5t-126 54.5t-51 155.5zM600 202q0 100 51 154.5t126 54.5t126 -54.5t51 -154.5q0 -101 -51 -155.5t-126 -54.5t-126 54.5t-51 155.5zM1115 202q0 -83 25 -128t68 -45t68 45t25 128t-25 128t-68 45t-68 -45t-25 -128zM684 202
q0 -83 25 -128t68 -45t68 45t25 128t-25 128t-68 45t-68 -45t-25 -128z" />
    <glyph glyph-name="guilsinglleft" unicode="&#x2039;" horiz-adv-x="292" 
d="M209 38l-209 235l209 234h63l-141 -234l141 -235h-63z" />
    <glyph glyph-name="guilsinglright" unicode="&#x203a;" horiz-adv-x="292" 
d="M292 273l-208 -235h-64l141 235l-141 234h64z" />
    <glyph glyph-name="fraction" unicode="&#x2044;" horiz-adv-x="136" 
d="M-142 0h-88l508 725h88z" />
    <glyph glyph-name="zero.superior" unicode="&#x2070;" horiz-adv-x="440" 
d="M43 647q0 100 51 154.5t126 54.5t126 -54.5t51 -154.5t-51 -154.5t-126 -54.5t-126 54.5t-51 154.5zM127 647q0 -83 25 -127.5t68 -44.5t68 44.5t25 127.5t-25 128t-68 45t-68 -45t-25 -128z" />
    <glyph glyph-name="four.superior" unicode="&#x2074;" horiz-adv-x="411" 
d="M201 445v22l18 4q12 1 15.5 5t3.5 16v59h-211v42l222 253h65l-1 -104v-135h73v-56h-73v-59q0 -12 3.5 -16t16.5 -5l19 -4v-22h-151zM96 607h142v163z" />
    <glyph glyph-name="five.superior" unicode="&#x2075;" horiz-adv-x="379" 
d="M188 438q-63 0 -104.5 36.5t-43.5 88.5h70q0 -35 23 -61.5t55 -26.5q39 0 61 29.5t22 77.5t-24.5 72.5t-63.5 24.5q-27 0 -53 -19.5t-35 -51.5l-43 9l25 229h259l2 -60h-219l-13 -89q39 28 97 28q63 0 105 -35t42 -107q0 -64 -47 -104.5t-115 -40.5z" />
    <glyph glyph-name="six.superior" unicode="&#x2076;" horiz-adv-x="399" 
d="M211 820q-37 0 -61.5 -37.5t-28.5 -94.5q36 30 102 30q29 0 59.5 -11t58 -44.5t27.5 -83.5q0 -62 -46 -101.5t-116 -39.5q-82 0 -124 53.5t-42 140.5q0 107 49 165.5t127 58.5q55 0 95 -26t48 -81h-71q-8 71 -77 71zM207 679q-40 0 -62.5 -27t-22.5 -77q0 -48 23.5 -74
t60.5 -26q38 0 59.5 29t21.5 75q0 43 -21.5 71.5t-58.5 28.5z" />
    <glyph glyph-name="seven.superior" unicode="&#x2077;" horiz-adv-x="305" 
d="M5 785v61h299v-54q-4 -4 -28 -24.5t-30.5 -27t-27 -28.5t-27.5 -36t-21 -41t-19 -52.5t-9.5 -61.5t-3.5 -76h-85q-2 109 53 198t141 142h-242z" />
    <glyph glyph-name="eight.superior" unicode="&#x2078;" horiz-adv-x="413" 
d="M208 438q-75 0 -124 30.5t-49 85.5q0 37 31.5 61.5t72.5 35.5q-82 42 -82 105q0 44 43.5 72t110.5 28q65 0 106.5 -26t41.5 -68q0 -30 -27 -54.5t-67 -37.5l4 -2q52 -23 80 -48.5t28 -61.5q0 -53 -49.5 -86.5t-119.5 -33.5zM212 692l24 -10q23 11 38 32t15 43
q0 30 -23.5 46.5t-56.5 16.5q-76 0 -76 -55q0 -25 18.5 -40t60.5 -33zM208 475q43 0 67 17t24 46q0 31 -16.5 44t-77.5 39l-36 15q-59 -22 -59 -80q0 -41 26.5 -61t71.5 -20z" />
    <glyph glyph-name="nine.superior" unicode="&#x2079;" horiz-adv-x="399" 
d="M191 615q40 0 62.5 27.5t22.5 77.5q0 48 -23.5 74t-60.5 26q-39 0 -60 -29t-21 -75q0 -43 21 -72t59 -29zM186 475q37 0 62 37t30 94q-41 -31 -104 -31q-29 0 -59.5 11.5t-57.5 45t-27 83.5q0 62 46 101.5t116 39.5q82 0 124 -53.5t42 -140.5q0 -107 -49.5 -165.5
t-126.5 -58.5q-55 0 -95 26.5t-48 80.5h71q3 -34 23.5 -52t52.5 -18z" />
    <glyph glyph-name="plus.superior" unicode="&#x207a;" horiz-adv-x="368" 
d="M209 445h-51v127h-127v48h127v124h51v-124h127v-48h-127v-127z" />
    <glyph glyph-name="minus.superior" unicode="&#x207b;" horiz-adv-x="367" 
d="M31 620h305v-48h-305v48z" />
    <glyph glyph-name="equal.superior" unicode="&#x207c;" horiz-adv-x="350" 
d="M315 632h-281v48h281v-48zM315 519h-281v47h281v-47z" />
    <glyph glyph-name="parenleft.superior" unicode="&#x207d;" horiz-adv-x="180" 
d="M105 605q0 -137 62 -264h-41q-97 135 -97 260q0 120 97 256h41q-62 -123 -62 -252z" />
    <glyph glyph-name="parenright.superior" unicode="&#x207e;" horiz-adv-x="179" 
d="M73 605q0 125 -61 252h40q48 -69 73 -129t25 -127q0 -121 -98 -260h-40q61 131 61 264z" />
    <glyph glyph-name="n.superior" unicode="&#x207f;" horiz-adv-x="390" 
d="M193 467v-22h-162v22l24 4q12 1 15.5 5t3.5 16v205q0 12 -3.5 15t-15.5 4l-24 2v23h118v-45q29 50 88 50q51 0 71 -29.5t20 -81.5v-143q0 -12 3.5 -16t15.5 -5l24 -4v-22h-162v22l24 4q12 1 15.5 5t3.5 16v115q0 52 -10 72.5t-36 20.5q-56 0 -56 -73v-135q0 -12 3.5 -16
t15.5 -5z" />
    <glyph glyph-name="zero.inferior" unicode="&#x2080;" horiz-adv-x="440" 
d="M43 71q0 100 51 154.5t126 54.5t126 -54.5t51 -154.5q0 -101 -51 -155.5t-126 -54.5t-126 54.5t-51 155.5zM127 71q0 -83 25 -128t68 -45t68 45t25 128t-25 127.5t-68 44.5t-68 -44.5t-25 -127.5z" />
    <glyph glyph-name="one.inferior" unicode="&#x2081;" horiz-adv-x="249" 
d="M221 -131h-169v20l39 4q18 1 18 22v275h-90v28q50 2 78.5 12.5t50.5 35.5h35v-351q0 -11 3 -16.5t15 -6.5l20 -3v-20z" />
    <glyph glyph-name="two.inferior" unicode="&#x2082;" horiz-adv-x="364" 
d="M85 -69h245v-62h-316v67q145 93 192.5 140t47.5 99q0 30 -19 49t-51 19q-45 0 -65.5 -31t-17.5 -83h-72q-4 71 42 111t117 40q66 0 104.5 -26t38.5 -80q0 -29 -15.5 -56.5t-58.5 -63t-62.5 -49.5t-84.5 -57q-17 -11 -25 -17z" />
    <glyph glyph-name="three.inferior" unicode="&#x2083;" horiz-adv-x="377" 
d="M184 -139q-67 0 -112.5 36.5t-48.5 93.5h70q0 -39 26 -66t66 -27q37 0 60 20.5t23 59.5q0 76 -112 76h-13v43h7q46 0 77.5 19t31.5 58q0 31 -21 50t-54 19q-38 0 -62.5 -23.5t-24.5 -62.5h-71q3 53 48.5 88t110.5 35q60 0 106 -25.5t46 -72.5q0 -67 -74 -98v-1
q85 -25 85 -100q0 -61 -46 -91.5t-118 -30.5z" />
    <glyph glyph-name="four.inferior" unicode="&#x2084;" horiz-adv-x="411" 
d="M201 -131v22l18 3q12 1 15.5 5t3.5 17v59h-211v41l222 254h65l-1 -104v-135h73v-56h-73v-59q0 -13 3.5 -17t16.5 -5l19 -3v-22h-151zM96 31h142v162z" />
    <glyph glyph-name="five.inferior" unicode="&#x2085;" horiz-adv-x="379" 
d="M188 -139q-63 0 -104.5 36.5t-43.5 89.5h70q0 -35 23 -62t55 -27q39 0 61 29.5t22 77.5t-24.5 73t-63.5 25q-27 0 -53 -19.5t-35 -51.5l-43 8l25 230h259l2 -60h-219l-13 -90q37 28 97 28q63 0 105 -35t42 -106q0 -65 -47 -105.5t-115 -40.5z" />
    <glyph glyph-name="six.inferior" unicode="&#x2086;" horiz-adv-x="399" 
d="M211 243q-37 0 -61.5 -37t-28.5 -95q37 31 102 31q20 0 43 -7t47 -22t39.5 -44t15.5 -67q0 -62 -46 -101.5t-116 -39.5q-82 0 -124 53.5t-42 141.5q0 106 49 165t127 59q54 0 94.5 -26.5t48.5 -80.5h-71q-8 70 -77 70zM207 103q-40 0 -62.5 -27t-22.5 -77
q0 -48 23.5 -74.5t60.5 -26.5q38 0 59.5 29t21.5 75q0 43 -21 72t-59 29z" />
    <glyph glyph-name="seven.inferior" unicode="&#x2087;" horiz-adv-x="305" 
d="M5 209v61h299v-55q-3 -2 -28 -23.5t-30.5 -27.5t-26.5 -28.5t-28 -36l-21 -40.5t-19 -52.5t-9.5 -61.5t-3.5 -76h-85q-2 109 53 197.5t141 142.5h-242z" />
    <glyph glyph-name="eight.inferior" unicode="&#x2088;" horiz-adv-x="413" 
d="M208 -139q-75 0 -124 31t-49 85q0 38 31.5 62.5t72.5 34.5q-82 41 -82 105q0 45 43.5 73t110.5 28q64 0 106 -26t42 -68q0 -30 -26.5 -54t-66.5 -39l3 -1q53 -24 80.5 -49t27.5 -62q0 -53 -49.5 -86.5t-119.5 -33.5zM212 116l25 -11q22 12 37 32.5t15 42.5q0 31 -23.5 47
t-56.5 16q-76 0 -76 -54q0 -25 19.5 -40.5t59.5 -32.5zM208 -102q43 0 67 17t24 47t-16.5 43t-77.5 40l-36 15q-59 -22 -59 -81q0 -40 26.5 -60.5t71.5 -20.5z" />
    <glyph glyph-name="nine.inferior" unicode="&#x2089;" horiz-adv-x="399" 
d="M191 38q40 0 62.5 27.5t22.5 77.5q0 48 -23.5 74t-60.5 26q-39 0 -60 -28.5t-21 -74.5q0 -44 21 -73t59 -29zM186 -102q37 0 62 37t30 94q-42 -30 -104 -30q-29 0 -59.5 11.5t-57.5 45t-27 83.5q0 62 46 101.5t116 39.5q82 0 124 -53.5t42 -141.5q0 -106 -49.5 -165
t-126.5 -59q-55 0 -95 26.5t-48 80.5h71q3 -34 23.5 -52t52.5 -18z" />
    <glyph glyph-name="parenleft.inferior" unicode="&#x208d;" horiz-adv-x="180" 
d="M105 28q0 -137 62 -264h-41q-97 135 -97 260q0 121 97 257h41q-62 -123 -62 -253z" />
    <glyph glyph-name="parenright.inferior" unicode="&#x208e;" horiz-adv-x="179" 
d="M73 28q0 126 -61 253h40q98 -140 98 -257q0 -121 -98 -260h-40q61 131 61 264z" />
    <glyph glyph-name="Euro" unicode="&#x20ac;" horiz-adv-x="825" 
d="M765 231q-27 -120 -105.5 -182t-195.5 -62q-133 0 -216 73.5t-106 205.5h-142l40 64h95q-1 11 -1 35q0 18 2 52h-136l40 63h105q26 125 107.5 193.5t211.5 68.5q117 0 195 -62t105 -182l-114 -1q-20 187 -186 187q-168 0 -199 -204h261l-40 -63h-228q-1 -17 -1 -52
q0 -24 1 -35h186l-40 -64h-141q30 -220 201 -220q84 0 131 50t56 137z" />
    <glyph glyph-name="afii61289" unicode="&#x2113;" horiz-adv-x="403" 
d="M240 -13q-70 0 -97.5 37t-27.5 117v77l-82 -62l-33 48l115 88v260q0 95 31 140.5t103 45.5q60 0 92 -42.5t32 -113.5q0 -167 -182 -306l-13 -10v-125q0 -54 14 -76t53 -22q52 0 93 41l34 -43q-59 -54 -132 -54zM178 551v-210l20 15q54 41 82 100.5t28 122.5
q0 103 -66 103q-35 0 -49.5 -29.5t-14.5 -101.5z" />
    <glyph glyph-name="afii61352" unicode="&#x2116;" horiz-adv-x="1144" 
d="M958 746q69 0 111 -41.5t42 -112.5t-42.5 -112.5t-111.5 -41.5q-68 0 -109 42t-41 114q0 71 41.5 111.5t109.5 40.5zM958 475q70 0 70 118q0 117 -70 117q-68 0 -68 -117q0 -118 68 -118zM705 649v-649h-66l-436 563v-487q0 -16 6 -24t24 -9l50 -5v-38h-233v38l49 5
q18 1 24.5 9t6.5 24v573q0 16 -6.5 24.5t-24.5 10.5l-49 4v37h183l399 -518v442q0 16 -6 24t-25 9l-49 5v38h233v-38l-49 -5q-19 -1 -25 -9t-6 -24zM1109 326h-298v61h298v-61z" />
    <glyph glyph-name="uni2117" unicode="&#x2117;" horiz-adv-x="830" 
d="M40 361q0 164 108.5 270t267.5 106q157 0 265.5 -106t108.5 -270t-108.5 -269t-265.5 -105q-159 0 -267.5 105t-108.5 269zM109 361q0 -138 88 -225.5t219 -87.5q132 0 218.5 87.5t86.5 225.5q0 139 -86.5 226.5t-218.5 87.5t-219.5 -87.5t-87.5 -226.5zM429 329h-72
v-153h-73v397h122q96 0 141 -25t45 -97q0 -53 -41 -87.5t-122 -34.5zM519 450q0 34 -25 47.5t-71 13.5h-66v-122h71q91 0 91 61z" />
    <glyph glyph-name="trademark" unicode="&#x2122;" horiz-adv-x="857" 
d="M140 320v342h-129v63h331v-63h-130v-342h-72zM644 320h-77l-115 321v-321h-72v405h118l110 -317l106 317h117v-405h-72v321z" />
    <glyph glyph-name="estimated" unicode="&#x212e;" horiz-adv-x="584" 
d="M142 461v-160h298v159q-55 53 -147 53q-101 0 -151 -52zM544 150q-27 -73 -88.5 -118t-156.5 -45q-130 0 -202 79t-72 202t74 201t195 78q122 0 192 -80t72 -198h-416v-193q24 -24 69.5 -39.5t95.5 -15.5q71 0 121 34t75 95h41z" />
    <glyph glyph-name="onethird" unicode="&#x2153;" horiz-adv-x="1032" 
d="M319 325h-169v20l39 4q18 1 18 22v278h-90v28q50 2 78.5 12.5t50.5 35.5h35v-354q0 -11 3 -16.5t15 -6.5l20 -3v-20zM306 0h-88l508 725h88zM806 -8q-67 0 -112.5 36.5t-48.5 93.5h70q0 -39 26 -66t66 -27q37 0 60 20.5t23 59.5q0 76 -112 76h-13v43h7q46 0 77.5 19
t31.5 58q0 31 -21 50.5t-54 19.5q-38 0 -62.5 -24t-24.5 -63h-71q3 53 48.5 88t110.5 35q60 0 106 -25.5t46 -72.5q0 -67 -74 -98v-1q85 -25 85 -100q0 -61 -46 -91.5t-118 -30.5z" />
    <glyph glyph-name="twothirds" unicode="&#x2154;" horiz-adv-x="1032" 
d="M136 387h245v-62h-316v67q145 93 192.5 140t47.5 99q0 30 -19 49.5t-51 19.5q-45 0 -65.5 -31.5t-17.5 -83.5h-72q-4 71 42 111t117 40q66 0 104.5 -26t38.5 -80q0 -29 -15.5 -56.5t-58.5 -63t-62.5 -49.5t-84.5 -57q-8 -6 -13.5 -9.5t-11.5 -7.5zM306 0h-88l508 725h88z
M806 -8q-67 0 -112.5 36.5t-48.5 93.5h70q0 -39 26 -66t66 -27q37 0 60 20.5t23 59.5q0 76 -112 76h-13v43h7q46 0 77.5 19t31.5 58q0 31 -21 50.5t-54 19.5q-38 0 -62.5 -24t-24.5 -63h-71q3 53 48.5 88t110.5 35q60 0 106 -25.5t46 -72.5q0 -67 -74 -98v-1q85 -25 85 -100
q0 -61 -46 -91.5t-118 -30.5z" />
    <glyph glyph-name="uni2155" unicode="&#x2155;" horiz-adv-x="1032" 
d="M319 325h-169v20l39 4q18 1 18 22v278h-90v28q50 2 78.5 12.5t50.5 35.5h35v-354q0 -11 3 -16.5t15 -6.5l20 -3v-20zM306 0h-88l508 725h88zM800 -8q-63 0 -104.5 36.5t-43.5 89.5h70q0 -35 23 -62t55 -27q39 0 61 29.5t22 77.5t-24.5 73t-63.5 25q-27 0 -53 -19.5
t-35 -51.5l-43 8l25 230h259l2 -60h-219l-13 -90q38 29 97 29q63 0 105 -35.5t42 -106.5q0 -65 -47 -105.5t-115 -40.5z" />
    <glyph glyph-name="uni2156" unicode="&#x2156;" horiz-adv-x="1032" 
d="M136 387h245v-62h-316v67q145 93 192.5 140t47.5 99q0 30 -19 49.5t-51 19.5q-45 0 -65.5 -31.5t-17.5 -83.5h-72q-4 71 42 111t117 40q66 0 104.5 -26t38.5 -80q0 -29 -15.5 -56.5t-58.5 -63t-62.5 -49.5t-84.5 -57q-8 -6 -13.5 -9.5t-11.5 -7.5zM306 0h-88l508 725h88z
M800 -8q-63 0 -104.5 36.5t-43.5 89.5h70q0 -35 23 -62t55 -27q39 0 61 29.5t22 77.5t-24.5 73t-63.5 25q-27 0 -53 -19.5t-35 -51.5l-43 8l25 230h259l2 -60h-219l-13 -90q38 29 97 29q63 0 105 -35.5t42 -106.5q0 -65 -47 -105.5t-115 -40.5z" />
    <glyph glyph-name="uni2157" unicode="&#x2157;" horiz-adv-x="1032" 
d="M306 0h-88l508 725h88zM222 317q-67 0 -112.5 36.5t-48.5 93.5h70q0 -39 26 -65.5t66 -26.5q37 0 60 20t23 59q0 76 -112 76h-13v43h7q46 0 77.5 19t31.5 58q0 31 -21 50.5t-54 19.5q-38 0 -62.5 -24t-24.5 -63h-71q3 53 48.5 88t110.5 35q60 0 106 -25.5t46 -72.5
q0 -67 -74 -98v-1q85 -25 85 -100q0 -61 -46 -91.5t-118 -30.5zM800 -8q-63 0 -104.5 36.5t-43.5 89.5h70q0 -35 23 -62t55 -27q39 0 61 29.5t22 77.5t-24.5 73t-63.5 25q-27 0 -53 -19.5t-35 -51.5l-43 8l25 230h259l2 -60h-219l-13 -90q38 29 97 29q63 0 105 -35.5
t42 -106.5q0 -65 -47 -105.5t-115 -40.5z" />
    <glyph glyph-name="uni2158" unicode="&#x2158;" horiz-adv-x="1032" 
d="M219 325v22l18 3q12 1 15.5 5t3.5 17v59h-211v41l222 253h65l-1 -104v-134h73v-56h-73v-59q0 -13 3.5 -17t16.5 -5l19 -3v-22h-151zM306 0h-88l508 725h88zM114 487h142v161zM800 -8q-63 0 -104.5 36.5t-43.5 89.5h70q0 -35 23 -62t55 -27q39 0 61 29.5t22 77.5t-24.5 73
t-63.5 25q-27 0 -53 -19.5t-35 -51.5l-43 8l25 230h259l2 -60h-219l-13 -90q38 29 97 29q63 0 105 -35.5t42 -106.5q0 -65 -47 -105.5t-115 -40.5z" />
    <glyph glyph-name="uni2159" unicode="&#x2159;" horiz-adv-x="1032" 
d="M319 325h-169v20l39 4q18 1 18 22v278h-90v28q50 2 78.5 12.5t50.5 35.5h35v-354q0 -11 3 -16.5t15 -6.5l20 -3v-20zM306 0h-88l508 725h88zM815 375q-37 0 -61.5 -37.5t-28.5 -95.5q37 31 102 31q20 0 43 -7t47 -22t39.5 -44t15.5 -67q0 -62 -46 -101.5t-116 -39.5
q-82 0 -124 53.5t-42 141.5q0 106 49 165t127 59q54 0 94.5 -26.5t48.5 -80.5h-71q-4 34 -24 52.5t-53 18.5zM811 234q-40 0 -62.5 -27t-22.5 -77q0 -48 23.5 -74.5t60.5 -26.5q38 0 59.5 29t21.5 75q0 43 -21 72t-59 29z" />
    <glyph glyph-name="uni215A" unicode="&#x215a;" horiz-adv-x="1032" 
d="M306 0h-88l508 725h88zM216 317q-63 0 -104.5 36.5t-43.5 89.5h70q0 -35 23 -61.5t55 -26.5q40 0 61.5 29.5t21.5 77.5q0 47 -24.5 72t-63.5 25q-27 0 -53 -19.5t-35 -51.5l-43 8l25 229h259l2 -60h-219l-13 -89q38 29 97 29q63 0 105 -35.5t42 -106.5q0 -65 -47 -105.5
t-115 -40.5zM815 375q-37 0 -61.5 -37.5t-28.5 -95.5q37 31 102 31q20 0 43 -7t47 -22t39.5 -44t15.5 -67q0 -62 -46 -101.5t-116 -39.5q-82 0 -124 53.5t-42 141.5q0 106 49 165t127 59q54 0 94.5 -26.5t48.5 -80.5h-71q-4 34 -24 52.5t-53 18.5zM811 234q-40 0 -62.5 -27
t-22.5 -77q0 -48 23.5 -74.5t60.5 -26.5q38 0 59.5 29t21.5 75q0 43 -21 72t-59 29z" />
    <glyph glyph-name="oneeighth" unicode="&#x215b;" horiz-adv-x="1032" 
d="M319 325h-169v20l39 4q18 1 18 22v278h-90v28q50 2 78.5 12.5t50.5 35.5h35v-354q0 -11 3 -16.5t15 -6.5l20 -3v-20zM306 0h-88l508 725h88zM810 -8q-75 0 -124 31t-49 85q0 38 31.5 62.5t72.5 34.5q-82 41 -82 105q0 45 43.5 73t110.5 28q64 0 106 -26t42 -68
q0 -30 -26.5 -54t-66.5 -39l3 -1q53 -24 80.5 -49t27.5 -62q0 -53 -49.5 -86.5t-119.5 -33.5zM814 247l25 -11q22 12 37 32.5t15 42.5q0 31 -23.5 47.5t-56.5 16.5q-76 0 -76 -55q0 -25 19.5 -40.5t59.5 -32.5zM810 29q42 0 66.5 17.5t24.5 46.5q0 30 -16.5 43t-77.5 40
l-36 15q-59 -22 -59 -81q0 -40 26.5 -60.5t71.5 -20.5z" />
    <glyph glyph-name="threeeighths" unicode="&#x215c;" horiz-adv-x="1032" 
d="M306 0h-88l508 725h88zM222 317q-67 0 -112.5 36.5t-48.5 93.5h70q0 -39 26 -65.5t66 -26.5q37 0 60 20t23 59q0 76 -112 76h-13v43h7q46 0 77.5 19t31.5 58q0 31 -21 50.5t-54 19.5q-38 0 -62.5 -24t-24.5 -63h-71q3 53 48.5 88t110.5 35q60 0 106 -25.5t46 -72.5
q0 -67 -74 -98v-1q85 -25 85 -100q0 -61 -46 -91.5t-118 -30.5zM810 -8q-75 0 -124 31t-49 85q0 38 31.5 62.5t72.5 34.5q-82 41 -82 105q0 45 43.5 73t110.5 28q64 0 106 -26t42 -68q0 -30 -26.5 -54t-66.5 -39l3 -1q53 -24 80.5 -49t27.5 -62q0 -53 -49.5 -86.5
t-119.5 -33.5zM814 247l25 -11q22 12 37 32.5t15 42.5q0 31 -23.5 47.5t-56.5 16.5q-76 0 -76 -55q0 -25 19.5 -40.5t59.5 -32.5zM810 29q42 0 66.5 17.5t24.5 46.5q0 30 -16.5 43t-77.5 40l-36 15q-59 -22 -59 -81q0 -40 26.5 -60.5t71.5 -20.5z" />
    <glyph glyph-name="fiveeighths" unicode="&#x215d;" horiz-adv-x="1032" 
d="M306 0h-88l508 725h88zM216 317q-63 0 -104.5 36.5t-43.5 89.5h70q0 -35 23 -61.5t55 -26.5q40 0 61.5 29.5t21.5 77.5q0 47 -24.5 72t-63.5 25q-27 0 -53 -19.5t-35 -51.5l-43 8l25 229h259l2 -60h-219l-13 -89q38 29 97 29q63 0 105 -35.5t42 -106.5q0 -65 -47 -105.5
t-115 -40.5zM810 -8q-75 0 -124 31t-49 85q0 38 31.5 62.5t72.5 34.5q-82 41 -82 105q0 45 43.5 73t110.5 28q64 0 106 -26t42 -68q0 -30 -26.5 -54t-66.5 -39l3 -1q53 -24 80.5 -49t27.5 -62q0 -53 -49.5 -86.5t-119.5 -33.5zM814 247l25 -11q22 12 37 32.5t15 42.5
q0 31 -23.5 47.5t-56.5 16.5q-76 0 -76 -55q0 -25 19.5 -40.5t59.5 -32.5zM810 29q42 0 66.5 17.5t24.5 46.5q0 30 -16.5 43t-77.5 40l-36 15q-59 -22 -59 -81q0 -40 26.5 -60.5t71.5 -20.5z" />
    <glyph glyph-name="seveneighths" unicode="&#x215e;" horiz-adv-x="1032" 
d="M73 664v61h299v-55q-4 -3 -28 -23.5t-30.5 -27t-27 -28.5t-27.5 -35.5l-21 -40.5t-19 -52.5t-9.5 -61.5t-3.5 -76h-85q-2 109 53 197t141 142h-242zM306 0h-88l508 725h88zM810 -8q-75 0 -124 31t-49 85q0 38 31.5 62.5t72.5 34.5q-82 41 -82 105q0 45 43.5 73t110.5 28
q64 0 106 -26t42 -68q0 -30 -26.5 -54t-66.5 -39l3 -1q53 -24 80.5 -49t27.5 -62q0 -53 -49.5 -86.5t-119.5 -33.5zM814 247l25 -11q22 12 37 32.5t15 42.5q0 31 -23.5 47.5t-56.5 16.5q-76 0 -76 -55q0 -25 19.5 -40.5t59.5 -32.5zM810 29q42 0 66.5 17.5t24.5 46.5
q0 30 -16.5 43t-77.5 40l-36 15q-59 -22 -59 -81q0 -40 26.5 -60.5t71.5 -20.5z" />
    <glyph glyph-name="uni215F" unicode="&#x215f;" horiz-adv-x="584" 
d="M319 325h-169v20l39 4q18 1 18 22v278h-90v28q50 2 78.5 12.5t50.5 35.5h35v-354q0 -11 3 -16.5t15 -6.5l20 -3v-20zM306 0h-88l508 725h88z" />
    <glyph glyph-name="uni2190" unicode="&#x2190;" horiz-adv-x="800" 
d="M0 273l309 309l51 -54l-220 -216h640v-76h-642l222 -219l-51 -53z" />
    <glyph glyph-name="uni2191" unicode="&#x2191;" horiz-adv-x="800" 
d="M400 745l310 -309l-55 -52l-217 221v-605h-75v605l-217 -221l-55 52z" />
    <glyph glyph-name="uni2192" unicode="&#x2192;" horiz-adv-x="800" 
d="M468 582l311 -309l-311 -309l-50 53l222 219h-620v76h618l-220 216z" />
    <glyph glyph-name="uni2193" unicode="&#x2193;" horiz-adv-x="800" 
d="M401 -20l-310 309l55 52l217 -221v605h75v-605l217 221l55 -52z" />
    <glyph glyph-name="uni2196" unicode="&#x2196;" horiz-adv-x="800" 
d="M122 100v438h438v-72h-312l451 -452l-54 -53l-452 451v-312h-71z" />
    <glyph glyph-name="uni2197" unicode="&#x2197;" horiz-adv-x="800" 
d="M679 538v-438h-72v312l-452 -451l-54 53l451 452h-311v72h438z" />
    <glyph glyph-name="uni2198" unicode="&#x2198;" horiz-adv-x="800" 
d="M679 438v-438h-438v72h312l-451 452l54 53l452 -451v312h71z" />
    <glyph glyph-name="uni2199" unicode="&#x2199;" horiz-adv-x="800" 
d="M121 0v438h72v-312l452 451l54 -53l-451 -452h311v-72h-438z" />
    <glyph glyph-name="uni219E" unicode="&#x219e;" horiz-adv-x="800" 
d="M331 -36l-311 309l311 309l50 -54l-220 -216h140l271 270l51 -54l-219 -216h396v-76h-398l221 -219l-51 -53l-273 272h-140l222 -219z" />
    <glyph glyph-name="uni219F" unicode="&#x219f;" horiz-adv-x="800" 
d="M91 416l309 309l310 -309l-55 -52l-217 222v-141l272 -272l-55 -50l-217 221v-364h-75v365l-217 -222l-55 50l272 272v141l-217 -222z" />
    <glyph glyph-name="uni21A0" unicode="&#x21a0;" horiz-adv-x="800" 
d="M469 582l311 -309l-311 -309l-50 53l222 219h-140l-273 -272l-51 53l221 219h-398v76h396l-219 216l51 54l271 -270h140l-220 216z" />
    <glyph glyph-name="uni21A1" unicode="&#x21a1;" horiz-adv-x="800" 
d="M710 289l-310 -309l-309 309l55 52l217 -222v141l-272 272l55 50l217 -222v365h75v-364l217 221l55 -50l-272 -272v-141l217 222z" />
    <glyph glyph-name="uni21A2" unicode="&#x21a2;" horiz-adv-x="800" 
d="M20 273l309 309l51 -54l-220 -216h309l269 270l52 -54l-256 -255l256 -256l-52 -53l-272 272h-308l222 -219l-51 -53z" />
    <glyph glyph-name="uni21A3" unicode="&#x21a3;" horiz-adv-x="800" 
d="M780 273l-309 -309l-51 53l222 219h-308l-272 -272l-52 53l256 256l-256 255l52 54l269 -270h309l-220 216l51 54z" />
    <glyph glyph-name="uni21A4" unicode="&#x21a4;" horiz-adv-x="800" 
d="M750 0h-82v236h-509l222 -230l-52 -53l-309 315l309 314l52 -54l-220 -217h507v227h82v-538z" />
    <glyph glyph-name="uni21A5" unicode="&#x21a5;" horiz-adv-x="800" 
d="M400 745l310 -309l-55 -52l-217 222v-526h231v-80h-537v80h231v526l-217 -222l-55 52z" />
    <glyph glyph-name="uni21A6" unicode="&#x21a6;" horiz-adv-x="800" 
d="M132 236v-236h-82v538h82v-227h507l-220 217l52 54l309 -314l-309 -312l-52 53l222 227h-509z" />
    <glyph glyph-name="uni21A7" unicode="&#x21a7;" horiz-adv-x="800" 
d="M400 -20l-309 309l55 52l217 -222v526h-231v80h537v-80h-231v-526l217 222l55 -52z" />
    <glyph glyph-name="uni21B0" unicode="&#x21b0;" horiz-adv-x="800" 
d="M750 -188h-75v424h-537l222 -219l-51 -53l-309 309l309 309l51 -54l-220 -216h610v-500z" />
    <glyph glyph-name="uni21B1" unicode="&#x21b1;" horiz-adv-x="800" 
d="M125 -188h-75v499h609l-220 217l50 54l311 -309l-311 -309l-50 53l222 219h-536v-424z" />
    <glyph glyph-name="uni21B2" unicode="&#x21b2;" horiz-adv-x="800" 
d="M309 -36l-309 309l309 309l51 -54l-220 -216h535v433h75v-509h-612l222 -219z" />
    <glyph glyph-name="uni21B3" unicode="&#x21b3;" horiz-adv-x="800" 
d="M489 -36l-50 53l222 219h-611v509h75v-433h534l-220 216l50 54l311 -309z" />
    <glyph glyph-name="partialdiff" unicode="&#x2202;" horiz-adv-x="560" 
d="M524 311q0 -160 -68 -242t-183 -82q-110 0 -175 74.5t-65 204.5q0 128 65 203t168 75q102 0 157 -77l1 1q-29 85 -105.5 140.5t-168.5 59.5v74q168 -10 271 -129.5t103 -301.5zM274 57q71 0 117.5 53t46.5 156t-46.5 155.5t-117.5 52.5q-74 0 -115.5 -55.5t-41.5 -152.5
q0 -98 41.5 -153.5t115.5 -55.5z" />
    <glyph glyph-name="product" unicode="&#x220f;" horiz-adv-x="661" 
d="M149 -189h-81v914h525v-914h-81v839h-363v-839z" />
    <glyph glyph-name="summation" unicode="&#x2211;" horiz-adv-x="583" 
d="M26 -120l282 388l-282 388v69h531v-75h-436l281 -382l-281 -382h436v-75h-531v69z" />
    <glyph glyph-name="minus" unicode="&#x2212;" 
d="M72 312h534v-76h-534v76z" />
    <glyph glyph-name="radical" unicode="&#x221a;" horiz-adv-x="513" 
d="M0 227l142 65l158 -371l135 804h78l-158 -914h-87l-166 374l-68 -30z" />
    <glyph glyph-name="infinity" unicode="&#x221e;" horiz-adv-x="789" 
d="M590 90q-103 0 -196 108q-94 -108 -193 -108q-78 0 -126.5 45.5t-48.5 118.5t49 118.5t129 45.5q101 0 192 -104q47 55 91 79.5t99 24.5q78 0 127.5 -45.5t49.5 -118.5t-48 -118.5t-125 -45.5zM587 162q41 0 68.5 26t27.5 66t-27.5 66.5t-73.5 26.5q-38 0 -70.5 -23
t-69.5 -68q39 -47 73 -70.5t72 -23.5zM203 162q41 0 73 22t72 71q-38 47 -71 69.5t-74 22.5q-42 0 -69.5 -25.5t-27.5 -67.5q0 -39 27.5 -65.5t69.5 -26.5z" />
    <glyph glyph-name="integral" unicode="&#x222b;" horiz-adv-x="292" 
d="M108 144v339q0 137 36.5 195t105.5 58q35 0 58 -16t23 -45q0 -22 -12.5 -35.5t-33.5 -13.5q-20 0 -32 11.5t-12 29.5q0 20 8 29q-38 0 -51 -34t-13 -101q0 -20 1.5 -75t1.5 -92v-346q0 -132 -35.5 -188.5t-105.5 -56.5q-36 0 -58.5 16t-22.5 46q0 20 13 34t33 14t32 -12
t12 -30q0 -14 -8 -28q37 0 49.5 34t12.5 100q0 20 -1 75t-1 92z" />
    <glyph glyph-name="approxequal" unicode="&#x2248;" 
d="M454 378q29 0 48 18.5t22 52.5h76q-4 -66 -43.5 -104t-102.5 -38q-43 0 -119.5 35.5t-109.5 35.5q-29 0 -48 -18.5t-21 -52.5h-78q4 66 43.5 104t103.5 38q52 0 127.5 -35.5t101.5 -35.5zM454 191q29 0 48 18.5t22 52.5h76q-4 -66 -43.5 -104t-102.5 -38
q-43 0 -119.5 35.5t-109.5 35.5q-29 0 -48 -18.5t-21 -52.5h-78q4 66 43.5 104t103.5 38q52 0 127.5 -35.5t101.5 -35.5z" />
    <glyph glyph-name="notequal" unicode="&#x2260;" 
d="M586 138h-285l-94 -165l-65 36l74 129h-124v75h167l75 131h-242v75h285l83 144l65 -33l-63 -111h124v-75h-167l-75 -131h242v-75z" />
    <glyph glyph-name="lessequal" unicode="&#x2264;" 
d="M178 332l428 -133v-84l-535 182v70l535 184v-84zM69 0v75h540v-75h-540z" />
    <glyph glyph-name="greaterequal" unicode="&#x2265;" 
d="M500 332l-428 135v84l535 -184v-70l-535 -182v84zM609 0h-540v75h540v-75z" />
    <glyph glyph-name="uni25A0" unicode="&#x25a0;" horiz-adv-x="801" 
d="M133 0v538h535v-538h-535z" />
    <glyph glyph-name="uni25A1" unicode="&#x25a1;" horiz-adv-x="801" 
d="M133 0v538h535v-538h-535zM197 475v-411h408v411h-408z" />
    <glyph glyph-name="lozenge" unicode="&#x25ca;" horiz-adv-x="507" 
d="M6 348l249 424l246 -424l-246 -424zM255 626l-161 -278l161 -277l160 277z" />
    <glyph glyph-name="uni25CB" unicode="&#x25cb;" horiz-adv-x="801" 
d="M122 268q0 116 81.5 197.5t196.5 81.5q116 0 197.5 -81.5t81.5 -197.5t-82 -198.5t-197 -82.5t-196.5 82.5t-81.5 198.5zM400 48q89 0 151 63.5t62 156.5t-62 155.5t-151 62.5t-150.5 -62.5t-61.5 -155.5q0 -91 62 -155.5t150 -64.5z" />
    <glyph glyph-name="uni25CF" unicode="&#x25cf;" horiz-adv-x="801" 
d="M122 268q0 116 81.5 197.5t196.5 81.5q116 0 197.5 -81.5t81.5 -197.5t-82 -198.5t-197 -82.5t-196.5 82.5t-81.5 198.5z" />
    <glyph glyph-name="commaaccent" unicode="&#xf6c3;" horiz-adv-x="172" 
d="M33 -129v92h109v-98l-45 -93h-67l40 99h-37z" />
    <glyph glyph-name="fi" unicode="&#xfb01;" horiz-adv-x="754" 
d="M536 610v135h117v-135h-117zM340 38v-38h-298v37l43 4q20 2 25.5 8.5t5.5 25.5v399h-74v64h74v57q0 92 46.5 121t155.5 29h93v-70h-106q-42 0 -57 -14t-15 -51v-72h178v-64h-178v-398q0 -19 6 -25.5t26 -7.5zM654 538l-1 -133v-330q0 -19 6 -25.5t26 -8.5l42 -4v-37h-265
v37l43 4q20 2 25.5 8.5t5.5 25.5v389q0 19 -5.5 24.5t-25.5 8.5l-43 4v37h192z" />
    <glyph glyph-name="fl" unicode="&#xfb02;" horiz-adv-x="741" 
d="M449 745h192l-1 -137v-533q0 -19 6 -25.5t26 -8.5l42 -4v-37h-265v37l43 4q20 2 25.5 8.5t5.5 25.5v595q0 19 -5.5 25t-25.5 8l-43 5v37zM340 38v-38h-298v37l43 4q20 2 25.5 8.5t5.5 25.5v399h-74v64h74v57q0 92 46.5 121t155.5 29h93v-70h-106q-42 0 -57 -14t-15 -51
v-72h178v-64h-178v-398q0 -19 6 -25.5t26 -7.5z" />
    <glyph glyph-name="zero.slashed" horiz-adv-x="709" 
d="M50 365q0 179 85 278t220 99q134 0 219 -99t85 -278q0 -180 -84.5 -279t-219.5 -99t-220 99t-85 279zM177 365q0 -61 7 -106l333 261q-40 164 -162 164q-86 0 -132 -83t-46 -236zM355 46q85 0 131.5 83t46.5 236q0 51 -4 87l-331 -260q41 -146 157 -146z" />
    <glyph glyph-name="ampersand.case" horiz-adv-x="776" 
d="M651 -14l-127 125q-95 -122 -254 -122q-114 0 -186.5 61.5t-72.5 153.5q0 44 16 79t47 59.5t63.5 41t78.5 33.5q-41 42 -68 93t-27 88q0 55 35.5 92t81 50t96.5 13q83 0 141 -35t58 -103q0 -31 -14 -57.5t-42.5 -48.5t-53.5 -36.5t-64 -32.5l187 -183q47 73 61 114
q17 45 -12 52l-39 5v40h205v-40l-27 -2q-27 -2 -51 -53q-42 -85 -92 -161l145 -143zM335 464l3 -3q44 18 63.5 58.5t19.5 85.5q0 50 -23.5 75.5t-59.5 25.5q-41 0 -60 -24.5t-19 -56.5q0 -70 76 -161zM308 66q61 0 99.5 24.5t70.5 66.5l-236 234q-79 -43 -79 -175
q0 -70 39 -110t106 -40z" />
    <glyph glyph-name="hyphen.case" horiz-adv-x="321" 
d="M20 322v99h281v-99h-281z" />
    <glyph glyph-name="endash.case" horiz-adv-x="488" 
d="M458 334h-428v77h428v-77z" />
    <glyph glyph-name="emdash.case" horiz-adv-x="714" 
d="M684 334h-654v77h654v-77z" />
    <glyph glyph-name="question.case" horiz-adv-x="574" 
d="M415 603q0 37 -33 61t-96 24q-76 0 -122.5 -41.5t-41.5 -125.5h-115q-4 115 76 173.5t204 58.5q116 0 186.5 -43t70.5 -110q0 -39 -21 -72t-41.5 -48t-62 -39t-49.5 -29q-61 -38 -86 -70t-25 -92v-36h-67v40q0 57 6.5 95t24 65t36.5 43t55 39q3 2 19.5 12t23.5 14.5
t20.5 15t20 19t12 21t5.5 25.5zM148 0v156h154v-156h-154z" />
    <glyph glyph-name="questiondown.case" horiz-adv-x="574" 
d="M426 725v-156h-154v156h154zM159 122q0 -37 33 -61t96 -24q76 0 122.5 41.5t41.5 125.5h115q4 -115 -76 -173.5t-204 -58.5q-116 0 -186.5 43t-70.5 110q0 39 21 72t41.5 48t62 39t49.5 29q61 38 86 70t25 92v36h67v-40q0 -57 -6.5 -95t-24 -65t-36.5 -43t-55 -39
q-3 -2 -19.5 -12t-23.5 -14.5t-20.5 -15t-20 -19t-12 -21t-5.5 -25.5z" />
    <glyph glyph-name="exclam.case" horiz-adv-x="322" 
d="M82 725h153v-204l-50 -317h-52l-51 318v203zM83 0v156h156v-156h-156z" />
    <glyph glyph-name="exclamdown.case" horiz-adv-x="321" 
d="M238 725v-156h-156v156h156zM239 0h-153v204l50 317h52l51 -318v-203z" />
    <glyph glyph-name="guilsinglleft.case" horiz-adv-x="292" 
d="M209 133l-209 235l209 234h63l-141 -234l141 -235h-63z" />
    <glyph glyph-name="guilsinglright.case" horiz-adv-x="292" 
d="M292 368l-208 -235h-64l141 235l-141 234h64z" />
    <glyph glyph-name="guillemotleft.case" horiz-adv-x="510" 
d="M427 133l-209 235l209 234h63l-141 -234l141 -235h-63zM209 133l-209 235l209 234h63l-141 -234l141 -235h-63z" />
    <glyph glyph-name="guillemotright.case" horiz-adv-x="510" 
d="M292 368l-208 -235h-64l141 235l-141 234h64zM510 368l-208 -235h-64l141 235l-141 234h64z" />
    <glyph glyph-name="parenleft.case" horiz-adv-x="239" 
d="M156 362q0 -188 83 -362h-61q-41 52 -60.5 80t-44 74t-34 96t-9.5 112q0 63 9.5 112t34.5 96t43 73t61 82h61q-83 -166 -83 -363z" />
    <glyph glyph-name="parenright.case" horiz-adv-x="239" 
d="M0 0q83 174 83 362q0 197 -83 363h61q43 -56 61 -82t43 -73t34.5 -96t9.5 -112q0 -62 -9.5 -112t-34 -96t-44 -74t-60.5 -80h-61z" />
    <glyph glyph-name="bracketleft.case" horiz-adv-x="292" 
d="M68 0v725h210v-53h-85v-619h85v-53h-210z" />
    <glyph glyph-name="bracketright.case" horiz-adv-x="293" 
d="M225 725v-725h-211v53h86v619h-86v53h211z" />
    <glyph glyph-name="braceleft.case" horiz-adv-x="318" 
d="M257 0q-91 0 -129 28.5t-38 94.5v108q0 51 -16 82t-64 31v41q48 0 64 31t16 82v103q0 67 38 95.5t129 28.5h51v-53h-14q-45 0 -62 -21.5t-17 -62.5v-80q0 -70 -26 -100.5t-86 -41.5v-2q61 -12 86.5 -42t25.5 -99v-86q0 -40 17 -62t62 -22h14v-53h-51z" />
    <glyph glyph-name="braceright.case" horiz-adv-x="318" 
d="M61 0h-51v53h14q45 0 62 22t17 62v86q0 69 25.5 99t86.5 42v2q-60 11 -86 41.5t-26 100.5v80q0 41 -17 62.5t-62 21.5h-14v53h51q91 0 129 -28.5t38 -95.5v-103q0 -51 16 -82t64 -31v-41q-48 0 -64 -31t-16 -82v-108q0 -66 -38 -94.5t-129 -28.5z" />
    <glyph glyph-name="bar.case" horiz-adv-x="227" 
d="M151 0h-75v725h75v-725z" />
    <glyph glyph-name="brokenbar.case" horiz-adv-x="227" 
d="M76 725h75v-260h-75v260zM76 260h75v-260h-75v260z" />
    <glyph glyph-name="periodcentered.case" horiz-adv-x="285" 
d="M70 301v146h145v-146h-145z" />
    <glyph glyph-name="bullet.case" horiz-adv-x="446" 
d="M40 378q0 74 52.5 127t126.5 53q79 0 133 -52.5t54 -127.5q0 -79 -54 -132.5t-133 -53.5q-74 0 -126.5 54t-52.5 132z" />
    <glyph glyph-name="a.ss01" horiz-adv-x="644" 
d="M439 267q0 115 -40 163.5t-96 48.5q-64 0 -100 -58t-36 -154q0 -97 32.5 -154.5t95.5 -57.5q26 0 49.5 10t46 32t35.5 66t13 104zM435 -3l-4 93h-1q-25 -44 -69 -73.5t-103 -29.5q-96 0 -157 76.5t-61 202.5t67.5 203.5t170.5 77.5q109 0 169 -91h2l42 82h58l-2 -189
v-265q0 -20 6 -26.5t25 -7.5l43 -4v-37z" />
    <glyph glyph-name="aacute.ss01" horiz-adv-x="644" 
d="M462 745l-168 -142h-57l93 142h132zM439 267q0 115 -40 163.5t-96 48.5q-64 0 -100 -58t-36 -154q0 -97 32.5 -154.5t95.5 -57.5q26 0 49.5 10t46 32t35.5 66t13 104zM435 -3l-4 93h-1q-25 -44 -69 -73.5t-103 -29.5q-96 0 -157 76.5t-61 202.5t67.5 203.5t170.5 77.5
q109 0 169 -91h2l42 82h58l-2 -189v-265q0 -20 6 -26.5t25 -7.5l43 -4v-37z" />
    <glyph glyph-name="abreve.ss01" horiz-adv-x="644" 
d="M219 739q6 -87 86 -87q82 0 88 87h69q-6 -68 -45.5 -106t-112.5 -38q-70 0 -109 38.5t-45 105.5h69zM439 267q0 115 -40 163.5t-96 48.5q-64 0 -100 -58t-36 -154q0 -97 32.5 -154.5t95.5 -57.5q26 0 49.5 10t46 32t35.5 66t13 104zM435 -3l-4 93h-1q-25 -44 -69 -73.5
t-103 -29.5q-96 0 -157 76.5t-61 202.5t67.5 203.5t170.5 77.5q109 0 169 -91h2l42 82h58l-2 -189v-265q0 -20 6 -26.5t25 -7.5l43 -4v-37z" />
    <glyph glyph-name="acircumflex.ss01" horiz-adv-x="644" 
d="M351 745l137 -142h-60l-113 67l-115 -67h-60l142 142h69zM439 267q0 115 -40 163.5t-96 48.5q-64 0 -100 -58t-36 -154q0 -97 32.5 -154.5t95.5 -57.5q26 0 49.5 10t46 32t35.5 66t13 104zM435 -3l-4 93h-1q-25 -44 -69 -73.5t-103 -29.5q-96 0 -157 76.5t-61 202.5
t67.5 203.5t170.5 77.5q109 0 169 -91h2l42 82h58l-2 -189v-265q0 -20 6 -26.5t25 -7.5l43 -4v-37z" />
    <glyph glyph-name="adieresis.ss01" horiz-adv-x="644" 
d="M387 610v135h112v-135h-112zM154 610v135h112v-135h-112zM439 267q0 115 -40 163.5t-96 48.5q-64 0 -100 -58t-36 -154q0 -97 32.5 -154.5t95.5 -57.5q26 0 49.5 10t46 32t35.5 66t13 104zM435 -3l-4 93h-1q-25 -44 -69 -73.5t-103 -29.5q-96 0 -157 76.5t-61 202.5
t67.5 203.5t170.5 77.5q109 0 169 -91h2l42 82h58l-2 -189v-265q0 -20 6 -26.5t25 -7.5l43 -4v-37z" />
    <glyph glyph-name="agrave.ss01" horiz-adv-x="644" 
d="M322 603l-168 142h131l94 -142h-57zM439 267q0 115 -40 163.5t-96 48.5q-64 0 -100 -58t-36 -154q0 -97 32.5 -154.5t95.5 -57.5q26 0 49.5 10t46 32t35.5 66t13 104zM435 -3l-4 93h-1q-25 -44 -69 -73.5t-103 -29.5q-96 0 -157 76.5t-61 202.5t67.5 203.5t170.5 77.5
q109 0 169 -91h2l42 82h58l-2 -189v-265q0 -20 6 -26.5t25 -7.5l43 -4v-37z" />
    <glyph glyph-name="amacron.ss01" horiz-adv-x="644" 
d="M468 631h-289v71h289v-71zM439 267q0 115 -40 163.5t-96 48.5q-64 0 -100 -58t-36 -154q0 -97 32.5 -154.5t95.5 -57.5q26 0 49.5 10t46 32t35.5 66t13 104zM435 -3l-4 93h-1q-25 -44 -69 -73.5t-103 -29.5q-96 0 -157 76.5t-61 202.5t67.5 203.5t170.5 77.5
q109 0 169 -91h2l42 82h58l-2 -189v-265q0 -20 6 -26.5t25 -7.5l43 -4v-37z" />
    <glyph glyph-name="aogonek.ss01" horiz-adv-x="644" 
d="M440 -3l-9 93h-1q-25 -44 -69 -73.5t-103 -29.5q-96 0 -157 77t-61 203t67.5 203t170.5 77q109 0 169 -91h2l42 82h58l-2 -189v-265q0 -20 6 -26.5t25 -7.5l43 -4v-37l-65 -5q-40 -20 -65 -45.5t-25 -49.5q0 -27 21 -39.5t50 -12.5q31 0 51 9v-44q-26 -12 -76 -12
q-51 0 -90 21.5t-39 68.5q0 56 57 97zM439 268q0 115 -40 163t-96 48q-64 0 -100 -57.5t-36 -153.5q0 -97 32.5 -155t95.5 -58q58 0 101 49t43 164z" />
    <glyph glyph-name="aring.ss01" horiz-adv-x="644" 
d="M215 676q0 38 27.5 63t66.5 25t66.5 -25t27.5 -63t-27.5 -63.5t-66.5 -25.5q-40 0 -67 25.5t-27 63.5zM354 676q0 18 -13.5 31.5t-31.5 13.5t-31.5 -13.5t-13.5 -31.5q0 -19 13.5 -31.5t31.5 -12.5t31.5 12.5t13.5 31.5zM439 267q0 115 -40 163.5t-96 48.5
q-64 0 -100 -58t-36 -154q0 -97 32.5 -154.5t95.5 -57.5q26 0 49.5 10t46 32t35.5 66t13 104zM435 -3l-4 93h-1q-25 -44 -69 -73.5t-103 -29.5q-96 0 -157 76.5t-61 202.5t67.5 203.5t170.5 77.5q109 0 169 -91h2l42 82h58l-2 -189v-265q0 -20 6 -26.5t25 -7.5l43 -4v-37z
" />
    <glyph glyph-name="atilde.ss01" horiz-adv-x="644" 
d="M363 679q40 0 46 47h62q-18 -119 -104 -119q-32 0 -75.5 24t-58.5 24q-37 0 -46 -48h-60q13 119 105 119q31 0 73 -23.5t58 -23.5zM439 267q0 115 -40 163.5t-96 48.5q-64 0 -100 -58t-36 -154q0 -97 32.5 -154.5t95.5 -57.5q26 0 49.5 10t46 32t35.5 66t13 104zM435 -3
l-4 93h-1q-25 -44 -69 -73.5t-103 -29.5q-96 0 -157 76.5t-61 202.5t67.5 203.5t170.5 77.5q109 0 169 -91h2l42 82h58l-2 -189v-265q0 -20 6 -26.5t25 -7.5l43 -4v-37z" />
    <glyph glyph-name="germandbls.ss03" horiz-adv-x="704" 
d="M103 519q0 119 67.5 176.5t191.5 57.5q120 0 181 -46t61 -126q0 -64 -37.5 -103.5t-93.5 -53.5v-4q76 -6 132.5 -61t56.5 -142q0 -109 -72 -169.5t-190 -60.5q-72 0 -138 11v90h3q75 -42 133 -42q65 0 102 40.5t37 126.5q0 81 -53.5 124.5t-148.5 43.5h-31v64h22
q156 0 156 129q0 120 -125 120q-72 0 -104.5 -41.5t-32.5 -136.5v-628q0 -20 6 -26t26 -8l69 -5v-38h-292v37l43 5q20 2 25.5 8t5.5 25v633z" />
    <glyph glyph-name="one.pof" horiz-adv-x="366" 
d="M275 478v-406q0 -17 5.5 -25t24.5 -11l34 -4v-32h-274v32l63 6q18 2 24 10t6 24v451h-145v46q80 2 127 19.5t81 57.5h56z" />
    <glyph glyph-name="two.pof" horiz-adv-x="552" 
d="M120 100h397v-100h-513v106q235 154 313 231t78 160q0 50 -31.5 81.5t-83.5 31.5q-75 0 -108 -51t-26 -136h-118q-5 116 68.5 180.5t189.5 64.5q108 0 170.5 -42.5t62.5 -130.5q0 -47 -29.5 -95t-87 -97t-113.5 -89t-135 -92q-23 -15 -34 -22z" />
    <glyph glyph-name="three.pof" horiz-adv-x="574" 
d="M278 -12q-108 0 -181 58.5t-79 151.5h113q0 -63 42.5 -106.5t105.5 -43.5q61 0 99 32.5t38 95.5q0 125 -181 125h-23v69h12q76 0 127.5 32t51.5 96q0 50 -35 81t-89 31q-62 0 -101.5 -38.5t-39.5 -102.5h-114q4 87 77.5 143t178.5 56q98 0 172.5 -41.5t74.5 -117.5
q0 -57 -29.5 -95.5t-91.5 -63.5v-1q71 -21 105.5 -61t34.5 -104q0 -98 -75.5 -147t-192.5 -49z" />
    <glyph glyph-name="four.pof" horiz-adv-x="629" 
d="M304 0v35l32 4q20 3 25.5 9.5t5.5 27.5v97h-344v66l360 414h107l-2 -171v-219h120v-90h-120v-97q0 -21 5.5 -28t24.5 -9l34 -4v-35h-248zM135 263h232v266z" />
    <glyph glyph-name="five.pof" horiz-adv-x="577" 
d="M287 -12q-104 0 -171 58.5t-71 143.5h113q0 -56 37 -99t92 -43q64 0 100 48t36 125q0 78 -40.5 119t-103.5 41q-45 0 -87 -32t-58 -85l-68 14l40 375h420l2 -99h-355l-22 -148q65 49 158 49q104 0 172 -57t68 -174q0 -106 -76.5 -171t-185.5 -65z" />
    <glyph glyph-name="six.pof" horiz-adv-x="608" 
d="M325 610q-63 0 -103 -61.5t-47 -156.5q63 52 167 52q34 0 71.5 -11.5t76 -36t63 -71.5t24.5 -109q0 -99 -75 -163.5t-187 -64.5q-133 0 -201.5 86.5t-68.5 228.5q0 173 80.5 269t204.5 96q89 0 154.5 -42.5t79.5 -129.5h-114q-6 54 -39 84t-86 30zM318 382
q-66 0 -103.5 -45.5t-37.5 -126.5q0 -78 39 -120t99 -42q62 0 96.5 46.5t34.5 120.5q0 71 -34 119t-94 48z" />
    <glyph glyph-name="seven.pof" horiz-adv-x="458" 
d="M-10 554v99h486v-90q-8 -7 -36.5 -31.5t-39.5 -34t-37 -35t-38 -41.5t-33 -45.5t-31 -54.5t-23.5 -62t-19.5 -74.5t-10 -85t-3 -99.5h-137q-4 178 86.5 322.5t231.5 231.5h-396z" />
    <glyph glyph-name="eight.pof" horiz-adv-x="630" 
d="M317 -12q-121 0 -200 50t-79 138q0 61 51.5 101t117.5 57q-134 68 -134 170q0 73 70.5 118.5t177.5 45.5q106 0 174 -42t68 -112q0 -49 -44.5 -88.5t-110.5 -61.5l8 -3q86 -37 131 -77.5t45 -99.5q0 -87 -79.5 -141.5t-195.5 -54.5zM324 402l41 -18q38 18 62.5 52.5
t24.5 71.5q0 49 -39 75.5t-93 26.5q-57 0 -91 -22.5t-34 -67.5q0 -40 31 -64.5t98 -53.5zM317 48q71 0 110.5 27t39.5 75t-25.5 70t-109.5 61q-12 5 -18 8l-58 23q-51 -19 -74 -56.5t-23 -78.5q0 -64 42 -96.5t116 -32.5z" />
    <glyph glyph-name="nine.pof" horiz-adv-x="608" 
d="M290 275q66 0 102.5 45t36.5 126q0 78 -38.5 121t-97.5 43q-63 0 -98.5 -47.5t-35.5 -122.5q0 -71 35 -118t96 -47zM283 48q62 0 102.5 61t47.5 155q-69 -52 -169 -52q-26 0 -55 6.5t-61.5 23.5t-58 42t-42 65.5t-16.5 89.5q0 101 74 165t188 64q132 0 201 -87t69 -228
q0 -174 -80.5 -269.5t-207.5 -95.5q-88 0 -152.5 43t-79.5 130h114q7 -55 39.5 -84t86.5 -29z" />
    <glyph glyph-name="zero.pof" horiz-adv-x="672" 
d="M50 329q0 162 83 250.5t204 88.5t203 -88.5t82 -250.5q0 -163 -82 -252t-203 -89t-204 89t-83 252zM185 329q0 -135 40.5 -208t111.5 -73t112.5 73.5t41.5 207.5t-41.5 207.5t-112.5 73.5t-111.5 -73t-40.5 -208z" />
    <glyph glyph-name="zero.slashed.pof" horiz-adv-x="672" 
d="M50 329q0 162 83 250.5t204 88.5t203 -88.5t82 -250.5q0 -163 -82 -252t-203 -89t-204 89t-83 252zM460 478l16 -10q-18 69 -54 105.5t-85 36.5q-71 0 -111.5 -73t-40.5 -208q0 -46 4 -78zM337 48q71 0 112.5 73.5t41.5 207.5q0 50 -6 92l-283 -240q37 -133 135 -133z
" />
    <glyph glyph-name="one.tlf" 
d="M424 539v-466q0 -17 6.5 -24t25.5 -10l43 -4v-35h-296v35l76 5q19 2 25 9t6 24v521h-164v44q96 4 144.5 23t85.5 64h50z" />
    <glyph glyph-name="two.tlf" 
d="M179 98h439v-98h-557v97q258 172 346.5 264t88.5 184q0 64 -38 101.5t-99 37.5q-87 0 -125.5 -56t-31.5 -152h-114q-6 125 73 195.5t204 70.5q112 0 181.5 -50t69.5 -146q0 -53 -26.5 -103.5t-98 -112.5t-117.5 -95.5t-162 -113.5q-22 -15 -33 -23z" />
    <glyph glyph-name="three.tlf" 
d="M326 -13q-117 0 -193.5 62.5t-81.5 159.5h111q0 -69 46 -116t119 -47q74 0 119.5 38t45.5 110q0 75 -58 112t-154 37h-32v65h25q85 0 143.5 37.5t58.5 109.5q0 59 -39.5 94t-104.5 35q-72 0 -116 -43.5t-44 -113.5h-111q5 92 81.5 153.5t192.5 61.5q107 0 184 -45.5
t77 -132.5q0 -126 -154 -175v-1q83 -18 129.5 -65t46.5 -121q0 -72 -41 -121.5t-105 -71.5t-145 -22z" />
    <glyph glyph-name="four.tlf" 
d="M306 0v37l54 4q20 2 26 8.5t6 25.5v122h-376v68l393 460h101l-2 -186v-254h138v-88h-138v-122q0 -19 6 -25.5t26 -8.5l43 -4v-37h-277zM121 285h271v317z" />
    <glyph glyph-name="five.tlf" 
d="M327 -13q-113 0 -185.5 63t-76.5 155h111q0 -65 42 -112t110 -47q78 0 121.5 54t43.5 142q0 90 -47 137t-120 47q-58 0 -105 -33.5t-66 -92.5l-67 14l46 411h447v-97h-386l-25 -200q65 70 182 70q113 0 187.5 -62.5t74.5 -188.5q0 -118 -82.5 -189t-204.5 -71z" />
    <glyph glyph-name="six.tlf" 
d="M363 684q-84 0 -132 -80t-54 -200q63 85 191 85q44 0 88 -15t82 -44.5t62 -79t24 -112.5q0 -109 -80.5 -180t-200.5 -71q-144 0 -216 95.5t-72 253.5q0 196 88.5 301t225.5 105q91 0 160 -47.5t84 -140.5h-111q-7 61 -43.5 95.5t-95.5 34.5zM347 425q-76 0 -121 -52.5
t-45 -141.5q0 -88 46 -136.5t116 -48.5q74 0 115.5 54.5t41.5 136.5q0 79 -40 133.5t-113 54.5z" />
    <glyph glyph-name="seven.tlf" 
d="M73 627v98h533v-92q-41 -36 -62 -55t-60 -59.5t-60.5 -72.5t-50 -83t-43 -101.5t-24 -118.5t-8.5 -143h-134q1 104 30.5 200.5t80.5 174t112 139.5t134 113h-448z" />
    <glyph glyph-name="eight.tlf" 
d="M341 -13q-129 0 -213.5 54t-84.5 150q0 70 57 117t134 66q-153 70 -153 188q0 80 74 130t189 50q116 0 187.5 -46t71.5 -122q0 -57 -49.5 -103t-121.5 -69l16 -7q90 -39 138.5 -84.5t48.5 -111.5q0 -95 -84.5 -153.5t-209.5 -58.5zM344 440l44 -19q48 20 77.5 60t29.5 85
q0 56 -44 87t-109 31q-66 0 -106.5 -28t-40.5 -77q0 -47 36 -76.5t113 -62.5zM341 46q81 0 128.5 33t47.5 91q0 54 -37.5 84t-138.5 74l-60 25q-63 -21 -92.5 -64.5t-29.5 -95.5q0 -71 49 -109t133 -38z" />
    <glyph glyph-name="nine.tlf" 
d="M332 305q77 0 121.5 52t44.5 141q0 88 -46.5 137t-115.5 49q-74 0 -116 -55t-42 -137q0 -78 40.5 -132.5t113.5 -54.5zM316 46q84 0 132 79.5t54 199.5q-64 -85 -192 -85q-44 0 -87.5 15t-81.5 44.5t-62 79.5t-24 112q0 110 80.5 180.5t200.5 70.5q143 0 215.5 -95.5
t72.5 -253.5q0 -196 -88.5 -301t-226.5 -105q-90 0 -159 48t-84 141h111q7 -62 43.5 -96t95.5 -34z" />
    <glyph glyph-name="zero.tlf" 
d="M34 365q0 179 85 278t220 99t220 -99t85 -278q0 -180 -85 -279t-220 -99t-220 99t-85 279zM161 365q0 -153 46 -236t132 -83q85 0 131.5 83t46.5 236t-46.5 236t-131.5 83q-86 0 -132 -83t-46 -236z" />
    <glyph glyph-name="zero.slashed.tlf" horiz-adv-x="721" 
d="M56 365q0 179 85 278t220 99q134 0 219 -99t85 -278q0 -180 -84.5 -279t-219.5 -99t-220 99t-85 279zM183 365q0 -61 7 -106l333 261q-40 164 -162 164q-86 0 -132 -83t-46 -236zM361 46q85 0 131.5 83t46.5 236q0 51 -4 87l-331 -260q41 -146 157 -146z" />
    <glyph glyph-name="one.case" horiz-adv-x="415" 
d="M307 533v-455q0 -18 6 -26t27 -12l40 -4v-36h-302v36l71 5q20 3 26.5 11t6.5 26v507h-162v49q91 3 142 22t89 64h59z" />
    <glyph glyph-name="two.case" horiz-adv-x="623" 
d="M138 107h440v-107h-566v112q260 170 347.5 258t87.5 180q0 58 -35.5 94t-94.5 36q-84 0 -121.5 -56.5t-30.5 -151.5h-126q-6 127 75 198.5t209 71.5q118 0 187.5 -48t69.5 -145q0 -52 -29 -103.5t-100 -111.5t-118.5 -94.5t-154.5 -105.5q-27 -18 -40 -27z" />
    <glyph glyph-name="three.case" horiz-adv-x="645" 
d="M309 -13q-119 0 -198.5 64t-85.5 166h121q0 -70 46.5 -118t117.5 -48q70 0 113 36.5t43 107.5q0 142 -204 142h-27v73h16q84 0 142 36t58 108q0 57 -38.5 91.5t-101.5 34.5q-70 0 -113.5 -43t-43.5 -114h-122q4 95 84 157t197 62q109 0 190 -46t81 -131q0 -122 -141 -176
v-1q162 -45 162 -185q0 -108 -83.5 -162t-212.5 -54z" />
    <glyph glyph-name="four.case" horiz-adv-x="693" 
d="M326 0v38l40 4q21 4 27.5 11t6.5 28v113h-380v72l397 459h114l-2 -188v-247h134v-96h-134v-113q0 -22 6 -29t27 -10l39 -4v-38h-275zM138 290h262v302z" />
    <glyph glyph-name="five.case" horiz-adv-x="640" 
d="M317 -13q-115 0 -189 64t-78 158h121q0 -64 41.5 -111t104.5 -47q74 0 114.5 53t40.5 140q0 88 -45.5 134t-116.5 46q-52 0 -99 -35t-65 -94l-73 16l45 414h461l2 -105h-393l-24 -176q68 59 177 59q115 0 190.5 -63t75.5 -192q0 -117 -84 -189t-206 -72z" />
    <glyph glyph-name="six.case" horiz-adv-x="670" 
d="M360 680q-74 0 -120 -72t-53 -182q69 66 188 66q40 0 82.5 -13.5t83.5 -41.5t67 -79.5t26 -118.5q0 -110 -82 -181t-206 -71q-147 0 -221.5 96t-74.5 254q0 193 89 299t227 106q96 0 167.5 -47.5t87.5 -142.5h-122q-7 60 -43.5 94t-95.5 34zM350 424q-75 0 -117 -50.5
t-42 -141.5q0 -87 43.5 -134t111.5 -47q71 0 110.5 52.5t39.5 134.5q0 79 -39 132.5t-107 53.5z" />
    <glyph glyph-name="seven.case" horiz-adv-x="513" 
d="M-5 619v106h538v-98q-99 -85 -128 -116q-132 -137 -164 -331q-13 -82 -11 -180h-147q-2 199 97.5 359t256.5 260h-442z" />
    <glyph glyph-name="eight.case" horiz-adv-x="695" 
d="M349 -13q-133 0 -219.5 55t-86.5 152q0 47 31.5 86t71.5 59.5t86 32.5q-150 74 -150 189q0 80 77 130.5t195 50.5q117 0 191.5 -46.5t74.5 -123.5q0 -55 -50 -99.5t-123 -68.5l11 -5q94 -41 144 -86t50 -111q0 -96 -87.5 -155.5t-215.5 -59.5zM356 445l45 -20
q43 21 71 59.5t28 80.5q0 55 -43.5 85t-104.5 30q-64 0 -102.5 -26t-38.5 -76q0 -45 35 -73t110 -60zM349 51q80 0 125 31t45 86q0 53 -30 78.5t-127 69.5q-10 5 -15 7l-64 26q-58 -22 -84.5 -64t-26.5 -89q0 -72 47.5 -108.5t129.5 -36.5z" />
    <glyph glyph-name="nine.case" horiz-adv-x="670" 
d="M320 306q75 0 117 50t42 141q0 87 -44 135t-111 48q-71 0 -111 -53.5t-40 -136.5q0 -78 39 -131t108 -53zM310 51q74 0 120 71.5t53 180.5q-72 -66 -189 -66q-39 0 -81 13.5t-83 41.5t-67.5 79.5t-26.5 117.5q0 111 81.5 182t206.5 71q146 0 221 -96.5t75 -253.5
q0 -194 -89 -299.5t-229 -105.5q-95 0 -166 48t-87 143h121q7 -61 43.5 -94t96.5 -33z" />
    <glyph glyph-name="zero.case" horiz-adv-x="735" 
d="M54 365q0 180 89.5 278.5t224.5 98.5t224 -98.5t89 -278.5t-89 -279t-224 -99t-224.5 99t-89.5 279zM197 365q0 -151 45 -232.5t126 -81.5t127 81.5t46 232.5t-46 233t-127 82t-126 -82t-45 -233z" />
    <glyph glyph-name="zero.slashed.case" horiz-adv-x="735" 
d="M54 365q0 180 89.5 278.5t224.5 98.5t224 -98.5t89 -278.5t-89 -279t-224 -99t-224.5 99t-89.5 279zM519 533l3 -2q-20 73 -59.5 111t-94.5 38q-81 0 -126 -82t-45 -233q0 -44 5 -91zM368 51q81 0 127 81.5t46 232.5q0 53 -6 96l-319 -262q41 -148 152 -148z" />
    <glyph glyph-name="plus.case" 
d="M380 95h-81v236h-236v76h236v227h81v-227h235v-76h-235v-236z" />
    <glyph glyph-name="minus.case" 
d="M72 407h534v-76h-534v76z" />
    <glyph glyph-name="divide.case" 
d="M289 480v109h105v-109h-105zM600 325h-522v76h522v-76zM289 144v107h105v-107h-105z" />
    <glyph glyph-name="multiply.case" 
d="M576 187l-57 -57l-181 181l-178 -178l-57 57l178 178l-178 179l57 57l178 -179l178 178l57 -57l-178 -178z" />
    <glyph glyph-name="equal.case" 
d="M586 439h-494v75h494v-75zM586 233h-494v75h494v-75z" />
    <glyph glyph-name="plusminus.case" 
d="M299 466v168h80v-168h230v-75h-230v-172h-80v172h-230v75h230zM609 95h-540v75h540v-75z" />
    <glyph glyph-name="less.case" 
d="M59 404l521 234v-87l-424 -183l424 -180v-86l-521 231v71z" />
    <glyph glyph-name="greater.case" 
d="M620 404v-71l-521 -231v86l424 180l-424 183v87z" />
    <glyph glyph-name="lessequal.case" 
d="M178 427l428 -133v-84l-535 182v70l535 184v-84zM69 95v75h540v-75h-540z" />
    <glyph glyph-name="greaterequal.case" 
d="M500 427l-428 135v84l535 -184v-70l-535 -182v84zM609 95h-540v75h540v-75z" />
    <glyph glyph-name="notequal.case" 
d="M586 233h-285l-94 -165l-65 36l74 129h-124v75h167l75 131h-242v75h285l83 144l65 -33l-63 -111h124v-75h-167l-75 -131h242v-75z" />
    <glyph glyph-name="a.denominator" horiz-adv-x="360" 
d="M227 118v32l-38 -5q-69 -10 -69 -59q0 -22 14 -35t38 -13q25 0 40 16.5t15 63.5zM37 84q0 54 50 75q35 14 94 21l46 6v14q0 36 -12.5 51t-42.5 15q-55 0 -56 -57h-69q3 43 39 67t89 24q65 0 94.5 -25t28.5 -83v-64q0 -52 1 -76q0 -12 3.5 -16t15.5 -5l23 -4v-22l-101 -6
l-5 47h-4q-26 -54 -86 -54q-42 0 -75 25.5t-33 66.5z" />
    <glyph glyph-name="b.denominator" horiz-adv-x="394" 
d="M227 -8q-59 0 -96 53l-31 -45h-31v100v266q0 12 -3 16t-16 6l-24 2v22h119v-125q0 -27 -1 -40h1q12 21 37.5 37t56.5 16q54 0 87.5 -41.5t33.5 -112.5q0 -70 -37 -112t-96 -42zM140 145q0 -62 21 -85.5t47 -23.5q35 0 52.5 30t17.5 79q0 113 -63 113q-75 0 -75 -113z" />
    <glyph glyph-name="c.denominator" horiz-adv-x="352" 
d="M33 146q0 73 41.5 113.5t108.5 40.5q50 0 89 -25t48 -77h-72q0 36 -21 51t-40 15q-31 0 -51 -29t-20 -89q0 -59 19.5 -88t52.5 -29q11 0 23 4t24 20.5t12 41.5h73q-9 -51 -48 -77t-89 -26q-67 0 -108.5 41.5t-41.5 112.5z" />
    <glyph glyph-name="d.denominator" horiz-adv-x="390" 
d="M179 36q31 0 53.5 24.5t22.5 87.5q0 61 -21.5 85.5t-48.5 24.5q-34 0 -51.5 -30t-17.5 -80q0 -112 63 -112zM198 412h128l-1 -90v-268q0 -14 3 -18t16 -5l24 -3v-21l-118 -8v47h-1q-36 -54 -94 -54q-55 0 -88.5 42t-33.5 113q0 70 37 111.5t96 41.5q54 0 83 -52h1
q0 2 -0.5 16.5t-0.5 33.5v68q0 13 -3 17t-15 5l-33 2v22z" />
    <glyph glyph-name="e.denominator" horiz-adv-x="357" 
d="M180 265q-68 0 -68 -85h131q5 85 -63 85zM324 94q-10 -51 -49 -76.5t-92 -25.5q-64 0 -107.5 40.5t-43.5 113.5q0 67 40 110.5t108 43.5q69 0 107 -40.5t35 -117.5h-210q1 -53 21.5 -83t54.5 -30q25 0 42.5 18t19.5 47h74z" />
    <glyph glyph-name="f.denominator" horiz-adv-x="259" 
d="M203 23v-23h-174v22l24 3q12 1 15.5 5.5t3.5 16.5v208h-41v41h41v29q0 56 27.5 71.5t90.5 15.5h56v-43h-66q-19 0 -25.5 -8t-6.5 -25v-40h98v-41h-98v-207q0 -13 3.5 -17.5t15.5 -5.5z" />
    <glyph glyph-name="g.denominator" horiz-adv-x="367" 
d="M160 126q48 0 48 73q0 74 -48 74q-45 0 -45 -72q0 -40 10 -57.5t35 -17.5zM326 -2q0 -38 -49 -71t-114 -33q-72 0 -103 19.5t-31 48.5q0 20 19.5 35.5t47.5 18.5q-40 9 -40 45q0 16 17 28t39 16q-71 24 -71 96q0 46 34.5 72.5t84.5 26.5q49 0 83 -23l-17 15l109 4v-41
l-79 11q28 -26 28 -68q0 -52 -36 -76t-86 -24q-22 0 -38 4q-4 -4 -4 -15q0 -16 27 -18l85 -7q52 -4 73 -19.5t21 -44.5zM167 -75q35 0 59.5 15.5t24.5 35.5q0 27 -48 32l-88 5q-16 -14 -16 -37q0 -21 18 -36t50 -15z" />
    <glyph glyph-name="h.denominator" horiz-adv-x="383" 
d="M186 22v-22h-162v22l24 3q12 1 15.5 5.5t3.5 16.5v319q0 12 -3 16t-16 6l-24 2v22h119v-90l-1 -72v0q29 50 88 50q91 0 91 -110v-143q0 -13 3.5 -17t15.5 -5l24 -3v-22h-162v22l24 3q12 1 15.5 5.5t3.5 16.5v115q0 52 -10 72t-36 20q-56 0 -56 -73v-134q0 -13 3.5 -17
t15.5 -5z" />
    <glyph glyph-name="i.denominator" horiz-adv-x="218" 
d="M74 332v80h76v-80h-76zM193 0h-162v22l24 3q12 1 15.5 5.5t3.5 16.5v204q0 13 -3.5 16t-15.5 4l-24 2v23h119v-249q0 -13 3.5 -17t15.5 -5l24 -3v-22z" />
    <glyph glyph-name="j.denominator" horiz-adv-x="228" 
d="M85 332v80h77v-80h-77zM59 -105h-38v46h38q18 0 22 11t4 62v237q0 13 -3 16t-15 4l-24 2v23h119v-272q0 -82 -21.5 -105.5t-81.5 -23.5z" />
    <glyph glyph-name="k.denominator" horiz-adv-x="372" 
d="M186 22v-22h-162v22l24 3q12 1 15.5 5.5t3.5 16.5v319q0 12 -3 16t-16 6l-24 2v22h119v-268l114 109q2 1 0 4.5t-7 7.5t-12 5l-33 4v22h156v-22l-40 -5q-2 0 -32 -29l-60 -56l88 -143q13 -15 28 -17l14 -2v-22h-109l-76 133l-31 -29v-57q0 -13 3.5 -17t15.5 -5z" />
    <glyph glyph-name="l.denominator" horiz-adv-x="208" 
d="M186 0h-162v22l24 3q12 1 15.5 5.5t3.5 16.5v319q0 12 -3 16t-16 6l-24 2v22h119v-365q0 -13 3.5 -17t15.5 -5l24 -3v-22z" />
    <glyph glyph-name="m.denominator" horiz-adv-x="548" 
d="M193 22v-22h-162v22l24 3q12 1 15.5 5.5t3.5 16.5v204q0 13 -3.5 16t-15.5 4l-24 2v23h118v-46q29 50 84 50q60 0 80 -53q10 22 34.5 37.5t54.5 15.5q50 0 67 -29.5t17 -80.5v-143q0 -13 3.5 -17t15.5 -5l24 -3v-22h-162v22l24 3q12 1 15.5 5t3.5 17v115q0 52 -9 72
t-33 20q-18 0 -29 -6.5t-15 -20t-5 -22.5t-1 -24v-134q0 -13 3.5 -17t15.5 -5l24 -3v-22h-162v22l24 3q13 1 16.5 5t3.5 17v115q0 51 -10 71.5t-34 20.5q-23 0 -34.5 -14t-13 -26t-1.5 -33v-134q0 -13 3.5 -17t15.5 -5z" />
    <glyph glyph-name="n.denominator" horiz-adv-x="390" 
d="M193 22v-22h-162v22l24 3q12 1 15.5 5.5t3.5 16.5v204q0 13 -3.5 16t-15.5 4l-24 2v23h118v-46q29 50 88 50q91 0 91 -110v-143q0 -13 3.5 -17t15.5 -5l24 -3v-22h-162v22l24 3q12 1 15.5 5.5t3.5 16.5v115q0 52 -10 72t-36 20q-56 0 -56 -73v-134q0 -13 3.5 -17t15.5 -5
z" />
    <glyph glyph-name="o.denominator" horiz-adv-x="371" 
d="M185 300q68 0 110.5 -41.5t42.5 -112.5t-42.5 -112.5t-111.5 -41.5t-110 42t-41 114t41.5 112t110.5 40zM185 29q70 0 70 118q0 117 -70 117q-69 0 -69 -117q0 -118 69 -118z" />
    <glyph glyph-name="p.denominator" horiz-adv-x="385" 
d="M131 145q0 -62 20.5 -85.5t47.5 -23.5q34 0 51.5 30t17.5 79q0 113 -63 113q-74 0 -74 -113zM134 296v-49h1q13 21 38 37t57 16q53 0 87 -41.5t34 -112.5q0 -70 -37.5 -112t-95.5 -42q-56 0 -82 54h-1q0 -12 0.5 -15t0.5 -20v-67q0 -13 3.5 -17.5t15.5 -5.5l40 -2v-24
h-178v23l24 2q12 1 15.5 5.5t3.5 17.5v308q0 13 -3.5 16t-15.5 4l-24 2v23h117z" />
    <glyph glyph-name="q.denominator" horiz-adv-x="393" 
d="M249 -56v66v37h-1q-12 -21 -37.5 -38t-56.5 -17q-54 0 -87.5 41.5t-33.5 112.5q0 70 37 112t96 42q61 0 96 -51h1l33 47h30l-1 -108v-245q0 -13 3.5 -17.5t15.5 -5.5l24 -2v-23h-178v24l41 2q12 1 15 5.5t3 17.5zM255 148q0 61 -21.5 85.5t-48.5 24.5q-34 0 -51.5 -30
t-17.5 -80q0 -112 63 -112q31 0 53.5 24.5t22.5 87.5z" />
    <glyph glyph-name="r.denominator" horiz-adv-x="291" 
d="M31 0v22l24 3q12 1 15.5 5.5t3.5 16.5v204q0 13 -3.5 16t-15.5 4l-24 2v23h118v-71h1q12 34 40 53.5t62 19.5h24v-72h-59q-35 0 -51 -12.5t-16 -55.5v-110q0 -13 3.5 -17.5t15.5 -5.5l36 -2v-23h-174z" />
    <glyph glyph-name="s.denominator" horiz-adv-x="325" 
d="M162 -8q-49 0 -87.5 26t-41.5 75h69q3 -27 19.5 -45.5t50.5 -18.5q60 0 60 42q0 37 -68 48l-34 7q-38 7 -65.5 28t-27.5 61q0 46 37.5 65.5t86.5 19.5t83.5 -24t43.5 -67h-68q0 21 -19 38t-46 17q-59 0 -59 -31q0 -36 58 -47l35 -7q50 -9 77 -29t27 -67q0 -91 -131 -91z
" />
    <glyph glyph-name="t.denominator" horiz-adv-x="253" 
d="M218 296v-41h-79v-167q0 -26 8.5 -35t35.5 -9h36v-44h-44q-69 0 -91 14.5t-22 64.5v176h-50v41h50v96h77v-96h79z" />
    <glyph glyph-name="u.denominator" horiz-adv-x="383" 
d="M235 44q-29 -52 -89 -52q-51 0 -70 30t-19 82v147q0 13 -3.5 16t-16.5 4l-23 2v23h119l-1 -90v-74q0 -53 10.5 -73.5t36.5 -20.5q56 0 56 74v139q0 13 -3.5 16t-15.5 4l-24 2v23h119v-242q0 -14 3 -18t16 -5l24 -3v-21l-117 -14z" />
    <glyph glyph-name="v.denominator" horiz-adv-x="341" 
d="M143 -1l-98 255q-7 17 -21 19l-15 1v22h148v-22l-22 -2q-18 -1 -11 -20l55 -164l58 154q3 9 4.5 13t2 8.5t-2 6.5t-7.5 2l-27 2v22h124v-22l-20 -1q-10 -1 -14 -7t-13 -29l-96 -238h-45z" />
    <glyph glyph-name="w.denominator" horiz-adv-x="470" 
d="M326 99l37 143q7 29 -1 30l-27 2v22h125v-22l-19 -1q-18 -3 -29 -36l-77 -238h-44l-59 203l-59 -203h-48l-80 255q-5 17 -12 18l-24 2v22h148v-22l-21 -2q-11 -1 -13 -5.5t2 -16.5l37 -151l60 197h48z" />
    <glyph glyph-name="x.denominator" horiz-adv-x="404" 
d="M159 22v-22h-139v22l22 1q17 2 34 17l88 102l-82 107q-8 10 -12.5 14.5t-8.5 6t-12 2.5l-8 2v22h146v-22l-21 -2q-8 -2 1 -15l45 -59l62 72q-1 -1 -11 1l-24 3v22h139v-22l-21 -1q-19 -2 -32 -15l-85 -98l86 -113q15 -20 32 -23l9 -2v-22h-145v22l21 2q8 2 -1 15l-50 66
l-69 -80q2 2 12 0z" />
    <glyph glyph-name="y.denominator" horiz-adv-x="341" 
d="M76 -105h-46v44h47q20 0 32.5 13.5t25.5 52.5l1 6l-91 243q-5 17 -25 19l-11 1v22h154v-22l-30 -2q-18 -1 -10 -22l56 -163l59 155q11 27 -1 29l-33 3v22h127v-22l-20 -1q-12 -2 -22 -28l-100 -248q-23 -58 -44.5 -80t-68.5 -22z" />
    <glyph glyph-name="z.denominator" horiz-adv-x="328" 
d="M32 0v39l167 216h-151v41h244v-37l-167 -219h171v-40h-264z" />
    <glyph glyph-name="one.denominator" horiz-adv-x="249" 
d="M221 0h-169v20l39 4q18 1 18 22v275h-90v28q50 2 78.5 12.5t50.5 35.5h35v-351q0 -11 3 -16.5t15 -6.5l20 -3v-20z" />
    <glyph glyph-name="two.denominator" horiz-adv-x="364" 
d="M85 62h245v-62h-316v67q145 93 192.5 140t47.5 99q0 30 -19 49.5t-51 19.5q-45 0 -65.5 -31.5t-17.5 -83.5h-72q-4 71 42 111t117 40q66 0 104.5 -26t38.5 -80q0 -29 -15.5 -56.5t-58.5 -63t-62.5 -49.5t-84.5 -57q-17 -11 -25 -17z" />
    <glyph glyph-name="three.denominator" horiz-adv-x="377" 
d="M184 -8q-67 0 -112.5 36.5t-48.5 93.5h70q0 -39 26 -66t66 -27q37 0 60 20.5t23 59.5q0 76 -112 76h-13v43h7q46 0 77.5 19t31.5 58q0 31 -21 50.5t-54 19.5q-38 0 -62.5 -24t-24.5 -63h-71q3 53 48.5 88t110.5 35q60 0 106 -25.5t46 -72.5q0 -67 -74 -98v-1
q85 -25 85 -100q0 -61 -46 -91.5t-118 -30.5z" />
    <glyph glyph-name="four.denominator" horiz-adv-x="411" 
d="M201 0v22l18 3q12 1 15.5 5t3.5 17v59h-211v41l222 254h65l-1 -104v-135h73v-56h-73v-59q0 -13 3.5 -17t16.5 -5l19 -3v-22h-151zM96 162h142v162z" />
    <glyph glyph-name="five.denominator" horiz-adv-x="379" 
d="M188 -8q-63 0 -104.5 36.5t-43.5 89.5h70q0 -35 23 -62t55 -27q39 0 61 29.5t22 77.5t-24.5 73t-63.5 25q-27 0 -53 -19.5t-35 -51.5l-43 8l25 230h259l2 -60h-219l-13 -90q38 29 97 29q63 0 105 -35.5t42 -106.5q0 -65 -47 -105.5t-115 -40.5z" />
    <glyph glyph-name="six.denominator" horiz-adv-x="399" 
d="M211 375q-37 0 -61.5 -37.5t-28.5 -95.5q37 31 102 31q20 0 43 -7t47 -22t39.5 -44t15.5 -67q0 -62 -46 -101.5t-116 -39.5q-82 0 -124 53.5t-42 141.5q0 106 49 165t127 59q54 0 94.5 -26.5t48.5 -80.5h-71q-4 34 -24 52.5t-53 18.5zM207 234q-40 0 -62.5 -27t-22.5 -77
q0 -48 23.5 -74.5t60.5 -26.5q38 0 59.5 29t21.5 75q0 43 -21 72t-59 29z" />
    <glyph glyph-name="seven.denominator" horiz-adv-x="305" 
d="M5 340v61h299v-55q-3 -2 -28 -23.5t-30.5 -27.5t-26.5 -28.5t-28 -36l-21 -40.5t-19 -52.5t-9.5 -61.5t-3.5 -76h-85q-2 109 53 197.5t141 142.5h-242z" />
    <glyph glyph-name="eight.denominator" horiz-adv-x="413" 
d="M208 -8q-75 0 -124 31t-49 85q0 38 31.5 62.5t72.5 34.5q-82 41 -82 105q0 45 43.5 73t110.5 28q64 0 106 -26t42 -68q0 -30 -26.5 -54t-66.5 -39l3 -1q53 -24 80.5 -49t27.5 -62q0 -53 -49.5 -86.5t-119.5 -33.5zM212 247l25 -11q22 12 37 32.5t15 42.5q0 31 -23.5 47.5
t-56.5 16.5q-76 0 -76 -55q0 -25 19.5 -40.5t59.5 -32.5zM208 29q42 0 66.5 17.5t24.5 46.5q0 30 -16.5 43t-77.5 40l-36 15q-59 -22 -59 -81q0 -40 26.5 -60.5t71.5 -20.5z" />
    <glyph glyph-name="nine.denominator" horiz-adv-x="399" 
d="M191 169q40 0 62.5 27.5t22.5 77.5q0 48 -23.5 74.5t-60.5 26.5q-39 0 -60 -29t-21 -75q0 -44 21 -73t59 -29zM186 29q37 0 62 37t30 95q-41 -31 -104 -31q-29 0 -59.5 11.5t-57.5 45t-27 83.5q0 62 46 101.5t116 39.5q82 0 124 -53.5t42 -141.5q0 -106 -49.5 -165
t-126.5 -59q-55 0 -95 26.5t-48 80.5h71q3 -33 23.5 -51.5t52.5 -18.5z" />
    <glyph glyph-name="zero.denominator" horiz-adv-x="440" 
d="M43 202q0 100 51 154.5t126 54.5t126 -54.5t51 -154.5q0 -101 -51 -155.5t-126 -54.5t-126 54.5t-51 155.5zM127 202q0 -83 25 -128t68 -45t68 45t25 128t-25 128t-68 45t-68 -45t-25 -128z" />
    <glyph glyph-name="zero.slashed.denominator" horiz-adv-x="440" 
d="M43 202q0 100 51 154.5t126 54.5t126 -54.5t51 -154.5q0 -101 -51 -155.5t-126 -54.5t-126 54.5t-51 155.5zM127 202q0 -14 2 -38l178 110q-20 101 -87 101q-43 0 -68 -45t-25 -128zM220 29q43 0 68 45t25 128q0 24 -1 35l-178 -110q20 -98 86 -98z" />
    <glyph glyph-name="period.denominator" horiz-adv-x="192" 
d="M51 0v91h90v-91h-90z" />
    <glyph glyph-name="hyphen.denominator" horiz-adv-x="267" 
d="M56 122v61h155v-61h-155z" />
    <glyph glyph-name="comma.denominator" horiz-adv-x="192" 
d="M51 0v91h90v-98l-52 -102h-29l28 109h-37z" />
    <glyph glyph-name="equal.denominator" horiz-adv-x="350" 
d="M315 187h-281v48h281v-48zM315 73h-281v47h281v-47z" />
    <glyph glyph-name="plus.denominator" horiz-adv-x="368" 
d="M209 0h-51v127h-127v48h127v123h51v-123h127v-48h-127v-127z" />
    <glyph glyph-name="minus.denominator" horiz-adv-x="367" 
d="M31 175h305v-48h-305v48z" />
    <glyph glyph-name="parenleft.denominator" horiz-adv-x="180" 
d="M105 159q0 -137 62 -264h-41q-97 135 -97 260q0 121 97 257h41q-62 -123 -62 -253z" />
    <glyph glyph-name="parenright.denominator" horiz-adv-x="179" 
d="M73 159q0 126 -61 253h40q98 -140 98 -257q0 -121 -98 -260h-40q61 131 61 264z" />
    <glyph glyph-name="a.numerator" horiz-adv-x="360" 
d="M227 451v32l-38 -5q-69 -10 -69 -59q0 -22 14 -35t38 -13q25 0 40 16.5t15 63.5zM37 417q0 54 50 75q35 14 94 21l46 6v14q0 36 -12.5 51t-42.5 15q-55 0 -56 -57h-69q3 43 39 67t89 24q65 0 94.5 -25t28.5 -83v-64q0 -52 1 -76q0 -12 3.5 -16t15.5 -5l23 -4v-22l-101 -6
l-5 47h-4q-26 -54 -86 -54q-42 0 -75 25.5t-33 66.5z" />
    <glyph glyph-name="b.numerator" horiz-adv-x="394" 
d="M227 325q-59 0 -96 53l-31 -45h-31v100v266q0 12 -3 16t-16 6l-24 2v22h119v-125q0 -27 -1 -40h1q12 21 37.5 37t56.5 16q54 0 87.5 -41.5t33.5 -112.5q0 -70 -37 -112t-96 -42zM140 478q0 -62 21 -85.5t47 -23.5q35 0 52.5 30t17.5 79q0 113 -63 113q-75 0 -75 -113z
" />
    <glyph glyph-name="c.numerator" horiz-adv-x="352" 
d="M33 479q0 73 41.5 113.5t108.5 40.5q50 0 89 -25t48 -77h-72q0 36 -21 51t-40 15q-31 0 -51 -29t-20 -89q0 -116 72 -116q8 0 16.5 2.5t19 8.5t17 20t6.5 34h73q-9 -51 -48 -77t-89 -26q-67 0 -108.5 41.5t-41.5 112.5z" />
    <glyph glyph-name="d.numerator" horiz-adv-x="390" 
d="M179 369q76 0 76 113q0 61 -21.5 85t-48.5 24q-34 0 -51.5 -30t-17.5 -79q0 -113 63 -113zM198 745h128l-1 -90v-268q0 -14 3 -18t16 -5l24 -3v-21l-118 -8v47h-1q-36 -54 -94 -54q-55 0 -88.5 42t-33.5 113q0 70 37 111.5t96 41.5q54 0 83 -52h1q0 2 -0.5 16.5
t-0.5 33.5v68q0 13 -3 17t-15 5l-33 2v22z" />
    <glyph glyph-name="e.numerator" horiz-adv-x="357" 
d="M180 598q-68 0 -68 -85h131q5 85 -63 85zM324 427q-10 -51 -49 -76.5t-92 -25.5q-64 0 -107.5 40.5t-43.5 113.5q0 67 40 110.5t108 43.5q69 0 107 -40.5t35 -117.5h-210q1 -53 21.5 -82.5t54.5 -29.5q25 0 42.5 17.5t19.5 46.5h74z" />
    <glyph glyph-name="f.numerator" horiz-adv-x="259" 
d="M203 356v-23h-174v22l24 3q12 1 15.5 5.5t3.5 16.5v209h-41v40h41v29q0 56 27.5 71.5t90.5 15.5h56v-43h-66q-19 0 -25.5 -8t-6.5 -25v-40h98v-40h-98v-208q0 -13 3.5 -17.5t15.5 -5.5z" />
    <glyph glyph-name="g.numerator" horiz-adv-x="367" 
d="M160 459q48 0 48 73q0 74 -48 74q-45 0 -45 -72q0 -40 10 -57.5t35 -17.5zM326 331q0 -38 -49 -71t-114 -33q-72 0 -103 19.5t-31 48.5q0 20 19.5 35.5t47.5 18.5q-40 9 -40 45q0 16 17 28t39 16q-71 24 -71 96q0 46 34.5 72.5t84.5 26.5q49 0 83 -23l-17 15l109 4v-40
l-79 10q28 -26 28 -68q0 -52 -36 -76t-86 -24q-22 0 -38 4q-4 -4 -4 -15q0 -16 27 -18l85 -7q52 -4 73 -19.5t21 -44.5zM167 258q35 0 59.5 15.5t24.5 35.5q0 27 -48 32l-88 5q-16 -14 -16 -37q0 -21 18 -36t50 -15z" />
    <glyph glyph-name="h.numerator" horiz-adv-x="383" 
d="M186 355v-22h-162v22l24 3q12 1 15.5 5.5t3.5 16.5v319q0 12 -3 16t-16 6l-24 2v22h119v-90l-1 -72v0q29 50 88 50q91 0 91 -110v-143q0 -13 3.5 -17t15.5 -5l24 -3v-22h-162v22l24 3q12 1 15.5 5.5t3.5 16.5v115q0 52 -10 72t-36 20q-56 0 -56 -73v-134q0 -13 3.5 -17
t15.5 -5z" />
    <glyph glyph-name="i.numerator" horiz-adv-x="218" 
d="M74 665v80h76v-80h-76zM193 333h-162v22l24 3q12 1 15.5 5.5t3.5 16.5v204q0 12 -3.5 15.5t-15.5 4.5l-24 2v23h119v-249q0 -13 3.5 -17t15.5 -5l24 -3v-22z" />
    <glyph glyph-name="j.numerator" horiz-adv-x="228" 
d="M85 665v80h77v-80h-77zM59 228h-38v46h38q18 0 22 11.5t4 61.5v237q0 13 -3 16t-15 4l-24 2v23h119v-272q0 -82 -21.5 -105.5t-81.5 -23.5z" />
    <glyph glyph-name="k.numerator" horiz-adv-x="372" 
d="M186 355v-22h-162v22l24 3q12 1 15.5 5.5t3.5 16.5v319q0 12 -3 16t-16 6l-24 2v22h119v-268l114 109q2 2 0 5.5t-7 7t-12 4.5l-33 4v22h156v-22l-40 -5q-2 0 -32 -29l-60 -56l88 -142q11 -16 28 -18l14 -2v-22h-109l-76 133l-31 -29v-57q0 -13 3.5 -17t15.5 -5z" />
    <glyph glyph-name="l.numerator" horiz-adv-x="208" 
d="M186 333h-162v22l24 3q12 1 15.5 5.5t3.5 16.5v319q0 12 -3 16t-16 6l-24 2v22h119v-365q0 -13 3.5 -17t15.5 -5l24 -3v-22z" />
    <glyph glyph-name="m.numerator" horiz-adv-x="548" 
d="M193 355v-22h-162v22l24 3q12 1 15.5 5.5t3.5 16.5v204q0 12 -3.5 15.5t-15.5 4.5l-24 2v23h118v-46q29 50 84 50q60 0 80 -53q10 22 34.5 37.5t54.5 15.5q50 0 67 -29.5t17 -80.5v-143q0 -13 3.5 -17t15.5 -5l24 -3v-22h-162v22l24 3q12 1 15.5 5t3.5 17v115q0 52 -9 72
t-33 20q-18 0 -29 -6.5t-15 -20t-5 -22.5t-1 -24v-134q0 -13 3.5 -17t15.5 -5l24 -3v-22h-162v22l24 3q13 1 16.5 5t3.5 17v115q0 51 -10 71.5t-34 20.5q-23 0 -34.5 -14t-13 -26t-1.5 -33v-134q0 -13 3.5 -17t15.5 -5z" />
    <glyph glyph-name="n.numerator" horiz-adv-x="390" 
d="M193 355v-22h-162v22l24 3q12 1 15.5 5.5t3.5 16.5v204q0 12 -3.5 15.5t-15.5 4.5l-24 2v23h118v-46q29 50 88 50q91 0 91 -110v-143q0 -13 3.5 -17t15.5 -5l24 -3v-22h-162v22l24 3q12 1 15.5 5.5t3.5 16.5v115q0 52 -10 72t-36 20q-56 0 -56 -73v-134q0 -13 3.5 -17
t15.5 -5z" />
    <glyph glyph-name="o.numerator" horiz-adv-x="371" 
d="M185 633q68 0 110.5 -41.5t42.5 -112.5t-42.5 -112.5t-111.5 -41.5t-110 42.5t-41 114.5q0 71 41.5 111t110.5 40zM185 363q70 0 70 117t-70 117q-69 0 -69 -117t69 -117z" />
    <glyph glyph-name="p.numerator" horiz-adv-x="385" 
d="M131 478q0 -62 20.5 -85.5t47.5 -23.5q34 0 51.5 30t17.5 79q0 113 -63 113q-74 0 -74 -113zM134 629v-49h1q13 21 38 37t57 16q53 0 87 -41.5t34 -112.5q0 -70 -37.5 -112t-95.5 -42q-56 0 -82 54h-1q0 -12 0.5 -15t0.5 -20v-67q0 -13 3.5 -17.5t15.5 -5.5l40 -2v-24
h-178v23l24 2q12 1 15.5 5.5t3.5 17.5v308q0 12 -3.5 15.5t-15.5 4.5l-24 2v23h117z" />
    <glyph glyph-name="q.numerator" horiz-adv-x="393" 
d="M249 277v66v37h-1q-12 -21 -37.5 -38t-56.5 -17q-54 0 -87.5 41.5t-33.5 112.5q0 70 37 112t96 42q61 0 96 -51h1l33 47h30l-1 -108v-245q0 -13 3.5 -17.5t15.5 -5.5l24 -2v-23h-178v24l41 2q12 1 15 5.5t3 17.5zM255 482q0 61 -21.5 85t-48.5 24q-34 0 -51.5 -30
t-17.5 -79q0 -113 63 -113q76 0 76 113z" />
    <glyph glyph-name="r.numerator" horiz-adv-x="291" 
d="M31 333v22l24 3q12 1 15.5 5.5t3.5 16.5v204q0 12 -3.5 15.5t-15.5 4.5l-24 2v23h118v-71h1q12 34 40 53.5t62 19.5h24v-72h-59q-35 0 -51 -12.5t-16 -55.5v-110q0 -13 3.5 -17.5t15.5 -5.5l36 -2v-23h-174z" />
    <glyph glyph-name="s.numerator" horiz-adv-x="325" 
d="M162 325q-49 0 -87.5 26t-41.5 75h69q3 -27 19.5 -45t50.5 -18q60 0 60 41q0 37 -68 48l-34 7q-38 7 -65.5 28t-27.5 61q0 46 37.5 65.5t86.5 19.5t83.5 -24t43.5 -67h-68q0 21 -19 38t-46 17q-59 0 -59 -31q0 -36 58 -47l35 -7q50 -9 77 -29t27 -67q0 -91 -131 -91z" />
    <glyph glyph-name="t.numerator" horiz-adv-x="253" 
d="M218 629v-40h-79v-168q0 -26 8.5 -35t35.5 -9h36v-44h-44q-69 0 -91 14.5t-22 64.5v177h-50v40h50v96h77v-96h79z" />
    <glyph glyph-name="u.numerator" horiz-adv-x="383" 
d="M235 377q-29 -52 -89 -52q-51 0 -70 30t-19 82v147q0 13 -3.5 16t-16.5 4l-23 2v23h119l-1 -90v-74q0 -53 10.5 -73.5t36.5 -20.5q56 0 56 74v139q0 12 -3.5 15.5t-15.5 4.5l-24 2v23h119v-242q0 -14 3 -18t16 -5l24 -3v-21l-117 -14z" />
    <glyph glyph-name="v.numerator" horiz-adv-x="341" 
d="M143 332l-98 255q-7 17 -21 19l-15 1v22h148v-22l-22 -2q-18 -1 -11 -20l55 -164l58 154q3 9 4.5 13t2 8.5t-2 6.5t-7.5 2l-27 2v22h124v-22l-20 -1q-10 -1 -14 -7t-13 -29l-96 -238h-45z" />
    <glyph glyph-name="w.numerator" horiz-adv-x="470" 
d="M326 432l37 143q7 29 -1 30l-27 2v22h125v-22l-19 -1q-18 -3 -29 -36l-77 -238h-44l-59 203l-59 -203h-48l-80 255q-5 17 -12 18l-24 2v22h148v-22l-21 -2q-11 -1 -13 -5.5t2 -16.5l37 -151l60 197h48z" />
    <glyph glyph-name="x.numerator" horiz-adv-x="404" 
d="M159 355v-22h-139v22l22 1q17 2 34 17l88 102l-82 107q-8 10 -12.5 14.5t-8.5 6t-12 2.5l-8 2v22h146v-22l-21 -2q-8 -2 1 -15l45 -59l62 72q-1 -1 -11 1l-24 3v22h139v-22l-21 -1q-19 -2 -32 -15l-85 -98l86 -113q15 -20 32 -23l9 -2v-22h-145v22l21 2q8 2 -1 15l-50 66
l-69 -80q2 2 12 0z" />
    <glyph glyph-name="y.numerator" horiz-adv-x="341" 
d="M76 228h-46v44h47q20 0 32.5 13.5t25.5 52.5l1 6l-91 243q-5 17 -25 19l-11 1v22h154v-22l-30 -2q-18 -1 -10 -22l56 -163l59 155q11 27 -1 29l-33 3v22h127v-22l-20 -1q-12 -2 -22 -28l-100 -248q-23 -58 -44.5 -80t-68.5 -22z" />
    <glyph glyph-name="z.numerator" horiz-adv-x="328" 
d="M32 333v39l167 217h-151v40h244v-37l-167 -219h171v-40h-264z" />
    <glyph glyph-name="one.numerator" horiz-adv-x="249" 
d="M221 333h-169v20l39 4q18 1 18 22v275h-90v28q50 2 78.5 12.5t50.5 35.5h35v-351q0 -11 3 -16.5t15 -6.5l20 -3v-20z" />
    <glyph glyph-name="two.numerator" horiz-adv-x="364" 
d="M85 395h245v-62h-316v67q145 93 192.5 140t47.5 99q0 30 -19 49.5t-51 19.5q-45 0 -65.5 -31.5t-17.5 -83.5h-72q-4 71 42 111t117 40q66 0 104.5 -26t38.5 -80q0 -29 -15.5 -56.5t-58.5 -63t-62.5 -49.5t-84.5 -57q-17 -11 -25 -17z" />
    <glyph glyph-name="three.numerator" horiz-adv-x="377" 
d="M184 325q-67 0 -112.5 36.5t-48.5 93.5h70q0 -39 26 -65.5t66 -26.5q37 0 60 20t23 59q0 76 -112 76h-13v43h7q46 0 77.5 19t31.5 58q0 31 -21 50.5t-54 19.5q-38 0 -62.5 -24t-24.5 -63h-71q3 53 48.5 88t110.5 35q60 0 106 -25.5t46 -72.5q0 -67 -74 -98v-1
q85 -25 85 -100q0 -61 -46 -91.5t-118 -30.5z" />
    <glyph glyph-name="four.numerator" horiz-adv-x="411" 
d="M201 333v22l18 3q12 1 15.5 5t3.5 17v59h-211v41l222 254h65l-1 -104v-135h73v-56h-73v-59q0 -13 3.5 -17t16.5 -5l19 -3v-22h-151zM96 495h142v162z" />
    <glyph glyph-name="five.numerator" horiz-adv-x="379" 
d="M188 325q-63 0 -104.5 36.5t-43.5 89.5h70q0 -35 23 -61.5t55 -26.5q40 0 61.5 29.5t21.5 77.5q0 47 -24.5 72t-63.5 25q-27 0 -53 -19.5t-35 -51.5l-43 8l25 230h259l2 -60h-219l-13 -90q38 29 97 29q63 0 105 -35.5t42 -106.5q0 -65 -47 -105.5t-115 -40.5z" />
    <glyph glyph-name="six.numerator" horiz-adv-x="399" 
d="M211 708q-37 0 -61.5 -37.5t-28.5 -95.5q37 31 102 31q20 0 43 -7t47 -22t39.5 -44t15.5 -67q0 -62 -46 -101.5t-116 -39.5q-82 0 -124 53.5t-42 141.5q0 106 49 165t127 59q54 0 94.5 -26.5t48.5 -80.5h-71q-4 34 -24 52.5t-53 18.5zM207 567q-40 0 -62.5 -27t-22.5 -77
q0 -48 23.5 -74t60.5 -26q38 0 59.5 28.5t21.5 74.5q0 43 -21 72t-59 29z" />
    <glyph glyph-name="seven.numerator" horiz-adv-x="305" 
d="M5 673v61h299v-55q-3 -2 -28 -23.5t-30.5 -27.5t-26.5 -28.5t-28 -36l-21 -40.5t-19 -52.5t-9.5 -61.5t-3.5 -76h-85q-2 109 53 197.5t141 142.5h-242z" />
    <glyph glyph-name="eight.numerator" horiz-adv-x="413" 
d="M208 325q-75 0 -124 31t-49 85q0 38 31.5 62.5t72.5 34.5q-82 41 -82 105q0 45 43.5 73t110.5 28q64 0 106 -26t42 -68q0 -30 -26.5 -54t-66.5 -39l3 -1q53 -24 80.5 -49t27.5 -62q0 -53 -49.5 -86.5t-119.5 -33.5zM212 580l25 -11q22 12 37 32.5t15 42.5
q0 31 -23.5 47.5t-56.5 16.5q-76 0 -76 -55q0 -25 19.5 -40.5t59.5 -32.5zM208 363q43 0 67 17t24 46t-15.5 42t-66.5 36q-2 1 -3.5 1.5t-4 1.5t-4.5 2l-36 15q-59 -22 -59 -81q0 -40 26.5 -60t71.5 -20z" />
    <glyph glyph-name="nine.numerator" horiz-adv-x="399" 
d="M191 502q40 0 62.5 27.5t22.5 77.5q0 48 -23.5 74.5t-60.5 26.5q-39 0 -60 -29t-21 -75q0 -44 21 -73t59 -29zM186 363q37 0 62 36.5t30 94.5q-41 -31 -104 -31q-29 0 -59.5 11.5t-57.5 45t-27 83.5q0 62 46 101.5t116 39.5q82 0 124 -53.5t42 -141.5q0 -106 -49.5 -165
t-126.5 -59q-55 0 -95 26.5t-48 80.5h71q3 -33 23.5 -51t52.5 -18z" />
    <glyph glyph-name="zero.numerator" horiz-adv-x="440" 
d="M43 535q0 100 51 154.5t126 54.5t126 -54.5t51 -154.5q0 -101 -51 -155.5t-126 -54.5t-126 54.5t-51 155.5zM127 535q0 -83 25 -127.5t68 -44.5t68 44.5t25 127.5t-25 128t-68 45t-68 -45t-25 -128z" />
    <glyph glyph-name="zero.slashed.numerator" horiz-adv-x="440" 
d="M43 535q0 100 51 154.5t126 54.5t126 -54.5t51 -154.5q0 -101 -51 -155.5t-126 -54.5t-126 54.5t-51 155.5zM127 535q0 -26 1 -37l179 109q-20 101 -87 101q-43 0 -68 -45t-25 -128zM220 363q43 0 68 44.5t25 127.5q0 24 -1 35l-178 -110q20 -97 86 -97z" />
    <glyph glyph-name="period.numerator" horiz-adv-x="192" 
d="M51 333v91h90v-91h-90z" />
    <glyph glyph-name="hyphen.numerator" horiz-adv-x="267" 
d="M56 455v61h155v-61h-155z" />
    <glyph glyph-name="comma.numerator" horiz-adv-x="192" 
d="M51 333v91h90v-98l-52 -102h-29l28 109h-37z" />
    <glyph glyph-name="equal.numerator" horiz-adv-x="350" 
d="M315 520h-281v48h281v-48zM315 406h-281v47h281v-47z" />
    <glyph glyph-name="plus.numerator" horiz-adv-x="368" 
d="M209 333h-51v127h-127v48h127v123h51v-123h127v-48h-127v-127z" />
    <glyph glyph-name="minus.numerator" horiz-adv-x="367" 
d="M31 508h305v-48h-305v48z" />
    <glyph glyph-name="parenleft.numerator" horiz-adv-x="180" 
d="M105 492q0 -137 62 -264h-41q-97 135 -97 260q0 121 97 257h41q-62 -123 -62 -253z" />
    <glyph glyph-name="parenright.numerator" horiz-adv-x="179" 
d="M73 492q0 126 -61 253h40q98 -140 98 -257q0 -121 -98 -260h-40q61 131 61 264z" />
    <glyph glyph-name="a.inferior" horiz-adv-x="360" 
d="M227 -13v32l-38 -5q-69 -10 -69 -59q0 -22 14 -35t38 -13q25 0 40 16.5t15 63.5zM37 -47q0 54 50 75q35 14 94 21l46 6v14q0 36 -12.5 51t-42.5 15q-55 0 -56 -57h-69q3 42 39 66.5t89 24.5q65 0 94.5 -25t28.5 -83v-64q0 -52 1 -76q0 -12 3.5 -16t15.5 -5l23 -4v-22
l-101 -6l-5 47h-4q-26 -54 -86 -54q-42 0 -75 25.5t-33 66.5z" />
    <glyph glyph-name="b.inferior" horiz-adv-x="394" 
d="M227 -139q-59 0 -96 53l-31 -45h-31v32v37v31v266q0 12 -3 16t-16 6l-24 2v22h119v-125q0 -27 -1 -40h1q12 21 37.5 37t56.5 16q54 0 87.5 -41.5t33.5 -112.5q0 -70 -37 -112t-96 -42zM140 14q0 -62 21 -85.5t47 -23.5q35 0 52.5 30t17.5 79q0 113 -63 113
q-75 0 -75 -113z" />
    <glyph glyph-name="c.inferior" horiz-adv-x="352" 
d="M33 15q0 73 41.5 113.5t108.5 40.5q50 0 89 -25t48 -77h-72q0 36 -21 51t-40 15q-31 0 -51 -29t-20 -89q0 -59 19.5 -88t52.5 -29q11 0 23 4t24 20.5t12 41.5h73q-9 -51 -48 -77t-89 -26q-67 0 -108.5 41.5t-41.5 112.5z" />
    <glyph glyph-name="d.inferior" horiz-adv-x="390" 
d="M179 -95q76 0 76 112q0 61 -21.5 85.5t-48.5 24.5q-34 0 -51.5 -30t-17.5 -80q0 -112 63 -112zM198 281h128l-1 -90v-269q0 -13 3 -17t16 -5l24 -3v-21l-118 -8v47h-1q-36 -54 -94 -54q-55 0 -88.5 42t-33.5 113q0 70 37 111.5t96 41.5q54 0 83 -52h1q0 2 -0.5 16.5
t-0.5 33.5v68q0 13 -3 17t-15 5l-33 2v22z" />
    <glyph glyph-name="e.inferior" horiz-adv-x="357" 
d="M180 134q-68 0 -68 -85h131q5 85 -63 85zM324 -37q-10 -51 -49 -76.5t-92 -25.5q-64 0 -107.5 40.5t-43.5 113.5q0 67 40 110.5t108 43.5q69 0 107 -40.5t35 -117.5h-210q1 -53 21.5 -83t54.5 -30q25 0 42.5 17.5t19.5 47.5h74z" />
    <glyph glyph-name="f.inferior" horiz-adv-x="259" 
d="M203 -108v-23h-174v22l24 3q12 1 15.5 5.5t3.5 16.5v208h-41v41h41v29q0 56 27.5 71.5t90.5 15.5h56v-43h-66q-19 0 -25.5 -8t-6.5 -25v-40h98v-41h-98v-207q0 -13 3.5 -17.5t15.5 -5.5z" />
    <glyph glyph-name="g.inferior" horiz-adv-x="367" 
d="M160 -5q48 0 48 73q0 74 -48 74q-45 0 -45 -72q0 -40 10 -57.5t35 -17.5zM326 -133q0 -38 -49 -71t-114 -33q-72 0 -103 19.5t-31 48.5q0 20 19.5 35.5t47.5 18.5q-40 9 -40 45q0 16 17 28t39 16q-71 24 -71 96q0 46 34.5 72.5t84.5 26.5q49 0 83 -23l-17 15l109 4v-41
l-79 11q28 -26 28 -68q0 -52 -36 -76t-86 -24q-22 0 -38 4q-4 -4 -4 -15q0 -16 27 -18l85 -7q52 -4 73 -19.5t21 -44.5zM167 -206q35 0 59.5 15.5t24.5 35.5q0 27 -48 32l-88 5q-16 -14 -16 -37q0 -21 18 -36t50 -15z" />
    <glyph glyph-name="h.inferior" horiz-adv-x="383" 
d="M186 -109v-22h-162v22l24 3q12 1 15.5 5.5t3.5 16.5v319q0 12 -3 16t-16 6l-24 2v22h119v-90l-1 -72v0q29 50 88 50q91 0 91 -110v-143q0 -13 3.5 -17t15.5 -5l24 -3v-22h-162v22l24 3q12 1 15.5 5.5t3.5 16.5v115q0 52 -10 72t-36 20q-56 0 -56 -73v-134q0 -13 3.5 -17
t15.5 -5z" />
    <glyph glyph-name="i.inferior" horiz-adv-x="218" 
d="M74 201v80h76v-80h-76zM193 -131h-162v22l24 3q12 1 15.5 5.5t3.5 16.5v204q0 12 -3.5 15.5t-15.5 4.5l-24 2v23h119v-249q0 -13 3.5 -17t15.5 -5l24 -3v-22z" />
    <glyph glyph-name="j.inferior" horiz-adv-x="228" 
d="M85 201v80h77v-80h-77zM59 -236h-38v46h38q18 0 22 11t4 62v237q0 12 -3 15.5t-15 4.5l-24 2v23h119v-272q0 -82 -21.5 -105.5t-81.5 -23.5z" />
    <glyph glyph-name="k.inferior" horiz-adv-x="372" 
d="M186 -109v-22h-162v22l24 3q12 1 15.5 5.5t3.5 16.5v319q0 12 -3 16t-16 6l-24 2v22h119v-268l114 109q2 1 0 4.5t-7 7.5t-12 5l-33 4v22h156v-22l-40 -5q-2 0 -32 -29l-60 -56l88 -143q13 -15 28 -17l14 -2v-22h-109l-76 133l-31 -29v-57q0 -13 3.5 -17t15.5 -5z" />
    <glyph glyph-name="l.inferior" horiz-adv-x="208" 
d="M186 -131h-162v22l24 3q12 1 15.5 5.5t3.5 16.5v319q0 12 -3 16t-16 6l-24 2v22h119v-365q0 -13 3.5 -17t15.5 -5l24 -3v-22z" />
    <glyph glyph-name="m.inferior" horiz-adv-x="548" 
d="M193 -109v-22h-162v22l24 3q12 1 15.5 5.5t3.5 16.5v204q0 12 -3.5 15.5t-15.5 4.5l-24 2v23h118v-46q29 50 84 50q60 0 80 -53q10 22 34.5 37.5t54.5 15.5q50 0 67 -29.5t17 -80.5v-143q0 -13 3.5 -17t15.5 -5l24 -3v-22h-162v22l24 3q12 1 15.5 5t3.5 17v115
q0 52 -9 72t-33 20q-18 0 -29 -6.5t-15 -20t-5 -22.5t-1 -24v-134q0 -13 3.5 -17t15.5 -5l24 -3v-22h-162v22l24 3q13 1 16.5 5t3.5 17v115q0 51 -10 71.5t-34 20.5q-23 0 -34.5 -14t-13 -26t-1.5 -33v-134q0 -13 3.5 -17t15.5 -5z" />
    <glyph glyph-name="n.inferior" horiz-adv-x="390" 
d="M193 -109v-22h-162v22l24 3q12 1 15.5 5.5t3.5 16.5v204q0 12 -3.5 15.5t-15.5 4.5l-24 2v23h118v-46q29 50 88 50q91 0 91 -110v-143q0 -13 3.5 -17t15.5 -5l24 -3v-22h-162v22l24 3q12 1 15.5 5.5t3.5 16.5v115q0 52 -10 72t-36 20q-56 0 -56 -73v-134q0 -13 3.5 -17
t15.5 -5z" />
    <glyph glyph-name="o.inferior" horiz-adv-x="371" 
d="M185 169q68 0 110.5 -41.5t42.5 -112.5t-42.5 -112.5t-111.5 -41.5t-110 42t-41 114t41.5 112t110.5 40zM185 -102q70 0 70 118q0 117 -70 117q-69 0 -69 -117q0 -118 69 -118z" />
    <glyph glyph-name="p.inferior" horiz-adv-x="385" 
d="M131 14q0 -62 20.5 -85.5t47.5 -23.5q34 0 51.5 30t17.5 79q0 113 -63 113q-74 0 -74 -113zM134 165v-49h1q13 21 38 37t57 16q53 0 87 -41.5t34 -112.5q0 -70 -37.5 -112t-95.5 -42q-56 0 -82 54h-1q0 -12 0.5 -15t0.5 -20v-67q0 -13 3.5 -17.5t15.5 -5.5l40 -2v-24
h-178v23l24 2q12 1 15.5 5.5t3.5 17.5v308q0 12 -3.5 15.5t-15.5 4.5l-24 2v23h117z" />
    <glyph glyph-name="q.inferior" horiz-adv-x="393" 
d="M249 -187v66v37h-1q-12 -21 -37.5 -38t-56.5 -17q-54 0 -87.5 41.5t-33.5 112.5q0 70 37 112t96 42q61 0 96 -51h1l33 47h30l-1 -108v-245q0 -13 3.5 -17.5t15.5 -5.5l24 -2v-23h-178v24l41 2q12 1 15 5.5t3 17.5zM255 17q0 61 -21.5 85.5t-48.5 24.5q-34 0 -51.5 -30
t-17.5 -80q0 -112 63 -112q76 0 76 112z" />
    <glyph glyph-name="r.inferior" horiz-adv-x="291" 
d="M31 -131v22l24 3q12 1 15.5 5.5t3.5 16.5v204q0 12 -3.5 15.5t-15.5 4.5l-24 2v23h118v-71h1q12 34 40 53.5t62 19.5h24v-72h-59q-35 0 -51 -12.5t-16 -55.5v-110q0 -13 3.5 -17.5t15.5 -5.5l36 -2v-23h-174z" />
    <glyph glyph-name="s.inferior" horiz-adv-x="325" 
d="M162 -139q-49 0 -87.5 26t-41.5 75h69q3 -27 19.5 -45.5t50.5 -18.5q60 0 60 42q0 37 -68 48l-34 7q-38 7 -65.5 28t-27.5 61q0 46 37.5 65.5t86.5 19.5q48 0 83 -24t44 -67h-68q0 21 -19 38t-46 17q-59 0 -59 -31q0 -36 58 -47l35 -7q50 -9 77 -29t27 -67
q0 -91 -131 -91z" />
    <glyph glyph-name="t.inferior" horiz-adv-x="253" 
d="M218 165v-41h-79v-167q0 -26 8.5 -35t35.5 -9h36v-44h-44q-69 0 -91 14.5t-22 64.5v176h-50v41h50v96h77v-96h79z" />
    <glyph glyph-name="u.inferior" horiz-adv-x="383" 
d="M235 -87q-29 -52 -89 -52q-51 0 -70 30t-19 82v147q0 12 -3.5 15.5t-16.5 4.5l-23 2v23h119l-1 -90v-74q0 -53 10.5 -73.5t36.5 -20.5q56 0 56 74v139q0 12 -3.5 15.5t-15.5 4.5l-24 2v23h119v-243q0 -13 3 -17t16 -5l24 -3v-21l-117 -14z" />
    <glyph glyph-name="v.inferior" horiz-adv-x="341" 
d="M143 -132l-98 255q-7 17 -21 19l-15 1v22h148v-22l-22 -2q-18 -1 -11 -20l55 -164l58 154q3 9 4.5 13t2 8.5t-2 6.5t-7.5 2l-27 2v22h124v-22l-20 -1q-10 -1 -14 -7t-13 -29l-96 -238h-45z" />
    <glyph glyph-name="w.inferior" horiz-adv-x="470" 
d="M326 -32l37 143q7 29 -1 30l-27 2v22h125v-22l-19 -1q-18 -3 -29 -36l-77 -238h-44l-59 203l-59 -203h-48l-80 255q-5 17 -12 18l-24 2v22h148v-22l-21 -2q-11 -1 -13 -5.5t2 -16.5l37 -151l60 197h48z" />
    <glyph glyph-name="x.inferior" horiz-adv-x="404" 
d="M159 -109v-22h-139v22l22 1q17 2 34 17l88 102l-82 107q-8 10 -12.5 14.5t-8.5 6t-12 2.5l-8 2v22h146v-22l-21 -2q-8 -2 1 -15l45 -59l61 71h-1.5t-3 1t-5.5 1l-24 3v22h139v-22l-21 -1q-19 -2 -32 -15l-85 -98l86 -113q15 -20 32 -23l9 -2v-22h-145v22l21 2q8 2 -1 15
l-50 66l-69 -80q2 2 12 0z" />
    <glyph glyph-name="y.inferior" horiz-adv-x="341" 
d="M76 -236h-46v44h47q20 0 32.5 13.5t25.5 52.5l1 6l-91 243q-5 17 -25 19l-11 1v22h154v-22l-30 -2q-18 -1 -10 -22l56 -163l59 155q11 27 -1 29l-33 3v22h127v-22l-20 -1q-12 -2 -22 -28l-100 -248q-23 -58 -44.5 -80t-68.5 -22z" />
    <glyph glyph-name="z.inferior" horiz-adv-x="328" 
d="M32 -131v39l167 216h-151v41h244v-37l-167 -219h171v-40h-264z" />
    <glyph glyph-name="zero.slashed.inferior" horiz-adv-x="440" 
d="M43 71q0 100 51 154.5t126 54.5t126 -54.5t51 -154.5q0 -101 -51 -155.5t-126 -54.5t-126 54.5t-51 155.5zM127 71q0 -14 2 -38l178 110q-20 100 -87 100q-43 0 -68 -44.5t-25 -127.5zM220 -102q43 0 68 45t25 128q0 24 -1 35l-178 -110q20 -98 86 -98z" />
    <glyph glyph-name="period.inferior" horiz-adv-x="192" 
d="M51 -131v91h90v-91h-90z" />
    <glyph glyph-name="hyphen.inferior" horiz-adv-x="267" 
d="M56 -9v61h155v-61h-155z" />
    <glyph glyph-name="comma.inferior" horiz-adv-x="192" 
d="M51 -131v91h90v-98l-52 -102h-29l28 109h-37z" />
    <glyph glyph-name="equal.inferior" horiz-adv-x="350" 
d="M315 56h-281v48h281v-48zM315 -58h-281v47h281v-47z" />
    <glyph glyph-name="plus.inferior" horiz-adv-x="368" 
d="M209 -131h-51v127h-127v48h127v123h51v-123h127v-48h-127v-127z" />
    <glyph glyph-name="minus.inferior" horiz-adv-x="367" 
d="M31 44h305v-48h-305v48z" />
    <glyph glyph-name="a.superior" horiz-adv-x="360" 
d="M227 563v32l-38 -4q-69 -12 -69 -59q0 -23 14 -36.5t38 -13.5q55 0 55 81zM37 532q0 52 50 73q28 11 94 21l46 5v14q0 36 -12.5 51.5t-42.5 15.5q-55 0 -56 -58h-69q3 43 39 67.5t89 24.5q65 0 94.5 -25t28.5 -83v-65q0 -51 1 -75q0 -13 3.5 -17t15.5 -5l23 -3v-22
l-101 -7l-5 47h-4q-27 -53 -86 -53q-41 0 -74.5 26.5t-33.5 67.5z" />
    <glyph glyph-name="b.superior" horiz-adv-x="394" 
d="M227 438q-60 0 -96 52l-31 -45h-31v32v37.5v31.5v265q0 13 -3 17t-16 5l-24 2v22h119v-124q0 -28 -1 -41h1q12 21 37.5 37.5t56.5 16.5q54 0 87.5 -41.5t33.5 -112.5q0 -70 -37 -112t-96 -42zM140 591q0 -62 21 -85.5t47 -23.5q35 0 52.5 30t17.5 79q0 112 -63 112
q-75 0 -75 -112z" />
    <glyph glyph-name="c.superior" horiz-adv-x="352" 
d="M33 592q0 72 41.5 113t108.5 41q50 0 89 -25.5t48 -77.5h-72q0 36 -20.5 51.5t-40.5 15.5q-31 0 -51 -29t-20 -89q0 -59 19.5 -88t52.5 -29q20 0 40 14.5t19 50.5h73q-9 -51 -48 -76.5t-89 -25.5q-67 0 -108.5 41.5t-41.5 112.5z" />
    <glyph glyph-name="d.superior" horiz-adv-x="390" 
d="M179 482q76 0 76 112q0 61 -21.5 85t-48.5 24q-34 0 -51.5 -30t-17.5 -79q0 -112 63 -112zM198 857h128l-1 -89v-269q0 -13 3.5 -17.5t15.5 -5.5l24 -2v-22l-118 -8v47h-1q-14 -21 -39 -37t-55 -16q-55 0 -88.5 42t-33.5 113q0 70 37 111.5t96 41.5q54 0 83 -53h1
q0 2 -0.5 17t-0.5 34v67q0 13 -3 17t-15 5l-33 2v22z" />
    <glyph glyph-name="e.superior" horiz-adv-x="357" 
d="M180 711q-68 0 -68 -85h131q5 85 -63 85zM324 539q-10 -51 -49 -76t-92 -25q-64 0 -107.5 40t-43.5 114q0 66 40 110t108 44q69 0 107 -41t35 -118h-210q1 -54 21.5 -83t54.5 -29q25 0 42.5 17.5t19.5 46.5h74z" />
    <glyph glyph-name="f.superior" horiz-adv-x="259" 
d="M203 468v-23h-174v22l24 4q12 1 15.5 5t3.5 16v209h-41v40h41v30q0 56 27.5 71t90.5 15h56v-42h-66q-19 0 -25.5 -8t-6.5 -25v-41h98v-40h-98v-207q0 -14 3.5 -18t15.5 -5z" />
    <glyph glyph-name="g.superior" horiz-adv-x="367" 
d="M160 571q48 0 48 73q0 74 -48 74q-45 0 -45 -72q0 -40 10 -57.5t35 -17.5zM326 443q0 -38 -49 -70.5t-114 -32.5q-72 0 -103 19.5t-31 47.5q0 20 19.5 35.5t47.5 18.5q-40 11 -40 46q0 16 17.5 28t40.5 16q-73 22 -73 95q0 47 34.5 73.5t84.5 26.5q46 0 81 -22l-15 13
l109 4v-40l-79 11q28 -28 28 -69q0 -51 -36 -75t-86 -24q-22 0 -38 4q-4 -3 -4 -15q0 -17 27 -19l85 -6q52 -4 73 -20t21 -45zM167 370q35 0 59.5 15.5t24.5 35.5q0 29 -48 32l-88 6q-16 -14 -16 -38q0 -21 18 -36t50 -15z" />
    <glyph glyph-name="h.superior" horiz-adv-x="383" 
d="M186 467v-22h-162v22l24 4q12 1 15.5 5t3.5 16v319q0 13 -3 17t-16 5l-24 2v22h119v-89l-1 -72v0q29 50 88 50q51 0 71 -29.5t20 -81.5v-143q0 -12 3.5 -16t15.5 -5l24 -4v-22h-162v22l24 4q12 1 15.5 5t3.5 16v115q0 52 -10 72.5t-36 20.5q-56 0 -56 -73v-135
q0 -12 3.5 -16t15.5 -5z" />
    <glyph glyph-name="i.superior" horiz-adv-x="218" 
d="M74 777v80h76v-80h-76zM193 445h-162v22l24 4q12 1 15.5 5t3.5 16v205q0 12 -3.5 15t-15.5 4l-24 2v23h119v-249q0 -12 3.5 -16t15.5 -5l24 -4v-22z" />
    <glyph glyph-name="j.superior" horiz-adv-x="228" 
d="M85 777v80h77v-80h-77zM59 341h-38v46h38q18 0 22 11t4 62v237q0 12 -3 15t-15 4l-24 2v23h119v-271q0 -82 -21.5 -105.5t-81.5 -23.5z" />
    </font>
</defs>
</svg>
